{"glyphs":{"0":{"ha":761,"x_min":60,"x_max":701,"o":"m 383 131 q 423 131 383 131 q 490 215 464 131 q 515 469 515 300 q 485 790 515 697 q 375 882 454 882 q 269 792 296 882 q 247 557 247 715 q 274 228 247 325 q 383 131 301 131 m 615 844 q 658 782 615 844 q 701 504 701 721 q 615 167 701 288 q 380 47 529 47 q 145 167 231 47 q 60 504 60 288 q 146 844 60 721 q 380 967 232 967 q 615 844 528 967 z "},"1":{"ha":483,"x_min":28,"x_max":457,"o":"m 28 65 q 28 91 28 74 q 35 129 28 108 q 133 151 101 136 q 165 206 165 167 l 165 799 l 35 778 q 33 799 33 786 q 39 825 33 813 q 300 971 190 918 l 336 956 l 336 157 q 457 129 389 133 q 451 65 457 89 l 28 65 z "},"2":{"ha":678,"x_min":61,"x_max":615,"o":"m 449 201 q 534 228 507 201 q 575 329 561 256 q 615 319 596 329 q 583 65 615 169 l 75 65 q 61 181 61 139 q 348 513 281 414 q 415 706 415 611 q 381 805 415 765 q 294 844 347 844 q 154 713 186 844 q 133 711 146 711 q 100 714 119 711 q 100 790 100 739 q 107 893 100 842 q 336 965 213 965 q 530 897 460 965 q 600 724 600 828 q 585 637 600 669 q 560 585 569 604 q 525 537 550 567 q 483 488 500 507 q 426 428 467 468 q 361 365 386 389 q 186 201 274 285 l 449 201 z "},"3":{"ha":656,"x_min":49,"x_max":594,"o":"m 225 529 q 350 589 306 539 q 394 706 394 639 q 365 808 394 772 q 283 844 335 844 q 138 713 169 844 q 117 711 129 711 q 83 714 104 711 q 83 790 83 739 q 90 893 83 842 q 343 965 210 965 q 510 906 442 965 q 578 757 578 847 q 533 632 578 692 q 408 533 488 572 q 594 303 594 474 q 508 120 594 193 q 294 47 421 47 q 49 146 168 47 q 93 211 67 193 q 253 157 168 157 q 381 194 338 157 q 425 301 425 232 q 373 413 425 371 q 225 458 321 456 l 225 529 z "},"4":{"ha":707,"x_min":35,"x_max":672,"o":"m 390 379 l 390 699 l 156 379 l 390 379 m 542 286 l 542 146 q 629 128 576 131 q 624 65 629 89 l 297 65 q 297 92 297 75 q 303 128 297 108 q 370 151 350 135 q 390 206 390 167 l 390 286 l 72 286 q 35 364 44 325 l 453 951 l 542 951 l 542 379 l 665 379 q 672 323 672 346 q 671 286 672 300 l 542 286 z "},"5":{"ha":672,"x_min":40,"x_max":608,"o":"m 201 574 q 378 624 289 624 q 538 556 468 624 q 608 360 608 488 q 514 140 608 233 q 284 47 419 47 q 40 146 149 47 q 86 213 58 192 q 251 157 164 157 q 388 209 338 157 q 438 343 438 261 q 397 469 438 425 q 290 514 356 514 q 128 454 224 514 l 101 467 l 147 933 l 431 933 q 549 997 521 933 q 589 989 568 997 q 553 796 585 900 l 226 796 l 201 574 z "},"6":{"ha":700,"x_min":69,"x_max":654,"o":"m 272 203 q 290 173 272 203 q 363 142 308 142 q 454 194 417 142 q 492 326 492 246 q 450 463 492 414 q 349 511 408 511 q 244 485 290 511 q 236 401 236 435 q 272 203 236 265 m 654 355 q 654 293 654 355 q 565 140 654 232 q 357 47 476 47 q 158 135 238 47 q 71 368 78 222 q 69 400 69 385 q 185 733 69 574 q 499 974 301 893 q 550 908 550 944 q 263 568 333 807 q 423 611 328 611 q 583 547 518 611 q 654 355 654 478 z "},"7":{"ha":606,"x_min":53,"x_max":585,"o":"m 281 65 q 233 63 263 63 q 154 75 203 63 l 400 654 l 472 800 l 218 800 q 135 777 161 800 q 97 688 110 754 q 53 697 72 688 q 67 938 53 846 l 546 938 q 585 829 576 890 l 281 65 z "},"8":{"ha":747,"x_min":71,"x_max":679,"o":"m 231 263 q 231 234 231 263 q 269 169 231 204 q 372 135 307 135 q 476 174 436 135 q 517 276 517 213 q 365 464 517 389 q 261 370 292 418 q 231 263 231 322 m 507 740 q 476 835 507 794 q 381 876 446 876 q 283 844 315 876 q 250 757 250 813 q 406 581 250 658 q 507 740 507 658 m 679 289 q 589 121 679 194 q 369 47 499 47 q 156 113 240 47 q 71 261 71 179 q 126 397 71 343 q 281 506 181 451 q 83 725 83 608 q 175 897 83 831 q 390 964 267 964 q 590 901 514 964 q 665 746 665 839 q 623 633 665 682 q 494 536 581 585 q 679 289 679 432 z "},"9":{"ha":676,"x_min":40,"x_max":628,"o":"m 247 553 q 268 528 247 553 q 350 503 290 503 q 456 529 410 503 q 461 608 461 575 q 422 809 461 744 q 328 874 382 874 q 238 822 274 874 q 203 694 203 771 q 247 553 203 604 m 628 599 q 525 288 628 433 q 214 40 408 121 q 160 106 163 71 q 439 446 372 207 q 280 403 375 403 q 117 467 185 403 q 40 662 40 539 q 126 876 40 785 q 331 967 213 967 q 533 879 450 967 q 625 646 615 792 q 628 599 628 622 z "},"\u0000":{"ha":0,"x_min":0,"x_max":0,"o":""},"\r":{"ha":347,"x_min":0,"x_max":0,"o":""}," ":{"ha":347,"x_min":0,"x_max":0,"o":""},"!":{"ha":624,"x_min":210,"x_max":394,"o":"m 236 971 l 374 919 l 347 314 l 338 314 l 256 356 l 224 971 l 236 971 m 394 137 q 394 118 394 137 q 367 72 394 99 q 302 44 340 44 q 237 72 264 44 q 210 136 210 99 q 237 201 210 174 q 301 229 264 229 q 367 202 339 229 q 394 137 394 175 z "},"\"":{"ha":549,"x_min":97,"x_max":443,"o":"m 97 1135 l 242 1135 l 204 842 l 135 842 l 97 1135 m 300 1135 l 443 1135 l 407 842 l 338 842 l 300 1135 z "},"#":{"ha":978,"x_min":60,"x_max":931,"o":"m 576 400 l 626 649 l 417 649 l 368 400 l 576 400 m 931 649 l 742 649 l 693 400 l 872 400 l 872 293 l 671 293 l 626 65 l 510 65 l 556 293 l 346 293 l 301 65 l 186 65 l 232 293 l 60 293 l 60 400 l 253 400 l 303 649 l 118 649 l 118 756 l 324 756 l 368 979 l 482 979 l 438 756 l 649 756 l 693 979 l 807 979 l 763 756 l 931 756 l 931 649 z "},"$":{"ha":658,"x_min":33,"x_max":608,"o":"m 335 814 q 251 788 286 814 q 217 713 217 763 q 230 664 217 679 q 252 641 243 649 q 281 624 261 633 q 313 608 300 614 q 355 590 326 601 q 400 571 383 578 q 554 476 500 529 q 608 322 608 422 q 542 155 608 221 q 379 78 476 89 l 379 -12 l 300 -12 l 300 78 q 33 188 164 92 l 118 314 q 213 229 150 271 q 342 188 276 188 q 444 219 408 188 q 479 304 479 251 q 444 385 479 357 q 349 437 410 413 q 260 474 288 461 q 194 509 232 486 q 136 556 157 532 q 88 705 88 615 q 153 857 88 794 q 311 929 219 919 l 311 1015 l 392 1015 l 392 926 q 579 840 493 911 l 501 732 q 335 814 435 814 z "},"%":{"ha":1133,"x_min":82,"x_max":1068,"o":"m 378 65 l 229 65 l 764 933 l 911 933 l 378 65 m 189 708 q 210 608 189 644 q 267 571 231 571 q 324 606 303 571 q 344 708 344 642 q 265 838 344 838 q 189 708 189 838 m 82 714 q 82 762 82 714 q 130 873 82 810 q 267 936 178 936 q 404 873 357 936 q 451 712 451 810 q 406 549 451 614 q 269 483 360 483 q 131 551 179 483 q 82 714 82 618 m 883 414 q 807 286 807 414 q 827 183 807 219 q 883 147 847 147 q 941 183 919 147 q 963 282 963 218 q 883 414 963 414 m 747 449 q 771 481 747 449 q 885 513 794 513 q 1022 449 975 513 q 1068 288 1068 386 q 1022 125 1068 190 q 886 60 976 60 q 748 126 796 60 q 700 290 700 193 q 747 449 700 386 z "},"&":{"ha":981,"x_min":50,"x_max":954,"o":"m 194 335 q 194 303 194 335 q 255 231 194 272 q 397 190 315 190 q 544 250 478 190 q 299 469 383 382 q 194 335 194 397 m 354 864 q 276 789 276 864 q 368 608 276 719 q 469 758 469 690 q 435 833 469 801 q 354 864 401 864 m 332 47 q 136 113 222 47 q 50 275 50 179 q 100 404 50 349 q 249 525 150 460 q 147 721 147 644 q 225 893 147 822 q 392 964 303 964 q 544 913 481 964 q 608 788 608 863 q 562 680 608 732 q 417 553 515 628 q 631 357 496 468 q 725 576 675 432 l 954 576 l 913 442 l 747 442 q 688 310 718 364 q 910 143 793 226 l 803 56 q 615 194 701 128 q 332 47 497 47 z "},"'":{"ha":413,"x_min":138,"x_max":282,"o":"m 138 1135 l 282 1135 l 244 842 l 175 842 l 138 1135 z "},"(":{"ha":542,"x_min":126,"x_max":547,"o":"m 547 1203 q 344 902 411 1076 q 276 548 276 728 q 344 192 276 368 q 547 -112 411 15 l 474 -172 q 214 154 301 -32 q 126 549 126 340 q 474 1263 126 981 l 547 1203 z "},")":{"ha":535,"x_min":-6,"x_max":415,"o":"m 328 940 q 372 848 328 940 q 415 549 415 757 q 328 154 415 340 q 69 -172 242 -32 l -6 -112 q 198 192 131 15 q 265 548 265 368 q 198 902 265 728 q -6 1203 131 1076 l 69 1263 q 328 940 242 1122 z "},"*":{"ha":658,"x_min":75,"x_max":546,"o":"m 239 997 q 307 1007 260 1007 q 378 1000 354 1007 l 350 818 l 508 897 q 534 833 522 879 q 546 761 546 788 l 368 746 l 500 624 q 451 575 489 603 q 388 540 414 547 l 313 696 l 240 542 q 178 574 217 547 q 126 622 139 601 l 253 746 l 75 761 q 87 836 75 790 q 114 897 99 882 l 271 819 l 239 997 z "},"+":{"ha":901,"x_min":96,"x_max":806,"o":"m 806 436 l 521 436 l 521 153 l 511 153 l 381 254 l 381 436 l 156 436 l 96 556 l 96 567 l 381 567 l 381 849 l 392 849 l 521 746 l 521 567 l 746 567 l 806 446 l 806 436 z "},",":{"ha":415,"x_min":110,"x_max":315,"o":"m 176 242 q 315 49 315 192 q 201 -229 315 -94 l 121 -190 q 199 -4 199 -83 q 110 122 200 75 l 110 132 l 176 242 z "},"-":{"ha":833,"x_min":96,"x_max":726,"o":"m 726 436 l 156 436 l 96 556 l 96 567 l 667 567 l 726 446 l 726 436 z "},".":{"ha":383,"x_min":93,"x_max":292,"o":"m 292 152 q 292 132 292 152 q 263 81 292 111 q 192 51 233 51 q 122 81 151 51 q 93 152 93 111 q 122 222 93 193 q 192 251 151 251 q 263 222 233 251 q 292 152 292 193 z "},"/":{"ha":640,"x_min":92,"x_max":515,"o":"m 376 1088 l 515 1088 l 229 -42 l 92 -42 l 376 1088 z "},":":{"ha":433,"x_min":117,"x_max":317,"o":"m 217 813 q 239 813 217 813 q 288 783 260 813 q 317 713 317 754 q 288 642 317 671 q 217 613 258 613 q 146 642 175 613 q 117 713 117 671 q 146 783 117 754 q 217 813 175 813 m 217 268 q 238 268 217 268 q 288 238 258 268 q 317 167 317 208 q 288 97 317 125 q 217 68 258 68 q 146 97 175 68 q 117 167 117 125 q 146 238 117 208 q 217 268 175 268 z "},";":{"ha":433,"x_min":117,"x_max":339,"o":"m 288 631 q 273 616 288 631 q 217 601 258 601 q 146 631 175 601 q 117 701 117 660 q 146 772 117 742 q 217 801 175 801 q 288 772 258 801 q 317 701 317 742 q 288 631 317 660 m 339 69 q 306 -79 339 -6 q 226 -210 274 -153 l 144 -172 q 224 17 224 -61 q 133 142 224 94 l 133 153 l 201 261 q 339 69 339 208 z "},"<":{"ha":896,"x_min":122,"x_max":769,"o":"m 200 406 l 122 532 l 674 813 l 769 690 l 318 454 l 758 267 l 715 185 l 200 406 z "},"=":{"ha":904,"x_min":114,"x_max":801,"o":"m 801 574 l 174 574 l 114 693 l 114 706 l 742 706 l 801 585 l 801 574 m 801 294 l 174 294 l 114 414 l 114 426 l 742 426 l 801 306 l 801 294 z "},">":{"ha":936,"x_min":144,"x_max":792,"o":"m 715 593 l 792 467 l 240 185 l 144 308 l 596 543 l 154 732 l 199 813 l 715 593 z "},"?":{"ha":794,"x_min":135,"x_max":649,"o":"m 434 82 q 420 69 434 82 q 369 56 407 56 q 306 82 332 56 q 281 145 281 108 q 306 208 281 182 q 369 235 332 235 q 434 208 407 235 q 461 144 461 181 q 434 82 461 108 m 529 789 q 495 852 529 825 q 407 879 461 879 q 225 808 314 879 l 135 921 q 344 1000 225 1000 q 556 921 463 1000 q 649 735 649 842 q 564 574 649 635 q 419 496 503 529 l 419 338 l 406 338 l 313 382 l 313 589 q 493 692 457 651 q 529 789 529 733 z "},"@":{"ha":1314,"x_min":83,"x_max":1231,"o":"m 733 200 l 733 379 q 728 379 731 379 q 609 342 654 379 q 564 254 564 304 q 585 181 564 204 q 639 157 606 157 q 733 200 696 157 m 903 501 l 903 246 q 968 151 903 151 q 1062 213 1018 151 q 1106 419 1106 275 q 995 726 1106 606 q 676 846 885 846 q 338 707 468 846 q 208 338 208 568 q 335 13 208 139 q 685 -112 461 -112 q 654 -204 683 -156 q 239 -44 394 -204 q 83 343 83 115 q 252 776 83 603 q 676 949 421 949 q 1081 797 932 949 q 1231 419 1231 644 q 1137 142 1231 236 q 914 47 1043 47 q 747 139 785 47 q 564 47 671 47 q 433 95 483 47 q 382 224 382 143 q 486 396 382 335 q 690 447 574 447 q 733 446 711 447 l 733 493 q 707 572 733 547 q 613 596 681 596 q 463 564 544 596 l 426 614 q 694 718 542 718 q 850 661 797 718 q 903 501 903 604 z "},"A":{"ha":864,"x_min":-1,"x_max":867,"o":"m 276 444 l 501 444 l 386 821 l 375 765 l 276 444 m 481 65 q 486 129 481 100 q 589 163 556 146 l 526 367 l 253 367 l 186 149 q 294 129 222 129 q 289 65 294 93 l -1 65 q 4 129 -1 101 q 104 215 82 147 l 346 949 q 518 965 408 963 l 758 213 q 797 149 774 167 q 867 129 819 131 q 860 65 864 88 l 481 65 z "},"B":{"ha":863,"x_min":53,"x_max":789,"o":"m 324 138 l 418 138 q 558 181 510 138 q 607 306 607 225 q 558 433 607 388 q 418 478 510 478 l 324 478 l 324 138 m 324 550 l 453 550 q 538 613 506 571 q 569 722 569 656 q 526 833 569 789 q 399 876 482 876 l 324 876 l 324 550 m 399 947 q 667 881 582 947 q 753 711 753 815 q 625 526 753 583 q 747 444 704 503 q 789 307 789 386 q 697 131 789 196 q 425 65 604 65 l 56 65 q 56 92 56 75 q 61 129 56 108 q 128 151 107 136 q 149 206 149 167 l 149 867 q 53 883 107 883 q 53 903 53 889 q 57 947 53 917 l 399 947 z "},"C":{"ha":847,"x_min":72,"x_max":806,"o":"m 492 47 q 195 167 318 47 q 72 498 72 288 q 206 838 72 708 q 539 967 340 967 q 788 919 696 967 q 758 689 781 799 q 703 690 707 689 q 656 820 700 771 q 532 869 611 869 q 338 776 414 869 q 263 512 263 682 q 342 253 263 342 q 547 164 422 164 q 767 226 672 164 l 806 183 q 667 84 750 121 q 492 47 585 47 z "},"D":{"ha":925,"x_min":53,"x_max":882,"o":"m 325 138 l 411 138 q 621 234 549 138 q 693 507 693 331 q 620 780 693 683 q 404 876 547 876 l 325 876 l 325 138 m 425 947 q 754 831 626 947 q 882 506 882 715 q 759 181 882 297 q 440 65 636 65 l 56 65 q 56 92 56 75 q 61 129 56 108 q 128 151 107 136 q 149 206 149 167 l 149 867 q 53 883 111 883 q 53 903 53 889 q 57 947 53 917 l 425 947 z "},"E":{"ha":789,"x_min":51,"x_max":733,"o":"m 325 138 l 533 138 q 621 176 600 138 q 651 308 642 215 q 728 304 706 308 q 733 164 733 224 q 732 65 733 104 l 56 65 q 56 91 56 74 q 63 129 56 108 q 129 151 108 136 q 150 206 150 167 l 150 865 q 51 883 113 883 q 58 947 51 925 l 718 947 q 718 857 718 918 q 711 717 718 796 q 639 714 683 714 q 606 847 626 826 q 525 876 576 876 l 325 876 l 325 546 l 525 561 l 579 561 l 579 460 l 525 460 l 325 471 l 325 138 z "},"F":{"ha":749,"x_min":51,"x_max":718,"o":"m 718 947 q 718 857 718 918 q 711 717 718 796 q 639 714 683 714 q 606 847 626 826 q 525 876 576 876 l 325 876 l 325 518 l 519 533 l 575 533 l 575 432 l 519 432 l 325 443 l 325 158 q 471 129 379 138 q 465 65 471 89 l 54 65 q 54 92 54 74 q 61 129 54 110 q 128 152 107 136 q 150 207 150 168 l 150 865 q 51 883 113 883 q 58 947 51 925 l 718 947 z "},"G":{"ha":944,"x_min":72,"x_max":922,"o":"m 921 507 q 922 481 922 499 q 915 438 922 464 q 853 417 871 426 q 824 360 824 400 l 824 65 l 731 65 l 701 107 q 489 47 603 47 q 194 169 315 47 q 72 499 72 290 q 212 837 72 707 q 546 967 351 967 q 832 919 694 967 q 803 696 828 807 q 785 696 797 696 q 749 697 774 696 q 681 823 735 778 q 544 868 626 868 q 339 773 415 868 q 263 503 263 678 q 333 237 263 328 q 525 146 404 146 q 669 181 600 146 l 669 419 q 556 438 622 435 q 561 507 556 479 l 921 507 z "},"H":{"ha":1004,"x_min":51,"x_max":953,"o":"m 857 807 l 857 146 q 953 129 897 129 q 949 65 953 92 l 586 65 q 592 129 586 110 q 658 151 638 136 q 679 206 679 167 l 679 461 l 325 461 l 325 146 q 421 129 365 129 q 421 110 421 124 q 417 65 421 96 l 56 65 q 56 91 56 74 q 63 129 56 108 q 129 151 108 136 q 150 206 150 167 l 150 865 q 51 883 110 883 q 58 947 51 925 l 418 947 q 419 920 419 938 q 413 883 419 903 q 347 862 368 878 q 325 807 325 846 l 325 547 l 679 547 l 679 867 q 583 883 639 883 q 583 907 583 892 q 589 947 583 922 l 950 947 q 950 920 950 938 q 944 883 950 903 q 878 862 899 878 q 857 807 857 846 z "},"I":{"ha":475,"x_min":51,"x_max":421,"o":"m 325 807 l 325 146 q 421 129 365 129 q 421 110 421 124 q 417 65 421 96 l 56 65 q 56 91 56 74 q 63 129 56 108 q 129 151 108 136 q 150 206 150 167 l 150 865 q 51 883 110 883 q 58 947 51 925 l 418 947 q 419 920 419 938 q 413 883 419 903 q 347 862 368 878 q 325 807 325 846 z "},"J":{"ha":464,"x_min":-21,"x_max":419,"o":"m 418 947 q 419 920 419 938 q 413 883 419 903 q 347 862 368 878 q 325 807 325 846 l 325 144 q 24 -222 325 -133 q -21 -172 -7 -194 q 115 -45 81 -114 q 150 143 150 24 l 150 865 q 51 883 110 883 q 58 947 51 925 l 418 947 z "},"K":{"ha":1003,"x_min":51,"x_max":903,"o":"m 901 129 q 903 106 903 121 q 894 65 903 90 l 649 65 l 404 425 q 365 456 385 453 l 325 417 l 325 146 q 421 129 365 129 q 421 110 421 124 q 417 65 421 96 l 56 65 q 56 91 56 74 q 63 129 56 108 q 129 151 108 136 q 150 206 150 167 l 150 865 q 51 883 110 883 q 58 947 51 925 l 418 947 q 419 920 419 938 q 413 883 419 903 q 347 862 368 878 q 325 807 325 846 l 325 524 l 674 867 q 579 885 643 882 q 576 912 576 896 q 585 947 576 928 l 899 947 q 894 885 899 904 q 744 822 811 885 l 488 574 q 574 499 535 560 l 767 214 q 826 148 799 164 q 901 129 853 132 z "},"L":{"ha":769,"x_min":53,"x_max":729,"o":"m 325 136 l 544 136 q 624 164 596 136 q 648 222 642 182 q 657 297 654 261 q 719 294 694 297 q 729 142 729 196 q 728 65 729 89 l 56 65 q 56 92 56 75 q 61 129 56 108 q 128 151 107 136 q 149 206 149 167 l 149 867 q 53 883 110 883 q 53 903 53 889 q 57 947 53 917 l 417 947 q 418 922 418 938 q 411 883 418 906 q 346 862 367 878 q 325 807 325 846 l 325 136 z "},"M":{"ha":1224,"x_min":33,"x_max":1188,"o":"m 1185 129 q 1188 96 1188 113 q 1186 65 1188 79 l 796 65 q 794 98 794 82 q 796 129 794 114 q 849 140 831 135 q 885 161 867 144 q 903 206 903 178 l 886 807 l 842 690 l 594 65 l 546 65 l 279 811 l 238 142 q 340 129 281 129 q 332 65 338 96 l 33 65 q 42 129 36 108 q 111 153 86 136 q 138 208 136 169 l 174 868 q 96 883 136 883 q 96 904 96 888 q 103 947 96 921 l 400 947 l 601 367 l 829 947 l 1118 947 q 1122 914 1122 931 q 1121 885 1122 897 q 1060 862 1079 878 q 1043 807 1042 846 l 1081 143 q 1185 129 1125 129 z "},"N":{"ha":1014,"x_min":63,"x_max":953,"o":"m 953 947 q 946 883 953 901 q 856 804 856 872 l 856 65 l 781 65 l 344 639 l 261 761 l 261 146 q 361 129 299 129 q 361 106 361 122 q 356 65 361 90 l 65 65 q 65 91 65 74 q 72 129 65 108 q 140 153 117 136 q 163 208 163 171 l 163 874 q 63 885 129 885 q 71 947 65 928 l 329 947 l 668 499 l 757 367 l 757 867 q 657 883 715 883 q 657 903 657 889 q 661 947 657 917 l 953 947 z "},"O":{"ha":961,"x_min":72,"x_max":890,"o":"m 682 489 q 471 890 682 890 q 281 519 281 890 q 335 215 281 307 q 488 122 389 122 q 682 489 682 122 m 776 172 q 718 109 776 172 q 479 46 661 46 q 185 172 297 46 q 72 503 72 299 q 185 838 72 708 q 479 967 297 967 q 776 838 661 967 q 890 503 890 708 q 776 172 890 299 z "},"P":{"ha":800,"x_min":53,"x_max":782,"o":"m 325 503 l 403 503 q 542 553 493 503 q 592 689 592 603 q 543 825 592 775 q 403 875 494 875 l 325 875 l 325 503 m 436 431 l 325 431 l 325 156 q 451 129 375 135 q 444 65 451 88 l 56 65 q 56 92 56 75 q 61 129 56 108 q 128 151 107 136 q 149 206 149 167 l 149 865 q 53 883 104 883 q 53 903 53 889 q 57 947 53 917 l 435 947 q 685 874 588 947 q 782 688 782 800 q 685 503 782 575 q 436 431 589 431 z "},"Q":{"ha":961,"x_min":72,"x_max":971,"o":"m 488 129 q 682 479 682 129 q 682 504 682 492 q 471 882 671 882 q 324 785 367 882 q 281 539 281 688 q 281 503 281 522 q 333 225 285 321 q 488 129 381 129 m 969 39 q 971 -10 971 19 q 960 -89 971 -40 q 909 -183 950 -137 q 809 -229 868 -229 q 697 -201 750 -229 q 608 -139 644 -174 q 442 -50 514 -50 q 378 -74 403 -50 q 351 -142 354 -97 l 322 -142 q 300 -49 300 -97 q 379 58 300 24 q 155 210 238 90 q 72 503 72 329 q 185 838 72 708 q 479 967 297 967 q 776 838 661 967 q 890 510 890 708 q 785 182 890 313 q 513 31 679 51 q 649 -21 557 21 q 802 -62 742 -62 q 897 -34 863 -62 q 940 43 931 -6 l 969 39 z "},"R":{"ha":903,"x_min":51,"x_max":872,"o":"m 325 542 l 417 542 q 538 584 496 542 q 581 708 581 626 q 538 832 581 789 q 417 875 496 875 l 325 875 l 325 542 m 872 135 q 865 65 872 93 l 636 65 l 467 415 q 436 457 453 444 q 388 469 419 469 l 325 469 l 325 156 q 442 129 379 133 q 443 104 443 119 q 438 65 443 89 l 56 65 q 56 91 56 74 q 63 129 56 108 q 129 151 108 136 q 150 206 150 167 l 150 865 q 51 883 106 883 q 58 947 51 925 l 450 947 q 684 883 600 947 q 768 708 768 819 q 722 571 768 628 q 590 488 676 514 q 664 400 629 464 l 757 218 q 806 152 782 169 q 872 135 831 135 z "},"S":{"ha":722,"x_min":86,"x_max":663,"o":"m 663 308 q 571 119 663 190 q 360 49 479 49 q 88 97 240 49 q 86 182 86 124 q 99 350 86 240 q 169 343 136 350 q 169 335 169 339 q 358 132 169 132 q 464 165 424 132 q 504 254 504 197 q 462 354 504 311 q 359 427 419 397 q 238 491 299 457 q 134 585 176 525 q 92 726 92 644 q 174 901 92 838 q 375 964 256 964 q 622 924 494 964 q 604 710 622 826 q 547 714 575 710 q 381 883 524 883 q 279 853 318 883 q 240 769 240 822 q 284 674 240 715 q 390 603 328 632 q 513 541 451 574 q 619 449 575 508 q 663 308 663 390 z "},"T":{"ha":779,"x_min":17,"x_max":761,"o":"m 754 947 q 761 832 761 888 q 758 729 761 776 q 699 724 740 724 q 664 842 692 808 q 576 875 636 875 l 478 875 l 478 147 q 586 129 526 129 q 586 110 586 124 q 582 65 586 96 l 194 65 q 194 91 194 74 q 201 129 194 108 q 278 151 256 136 q 301 206 301 167 l 301 875 l 204 875 q 115 842 143 875 q 82 724 88 808 q 21 729 39 724 q 17 828 17 774 q 25 947 17 882 l 754 947 z "},"U":{"ha":972,"x_min":38,"x_max":939,"o":"m 938 947 q 939 920 939 938 q 932 883 939 903 q 865 862 886 878 q 844 807 844 846 l 844 347 q 749 119 844 192 q 489 47 654 47 q 229 119 324 47 q 135 347 135 192 l 135 865 q 39 883 94 883 q 38 902 38 889 q 43 947 38 915 l 403 947 q 403 920 403 938 q 397 883 403 903 q 331 862 353 878 q 310 807 310 846 l 310 344 q 489 135 310 135 q 668 344 668 135 l 668 867 q 571 883 628 883 q 576 947 571 924 l 938 947 z "},"V":{"ha":896,"x_min":-3,"x_max":899,"o":"m 4 885 q -3 926 -3 911 q -1 947 -3 940 l 371 947 q 376 914 376 932 q 375 885 376 896 q 297 864 311 878 q 283 834 283 850 q 292 797 283 818 l 471 361 q 497 271 485 326 l 503 271 l 733 864 q 631 885 688 881 q 635 947 631 926 l 899 947 q 888 885 893 908 q 828 860 850 878 q 793 807 807 843 l 485 57 l 417 57 l 81 869 q 4 885 47 881 z "},"W":{"ha":1311,"x_min":7,"x_max":1304,"o":"m 1304 947 q 1304 926 1304 940 q 1301 885 1304 911 q 1244 860 1264 878 q 1211 804 1224 843 l 961 57 l 893 57 l 671 647 l 421 57 l 353 57 l 88 869 q 11 885 53 882 q 7 924 7 908 q 8 947 7 939 l 388 947 q 396 885 396 913 q 315 864 331 879 q 300 832 300 849 q 306 797 300 815 l 435 396 q 451 310 447 354 l 456 310 l 703 904 l 771 904 l 953 397 q 974 307 972 347 l 978 307 l 1151 865 q 1071 885 1106 882 q 1079 947 1072 915 l 1304 947 z "},"X":{"ha":869,"x_min":17,"x_max":851,"o":"m 846 129 q 851 92 851 108 q 850 65 851 76 l 513 65 q 507 129 507 81 q 564 149 553 135 q 560 181 575 163 l 396 415 l 200 140 q 278 129 233 132 q 282 92 282 107 q 281 65 282 76 l 28 65 q 28 90 28 72 q 38 129 28 107 q 147 193 99 131 l 351 481 l 78 874 q 22 885 44 883 q 17 923 17 908 q 19 947 17 938 l 358 947 q 364 885 364 924 q 303 853 303 876 q 311 832 303 843 l 475 596 l 674 871 q 597 883 636 881 q 593 920 593 904 q 594 947 593 936 l 849 947 q 838 883 849 910 q 729 819 772 881 l 519 532 l 790 140 q 846 129 813 132 z "},"Y":{"ha":879,"x_min":3,"x_max":876,"o":"m 394 885 q 307 835 307 878 q 321 796 307 818 l 482 501 l 486 501 q 532 603 499 547 l 693 871 q 617 885 650 883 q 624 947 617 913 l 876 947 q 867 885 874 908 q 803 861 824 878 q 760 807 783 844 l 535 438 l 535 143 q 639 129 575 129 q 633 65 639 93 l 244 65 q 244 88 244 72 q 249 129 244 104 q 297 140 281 135 q 328 162 314 146 q 343 206 343 178 l 343 432 l 83 872 q 8 885 46 885 q 3 947 3 929 l 385 947 q 394 885 394 908 z "},"Z":{"ha":774,"x_min":65,"x_max":710,"o":"m 544 154 q 627 181 600 154 q 667 279 654 207 q 710 269 692 279 q 699 65 710 143 l 79 65 q 65 144 65 94 l 500 858 l 243 858 q 160 831 188 858 q 119 732 133 804 q 76 742 100 732 q 89 947 76 861 l 693 947 q 704 894 704 917 q 704 868 704 872 l 269 154 l 544 154 z "},"[":{"ha":506,"x_min":113,"x_max":526,"o":"m 263 1076 l 263 -19 l 439 -19 l 526 -150 l 225 -150 l 113 -19 l 113 1208 l 439 1208 l 526 1076 l 263 1076 z "},"\\":{"ha":626,"x_min":92,"x_max":515,"o":"m 92 1088 l 231 1088 l 515 -42 l 378 -42 l 92 1088 z "},"]":{"ha":451,"x_min":-22,"x_max":392,"o":"m 242 -19 l 242 1076 l 64 1076 l -22 1208 l 279 1208 l 392 1076 l 392 -149 l 64 -149 l -22 -19 l 242 -19 z "},"^":{"ha":697,"x_min":65,"x_max":643,"o":"m 406 907 l 643 382 q 539 356 600 361 l 349 765 l 160 356 q 65 382 114 357 l 303 907 q 354 911 328 911 l 406 907 z "},"_":{"ha":833,"x_min":96,"x_max":726,"o":"m 726 129 l 156 129 l 96 249 l 96 260 l 667 260 l 726 139 l 726 129 z "},"`":{"ha":293,"x_min":14,"x_max":279,"o":"m 139 1043 l 279 796 l 233 768 l 14 960 l 14 983 q 71 1022 33 1003 q 139 1043 108 1042 z "},"a":{"ha":685,"x_min":44,"x_max":676,"o":"m 226 239 q 248 179 226 201 q 315 157 269 157 q 396 197 360 157 l 396 378 l 335 361 q 226 239 226 331 m 539 47 q 453 67 492 47 q 401 125 415 88 q 242 47 335 47 q 97 97 150 47 q 44 225 44 147 q 94 349 44 303 q 246 415 144 394 l 396 446 l 396 496 q 370 573 396 549 q 277 597 344 597 q 122 567 210 597 l 88 618 q 357 719 204 719 q 514 663 461 719 q 567 501 567 606 l 567 225 q 611 154 567 154 q 663 163 618 154 l 676 126 q 539 47 613 47 z "},"b":{"ha":757,"x_min":-3,"x_max":714,"o":"m 264 157 q 374 132 310 132 q 483 197 439 132 q 528 389 528 261 q 488 569 528 517 q 398 621 449 621 q 310 585 347 621 q 264 481 272 549 l 264 157 m 443 719 q 635 633 556 719 q 714 390 714 546 q 612 141 714 233 q 361 49 510 49 q 179 110 260 49 q 92 50 140 69 l 65 76 q 93 231 93 146 l 93 947 q 55 949 79 949 q -3 947 31 949 q 10 1010 0 988 q 264 1063 128 1053 l 264 601 q 336 688 289 657 q 443 719 383 719 z "},"c":{"ha":625,"x_min":43,"x_max":600,"o":"m 340 47 q 133 133 222 47 q 43 373 43 218 q 143 624 43 528 q 390 719 243 719 q 575 675 486 719 q 556 493 574 592 q 513 499 540 493 q 473 597 508 561 q 385 633 438 633 q 269 572 313 633 q 225 390 225 511 q 270 210 225 268 q 394 153 315 153 q 574 200 472 153 l 600 161 q 340 47 486 47 z "},"d":{"ha":792,"x_min":44,"x_max":757,"o":"m 401 626 q 269 573 313 626 q 226 389 226 519 q 374 156 226 156 q 475 186 431 156 l 475 619 q 401 626 438 626 m 757 126 q 608 47 690 47 q 488 115 526 47 q 308 49 408 49 q 126 132 207 49 q 44 374 44 215 q 156 626 44 532 q 439 719 267 719 q 475 718 463 719 l 475 947 q 438 949 461 949 q 381 947 414 949 q 390 1010 383 990 q 647 1063 511 1053 l 647 225 q 689 154 647 154 q 740 163 699 154 l 757 126 z "},"e":{"ha":679,"x_min":43,"x_max":632,"o":"m 365 635 q 281 594 319 635 q 231 468 243 554 l 360 478 l 458 481 q 365 635 454 635 m 225 406 l 225 392 q 404 156 225 156 q 603 206 499 156 l 626 165 q 354 47 513 47 q 213 80 282 47 q 94 189 144 113 q 43 369 43 265 q 144 625 43 531 q 381 719 244 719 q 559 654 486 719 q 632 450 632 589 q 610 406 624 425 l 225 406 z "},"f":{"ha":475,"x_min":36,"x_max":550,"o":"m 467 875 q 390 971 467 971 q 303 843 303 971 l 303 697 q 479 710 400 700 q 467 615 479 651 l 303 615 l 303 156 q 432 129 361 133 q 426 65 432 89 l 36 65 q 36 92 36 75 q 42 129 36 110 q 109 152 88 136 q 131 207 131 168 l 131 610 q 49 615 96 615 q 47 640 47 625 q 51 669 47 654 q 131 696 94 689 l 131 775 q 203 983 131 910 q 386 1056 275 1056 q 474 1038 428 1056 q 550 993 519 1019 q 525 849 546 921 q 465 856 497 849 q 467 875 467 865 z "},"g":{"ha":726,"x_min":36,"x_max":739,"o":"m 253 517 q 358 340 253 340 q 428 376 403 340 q 453 485 453 413 q 347 658 453 658 q 253 517 253 658 m 518 46 l 247 46 q 197 50 219 46 q 158 -39 158 11 q 208 -117 158 -89 q 358 -146 258 -146 q 524 -106 458 -146 q 589 -15 589 -65 q 518 46 589 46 m 301 -278 q 110 -227 183 -278 q 36 -83 36 -176 q 138 68 36 10 q 72 183 72 106 q 101 265 72 229 q 176 321 129 301 q 69 493 69 385 q 150 660 69 601 q 346 719 231 719 q 535 674 461 719 q 738 736 613 736 q 739 708 739 728 q 732 640 739 688 l 592 625 q 633 500 633 571 q 554 338 633 399 q 353 278 475 278 q 232 296 290 278 q 183 232 183 271 q 201 194 183 208 q 253 179 219 179 l 525 181 q 703 39 703 181 q 585 -180 701 -82 q 301 -278 468 -278 z "},"h":{"ha":853,"x_min":36,"x_max":819,"o":"m 724 504 l 724 147 q 818 129 783 131 q 819 106 819 122 q 813 65 819 90 l 471 65 q 469 92 469 75 q 476 129 469 110 q 535 151 518 136 q 551 206 551 167 l 551 485 q 524 574 551 544 q 450 604 497 604 q 304 475 354 604 l 304 147 q 388 129 339 132 q 388 110 388 124 q 383 65 388 96 l 38 65 q 36 92 36 75 q 43 129 36 110 q 110 152 89 136 q 132 206 132 168 l 132 944 q 85 947 110 947 q 38 946 61 947 q 47 1008 40 989 q 304 1060 169 1051 l 304 588 q 519 719 375 719 q 667 663 610 719 q 724 504 724 607 z "},"i":{"ha":439,"x_min":36,"x_max":388,"o":"m 290 824 q 275 808 290 824 q 217 793 260 793 q 143 824 174 793 q 113 897 113 854 q 143 971 113 940 q 217 1001 174 1001 q 291 972 261 1001 q 321 898 321 942 q 290 824 321 854 m 388 129 q 388 110 388 124 q 383 65 388 96 l 38 65 q 36 92 36 75 q 43 129 36 110 q 110 152 89 136 q 132 206 132 168 l 132 596 q 85 599 110 599 q 38 597 61 599 q 47 661 40 638 q 304 713 168 701 l 304 147 q 388 129 339 132 z "},"j":{"ha":410,"x_min":-12,"x_max":321,"o":"m 290 824 q 275 808 290 824 q 217 793 260 793 q 143 824 174 793 q 113 897 113 854 q 143 971 113 940 q 217 1001 174 1001 q 291 972 261 1001 q 321 898 321 942 q 290 824 321 854 m 132 76 l 132 596 q 85 599 110 599 q 38 597 61 599 q 47 661 40 638 q 304 713 168 701 l 304 99 q 24 -265 304 -167 l -12 -212 q 99 -99 67 -161 q 132 76 132 -36 z "},"k":{"ha":825,"x_min":36,"x_max":807,"o":"m 807 129 q 807 110 807 125 q 800 65 807 96 l 574 65 l 396 324 q 375 347 385 340 l 304 278 l 304 147 q 388 129 339 132 q 388 110 388 124 q 383 65 388 96 l 38 65 q 36 92 36 75 q 43 129 36 110 q 110 152 89 136 q 132 206 132 168 l 132 947 q 96 949 119 949 q 38 947 72 949 q 47 1010 40 990 q 304 1063 165 1053 l 304 382 l 544 619 q 447 650 488 631 q 456 703 447 682 l 765 703 q 761 639 765 658 q 610 576 672 639 l 485 454 q 554 385 518 438 l 671 214 q 731 149 704 165 q 807 129 758 132 z "},"l":{"ha":439,"x_min":36,"x_max":388,"o":"m 388 129 q 388 110 388 124 q 383 65 388 96 l 38 65 q 36 92 36 75 q 43 129 36 110 q 110 152 89 136 q 132 206 132 168 l 132 947 q 96 949 119 949 q 38 947 72 949 q 47 1010 40 990 q 304 1063 165 1053 l 304 147 q 388 129 339 132 z "},"m":{"ha":1274,"x_min":36,"x_max":1239,"o":"m 1144 504 l 1144 147 q 1238 129 1203 131 q 1239 106 1239 122 q 1232 65 1239 90 l 892 65 q 890 90 890 75 q 896 129 890 106 q 955 151 938 136 q 972 206 972 167 l 972 485 q 945 574 972 544 q 871 604 918 604 q 724 471 774 604 l 724 147 q 808 129 758 132 q 808 106 808 122 q 803 65 808 90 l 471 65 q 469 92 469 75 q 476 129 469 110 q 535 151 518 136 q 551 206 551 167 l 551 485 q 524 574 551 544 q 450 604 497 604 q 304 475 354 604 l 304 147 q 388 129 339 132 q 388 110 388 124 q 383 65 388 96 l 38 65 q 36 92 36 75 q 43 129 36 110 q 110 152 89 136 q 132 206 132 168 l 132 596 q 85 599 110 599 q 38 597 61 599 q 47 658 40 639 q 288 713 163 700 q 303 583 299 656 q 519 719 372 719 q 645 681 593 719 q 715 572 697 643 q 808 682 749 644 q 949 719 867 719 q 1088 663 1031 719 q 1144 504 1144 607 z "},"n":{"ha":843,"x_min":36,"x_max":819,"o":"m 724 504 l 724 147 q 818 129 783 131 q 819 106 819 122 q 813 65 819 90 l 471 65 q 469 92 469 75 q 476 129 469 110 q 535 151 518 136 q 551 206 551 167 l 551 485 q 524 574 551 544 q 450 604 497 604 q 304 475 354 604 l 304 147 q 388 129 339 132 q 388 110 388 124 q 383 65 388 96 l 38 65 q 36 92 36 75 q 43 129 36 110 q 110 152 89 136 q 132 206 132 168 l 132 596 q 85 599 110 599 q 38 597 61 599 q 47 658 40 639 q 288 713 163 700 q 303 583 299 656 q 519 719 372 719 q 667 663 610 719 q 724 504 724 607 z "},"o":{"ha":743,"x_min":43,"x_max":700,"o":"m 517 361 q 365 640 517 640 q 225 406 225 640 q 225 383 225 394 q 379 131 236 131 q 517 361 517 131 m 373 719 q 446 719 373 719 q 610 632 519 719 q 700 385 700 544 q 608 137 700 225 q 369 49 517 49 q 133 136 222 49 q 43 383 43 224 q 135 631 43 543 q 373 719 226 719 z "},"p":{"ha":789,"x_min":32,"x_max":746,"o":"m 300 151 q 404 132 343 132 q 513 197 465 132 q 561 390 561 263 q 522 569 561 517 q 433 621 482 621 q 348 585 383 621 q 300 486 313 549 l 300 151 m 128 -118 l 128 596 q 81 599 106 599 q 33 597 56 599 q 44 658 36 633 q 279 713 158 700 q 296 603 292 656 q 469 719 351 719 q 667 633 588 719 q 746 391 746 546 q 638 142 746 236 q 382 49 531 49 q 300 61 339 49 l 300 -164 q 426 -194 358 -192 q 428 -221 428 -204 q 422 -260 428 -237 l 32 -260 q 32 -233 32 -251 q 39 -194 32 -215 q 106 -172 85 -187 q 128 -118 128 -156 z "},"q":{"ha":756,"x_min":44,"x_max":743,"o":"m 396 626 q 226 391 226 626 q 374 156 226 156 q 475 186 431 156 l 475 606 q 396 626 440 626 m 647 726 l 647 -176 q 743 -194 689 -189 q 738 -260 743 -236 l 349 -260 q 347 -233 347 -250 q 354 -194 347 -217 q 450 -172 425 -187 q 475 -114 475 -156 l 475 106 q 314 49 399 49 q 126 132 207 49 q 44 373 44 215 q 153 625 44 531 q 422 719 261 719 q 565 681 499 719 q 618 726 579 696 l 647 726 z "},"r":{"ha":546,"x_min":36,"x_max":554,"o":"m 132 207 l 132 596 q 85 599 110 599 q 38 597 61 599 q 47 658 40 639 q 288 713 163 700 q 304 522 301 626 q 403 665 339 610 q 547 719 468 719 q 554 656 554 694 q 540 558 554 618 q 304 397 329 558 l 304 156 q 433 129 363 133 q 433 106 433 122 q 428 65 433 90 l 38 65 q 36 92 36 75 q 43 129 36 110 q 110 152 89 136 q 132 207 132 168 z "},"s":{"ha":583,"x_min":61,"x_max":542,"o":"m 261 128 q 287 128 261 128 q 343 151 313 128 q 374 210 374 175 q 343 272 374 244 q 269 321 313 299 q 183 368 226 343 q 110 434 140 393 q 79 529 79 475 q 147 672 79 624 q 311 719 214 719 q 496 690 408 719 q 496 631 496 674 q 488 518 496 589 q 433 524 451 518 q 435 551 435 539 q 332 646 435 646 q 263 624 290 646 q 236 565 236 601 q 267 503 236 529 q 344 458 299 478 q 434 413 389 438 q 510 347 479 389 q 542 250 542 306 q 464 103 542 160 q 271 47 386 47 q 64 75 156 47 q 61 153 61 107 q 71 261 61 200 q 128 257 74 261 q 128 228 128 249 q 138 183 128 208 q 172 147 149 158 q 261 128 210 128 z "},"t":{"ha":518,"x_min":31,"x_max":492,"o":"m 296 49 q 168 97 217 49 q 119 239 119 144 l 119 610 q 31 615 81 615 q 33 669 31 644 q 118 696 68 683 l 256 897 l 290 888 l 290 697 q 467 710 388 700 q 454 615 467 657 l 290 615 l 292 247 q 356 165 292 165 q 463 207 408 165 l 492 169 q 296 49 407 49 z "},"u":{"ha":829,"x_min":18,"x_max":776,"o":"m 689 576 l 689 175 q 772 168 733 168 q 776 136 776 151 q 775 110 776 121 q 536 58 671 63 q 519 186 524 122 q 303 49 444 49 q 156 106 213 49 q 99 267 99 164 l 99 601 q 56 603 78 603 q 18 603 35 603 q 28 664 21 644 q 269 717 150 710 l 269 286 q 298 197 269 228 q 372 165 326 165 q 518 299 465 165 l 518 542 q 460 650 518 625 q 474 689 465 676 q 638 718 550 718 q 694 715 665 718 q 689 576 689 665 z "},"v":{"ha":731,"x_min":-12,"x_max":760,"o":"m -7 639 q -12 678 -12 664 q -11 701 -12 693 l 335 701 q 340 639 340 685 q 256 626 281 636 l 406 154 q 436 267 411 193 l 538 550 q 546 589 546 574 q 540 613 546 604 q 475 639 528 632 q 468 676 468 660 q 468 701 468 693 l 758 701 q 746 639 760 671 q 663 621 696 636 l 436 57 l 292 57 l 92 558 q 58 614 78 597 q -7 639 39 631 z "},"w":{"ha":1057,"x_min":21,"x_max":1044,"o":"m 1042 701 q 1044 678 1044 693 q 1035 639 1044 664 q 982 629 1006 636 l 751 57 l 682 57 l 531 446 l 361 57 l 292 57 l 82 626 q 26 639 54 638 q 21 676 21 661 q 24 701 21 692 l 342 701 q 347 639 347 678 q 288 622 297 635 q 278 597 278 610 q 282 569 278 583 l 364 324 q 379 264 375 297 l 382 264 l 544 674 l 614 674 l 742 324 q 757 265 753 297 l 760 265 l 868 568 q 875 601 875 588 q 864 626 875 614 q 803 639 853 638 q 801 665 801 649 q 807 701 801 682 l 1042 701 z "},"x":{"ha":724,"x_min":-11,"x_max":732,"o":"m 726 129 q 732 90 732 106 q 731 65 732 75 l 383 65 q 378 129 378 85 q 456 138 432 132 l 315 315 l 169 139 q 242 129 181 136 q 246 94 246 111 q 244 65 246 78 l -10 65 q 3 129 -7 106 q 118 193 65 133 l 269 372 l 114 568 q -4 639 64 636 q -11 677 -11 661 q -10 701 -11 693 l 342 701 q 347 639 347 685 q 271 631 289 636 l 407 457 l 547 628 q 476 639 524 633 q 474 675 474 660 q 475 701 474 690 l 726 701 q 726 677 726 694 q 715 639 726 660 q 601 574 657 638 l 453 400 l 600 214 q 660 149 638 165 q 726 129 683 132 z "},"y":{"ha":733,"x_min":-8,"x_max":746,"o":"m 160 -260 l 133 -260 q 115 -165 115 -206 q 118 -103 115 -125 l 157 -103 q 253 -81 219 -103 q 315 4 286 -58 l 321 15 l 96 558 q 61 614 81 597 q -3 639 42 631 q -8 678 -8 664 q -7 701 -8 693 l 339 701 q 344 639 344 685 q 260 628 285 636 l 400 181 q 425 261 411 225 l 540 550 q 550 590 550 575 q 544 614 550 606 q 478 639 531 632 q 472 678 472 664 q 474 701 472 693 l 744 701 q 732 639 746 671 q 671 625 699 633 l 360 -71 q 271 -212 318 -164 q 160 -260 224 -260 z "},"z":{"ha":651,"x_min":49,"x_max":585,"o":"m 411 138 q 497 165 469 138 q 538 265 524 192 q 581 256 561 265 q 581 203 581 247 q 568 65 581 158 l 57 65 q 49 116 49 92 q 54 161 49 140 l 396 631 l 236 631 q 152 603 179 631 q 111 501 125 575 q 67 513 85 501 q 81 701 67 606 l 578 701 q 585 649 585 672 q 579 606 585 625 l 243 138 l 411 138 z "},"{":{"ha":764,"x_min":125,"x_max":654,"o":"m 378 886 l 386 732 q 360 615 386 656 q 271 556 333 574 q 360 495 333 536 q 386 378 386 454 l 378 225 q 417 60 378 96 q 527 4 465 14 q 654 -7 589 -6 l 654 -99 q 571 -100 631 -100 q 435 -83 511 -100 q 315 -22 358 -65 q 256 76 272 22 q 240 208 240 129 l 250 356 q 228 469 250 435 q 125 508 206 503 l 125 603 q 228 641 206 607 q 250 754 250 675 l 240 903 q 256 1035 240 982 q 315 1131 272 1088 q 610 1208 393 1208 q 654 1207 631 1208 l 654 1117 q 443 1072 513 1114 q 399 1023 414 1056 q 381 963 385 990 q 378 886 378 935 z "},"|":{"ha":432,"x_min":143,"x_max":281,"o":"m 143 1088 l 281 1088 l 281 -42 l 143 -42 l 143 1088 z "},"}":{"ha":764,"x_min":111,"x_max":640,"o":"m 388 225 l 379 378 q 405 495 379 454 q 493 556 431 536 q 405 615 431 574 q 379 732 379 656 l 388 886 q 347 1050 388 1013 q 238 1105 301 1094 q 111 1117 175 1115 l 111 1207 q 194 1208 135 1208 q 330 1192 254 1208 q 449 1131 406 1175 q 507 1035 492 1088 q 522 903 522 982 l 514 754 q 536 641 514 675 q 640 603 558 607 l 640 508 q 536 469 558 503 q 514 356 514 435 l 522 208 q 507 76 522 129 q 449 -22 492 22 q 156 -100 372 -100 q 111 -99 135 -100 l 111 -7 q 300 26 244 -4 q 347 60 329 43 q 375 106 365 76 q 388 225 388 149 z "},"~":{"ha":774,"x_min":68,"x_max":704,"o":"m 267 567 q 406 513 317 567 q 542 460 494 460 q 651 572 633 460 l 704 572 q 644 385 699 450 q 508 319 590 319 q 367 373 461 319 q 232 426 274 426 q 121 315 139 426 l 68 315 q 129 501 75 436 q 267 567 183 567 z "},"¡":{"ha":624,"x_min":210,"x_max":394,"o":"m 210 806 q 210 824 210 806 q 237 870 210 843 q 302 897 264 897 q 367 870 340 897 q 394 805 394 843 q 367 740 394 767 q 301 713 339 713 q 237 740 264 713 q 210 806 210 768 m 374 22 l 236 -29 l 224 -29 l 256 586 l 338 628 l 347 628 l 374 22 z "},"¢":{"ha":665,"x_min":79,"x_max":611,"o":"m 429 57 l 351 57 l 351 144 q 158 225 236 156 q 79 426 79 294 q 158 643 79 557 q 351 736 236 729 l 351 822 l 429 822 l 429 732 q 597 667 528 718 l 535 564 q 392 631 475 631 q 263 581 310 631 q 215 442 215 531 q 276 297 215 353 q 424 240 336 240 q 575 299 511 240 l 611 269 q 542 193 590 229 q 429 146 493 157 l 429 57 z "},"£":{"ha":818,"x_min":69,"x_max":738,"o":"m 732 272 q 738 226 738 238 q 736 190 738 215 q 724 137 735 164 q 681 88 714 110 q 592 65 649 65 q 448 80 536 65 q 304 94 360 94 q 167 68 249 94 l 135 94 q 193 188 158 115 q 228 319 228 261 q 213 449 228 378 l 69 449 l 69 458 l 97 521 l 196 521 q 185 621 185 585 q 258 814 189 742 q 438 886 328 886 q 550 869 494 886 q 629 840 606 853 q 693 803 653 828 l 633 704 q 475 788 556 788 q 358 748 394 788 q 321 655 321 708 q 335 521 321 601 l 556 521 l 556 511 l 525 449 l 347 449 q 353 390 353 407 q 288 179 353 251 l 306 186 q 408 207 357 207 q 528 190 458 207 q 621 174 599 174 q 696 271 696 174 l 732 272 z "},"¤":{"ha":700,"x_min":69,"x_max":631,"o":"m 260 384 q 278 364 260 384 q 350 344 296 344 q 441 384 404 344 q 478 503 478 424 q 441 622 478 583 q 350 661 404 661 q 260 622 296 661 q 224 503 224 583 q 260 384 224 424 m 553 636 q 592 506 592 581 q 556 372 592 431 l 629 299 q 557 226 606 256 l 483 300 q 350 263 422 263 q 217 300 278 263 l 144 228 q 72 299 96 256 l 146 372 q 110 505 110 431 q 149 638 110 579 l 69 715 q 142 786 92 763 l 221 707 q 349 743 278 743 q 481 707 421 743 l 558 786 q 631 714 608 764 l 553 636 z "},"¥":{"ha":810,"x_min":71,"x_max":738,"o":"m 681 503 l 681 492 l 650 435 l 481 435 l 481 358 l 681 358 l 681 346 l 650 289 l 481 289 l 481 65 l 332 65 l 332 289 l 118 289 l 118 300 l 146 358 l 332 358 l 332 435 l 118 435 l 118 446 l 146 503 l 301 503 l 71 869 l 211 890 l 407 544 q 585 875 563 824 l 738 875 l 510 503 l 681 503 z "},"¦":{"ha":424,"x_min":143,"x_max":281,"o":"m 143 411 l 281 411 l 281 -42 l 143 -42 l 143 411 m 281 635 l 143 635 l 143 1088 l 281 1088 l 281 635 z "},"§":{"ha":994,"x_min":101,"x_max":685,"o":"m 347 485 q 281 442 306 471 q 256 378 256 414 q 285 310 256 343 q 340 265 315 278 q 404 234 365 251 q 447 214 443 217 q 528 313 528 240 q 472 417 528 376 q 347 485 431 447 m 549 164 q 678 -29 678 88 q 587 -210 678 -146 q 378 -275 496 -275 q 103 -231 260 -275 q 101 -151 101 -207 q 114 1 101 -96 q 186 -6 153 1 q 186 -17 186 -11 q 374 -199 186 -199 q 481 -169 440 -199 q 521 -90 521 -139 q 490 -6 521 -42 q 414 50 460 29 q 314 98 368 71 q 214 152 260 125 q 138 228 168 179 q 107 342 107 278 q 145 458 107 406 q 247 535 183 510 q 114 743 114 613 q 196 905 114 846 q 394 964 278 964 q 638 926 510 964 q 621 732 638 849 q 564 735 582 732 q 401 890 540 890 q 302 860 342 890 q 263 781 263 831 q 306 694 263 731 q 412 632 350 658 q 535 576 474 606 q 641 492 597 546 q 685 364 685 439 q 549 164 685 229 z "},"¨":{"ha":407,"x_min":14,"x_max":393,"o":"m 370 918 q 382 906 370 918 q 393 861 393 894 q 370 804 393 828 q 315 781 347 781 q 261 804 283 781 q 239 861 239 828 q 261 918 239 894 q 315 942 283 942 q 370 918 347 942 m 146 918 q 158 906 146 918 q 169 861 169 894 q 146 804 169 828 q 91 781 122 781 q 37 804 60 781 q 14 861 14 828 q 37 918 14 894 q 91 942 60 942 q 146 918 122 942 z "},"©":{"ha":1113,"x_min":79,"x_max":1033,"o":"m 765 317 q 566 221 682 221 q 370 298 450 221 q 290 508 290 375 q 376 722 290 640 q 590 804 463 804 q 749 769 671 804 q 717 613 742 686 q 692 610 704 610 q 668 611 679 610 q 648 692 667 667 q 575 718 629 718 q 479 660 521 718 q 438 510 438 603 q 481 368 438 418 q 593 318 525 318 q 722 361 661 318 l 765 317 m 898 856 q 966 791 898 856 q 1033 510 1033 726 q 898 163 1033 293 q 557 33 763 33 q 215 163 351 33 q 79 510 79 293 q 215 856 79 726 q 557 986 351 986 q 898 856 763 986 m 272 813 q 215 758 272 813 q 158 510 158 704 q 271 208 158 315 q 557 100 383 100 q 843 208 731 100 q 956 510 956 315 q 842 813 956 704 q 557 921 729 921 q 272 813 385 921 z "},"ª":{"ha":483,"x_min":31,"x_max":478,"o":"m 276 713 q 192 690 226 713 q 158 632 158 667 q 211 565 158 565 q 282 596 251 565 l 282 713 q 276 713 279 713 m 381 489 q 320 504 347 489 q 285 546 293 519 q 169 489 236 489 q 66 522 101 489 q 31 611 31 556 q 106 728 31 689 q 247 760 167 760 q 282 758 264 760 l 282 803 q 203 874 282 874 q 86 850 142 874 l 64 886 q 250 960 142 960 q 363 920 325 960 q 401 808 401 881 l 401 614 q 431 564 401 564 q 467 569 449 564 l 478 544 q 381 489 432 489 z "},"«":{"ha":935,"x_min":164,"x_max":767,"o":"m 164 500 l 407 775 l 472 742 l 307 500 l 472 258 l 407 222 l 164 500 m 458 500 l 701 775 l 767 742 l 601 500 l 767 258 l 701 222 l 458 500 z "},"¬":{"ha":924,"x_min":97,"x_max":803,"o":"m 803 668 l 803 365 q 758 361 781 361 q 714 365 736 361 l 714 539 l 107 539 q 97 603 97 571 q 107 668 97 636 l 803 668 z "},"®":{"ha":1108,"x_min":83,"x_max":1025,"o":"m 489 535 l 543 535 q 643 633 643 535 q 620 708 643 685 q 543 732 597 732 l 489 732 l 489 535 m 803 303 q 800 260 803 288 l 668 260 l 568 450 q 528 479 554 479 l 489 479 l 489 318 q 563 304 519 307 q 560 260 564 294 l 335 260 q 333 279 333 267 q 339 304 333 292 q 377 317 365 307 q 389 349 389 326 l 389 732 q 332 742 372 739 q 336 788 332 772 l 561 788 q 699 744 647 788 q 750 642 750 700 q 638 490 750 526 q 681 440 658 478 l 731 354 q 763 313 747 324 q 803 303 778 303 m 161 510 q 161 413 161 510 q 273 208 161 315 q 555 100 385 100 q 836 208 725 100 q 947 510 947 315 q 836 813 947 704 q 555 921 725 921 q 273 813 385 921 q 161 510 161 704 m 83 510 q 83 618 83 510 q 217 856 83 726 q 555 986 351 986 q 892 856 758 986 q 1025 510 1025 726 q 892 163 1025 293 q 555 33 758 33 q 217 163 351 33 q 83 510 83 293 z "},"¯":{"ha":364,"x_min":14,"x_max":350,"o":"m 14 785 l 14 850 l 350 850 l 350 785 l 14 785 z "},"°":{"ha":456,"x_min":42,"x_max":414,"o":"m 360 674 q 334 649 360 674 q 228 625 307 625 q 95 674 149 625 q 42 810 42 722 q 95 946 42 897 q 228 994 149 994 q 360 946 307 994 q 414 810 414 897 q 360 674 414 722 m 281 895 q 270 909 281 895 q 228 922 260 922 q 176 895 196 922 q 156 810 156 868 q 176 725 156 753 q 228 697 196 697 q 281 725 260 697 q 301 810 301 753 q 281 895 301 868 z "},"±":{"ha":900,"x_min":96,"x_max":806,"o":"m 96 318 l 746 318 l 806 197 l 806 188 l 156 188 l 96 308 l 96 318 m 806 547 l 521 547 l 521 357 l 511 357 l 381 460 l 381 547 l 156 547 l 96 668 l 96 678 l 381 678 l 381 867 l 392 867 l 521 767 l 521 678 l 746 678 l 806 557 l 806 547 z "},"²":{"ha":351,"x_min":29,"x_max":319,"o":"m 228 553 q 271 567 257 553 q 293 618 285 581 q 319 614 313 618 q 303 481 319 533 l 38 481 q 29 542 29 514 q 179 717 144 667 q 214 806 214 767 q 197 865 214 846 q 153 883 181 883 q 81 817 96 883 q 46 818 53 817 q 44 855 44 832 q 50 911 44 878 q 173 950 108 950 q 274 914 238 950 q 311 823 311 878 q 272 718 311 768 q 111 553 233 668 l 228 553 z "},"³":{"ha":338,"x_min":25,"x_max":310,"o":"m 204 818 q 190 867 204 849 q 153 886 176 886 q 79 819 94 886 q 43 821 49 819 q 43 854 43 832 q 46 915 43 876 q 169 951 108 951 q 266 921 231 951 q 301 850 301 890 q 215 726 301 768 q 310 607 310 696 q 265 512 310 550 q 149 474 219 474 q 25 519 79 474 q 51 567 39 558 q 138 538 96 538 q 200 555 179 538 q 221 601 221 572 q 115 685 221 681 l 115 736 q 204 818 204 746 z "},"´":{"ha":292,"x_min":13,"x_max":279,"o":"m 13 785 l 153 1032 q 221 1012 183 1031 q 279 972 258 993 l 279 950 l 58 757 l 13 785 z "},"µ":{"ha":833,"x_min":8,"x_max":781,"o":"m 693 581 l 693 175 q 776 168 738 168 q 781 136 781 151 q 779 110 781 121 q 540 58 660 68 q 524 186 528 122 q 307 49 449 49 q 274 51 296 49 l 274 -147 q 179 -156 222 -156 q 103 -147 136 -156 l 103 606 q 42 607 64 607 q 8 607 21 607 q 18 668 8 636 q 274 719 140 713 l 274 204 q 369 165 307 165 q 522 299 469 165 l 522 544 q 464 653 522 631 q 478 692 469 679 q 636 722 551 722 q 699 718 667 722 q 693 581 693 668 z "},"¶":{"ha":718,"x_min":32,"x_max":619,"o":"m 299 947 l 619 947 l 619 65 l 528 65 l 528 856 l 439 856 l 439 65 l 347 65 l 347 375 l 299 375 q 106 454 179 375 q 32 660 32 533 q 106 867 32 788 q 299 947 179 947 z "},"·":{"ha":400,"x_min":101,"x_max":300,"o":"m 300 558 q 300 537 300 558 q 271 487 300 517 q 201 457 242 457 q 131 487 160 457 q 101 558 101 517 q 131 628 101 599 q 201 657 160 657 q 271 628 242 657 q 300 558 300 599 z "},"¸":{"ha":396,"x_min":14,"x_max":382,"o":"m 382 -117 q 328 -208 382 -172 q 188 -243 275 -243 q 14 -194 101 -243 l 42 -157 q 164 -190 108 -190 q 275 -126 275 -190 q 203 -78 275 -78 q 140 -85 178 -78 l 175 89 l 282 89 l 258 -25 q 352 -52 322 -26 q 382 -117 382 -78 z "},"¹":{"ha":290,"x_min":32,"x_max":260,"o":"m 258 526 q 260 505 260 517 q 256 481 260 493 l 33 481 q 32 501 32 489 q 38 526 32 513 q 88 538 72 531 q 104 564 104 544 l 104 849 l 38 838 q 39 878 35 864 q 175 954 126 931 l 196 946 l 196 540 q 258 526 229 528 z "},"º":{"ha":526,"x_min":31,"x_max":496,"o":"m 158 725 q 267 547 165 547 q 368 711 368 547 q 368 725 368 718 q 260 904 361 904 q 158 739 158 904 q 158 725 158 732 m 431 899 q 464 868 431 899 q 496 725 496 838 q 431 551 496 613 q 262 490 365 490 q 94 551 158 490 q 31 724 31 613 q 95 898 31 836 q 263 960 160 960 q 431 899 367 960 z "},"»":{"ha":956,"x_min":171,"x_max":792,"o":"m 171 742 l 235 775 l 478 500 l 235 222 l 171 258 l 335 500 l 171 742 m 482 742 l 549 775 l 792 500 l 549 222 l 482 258 l 647 500 l 482 742 z "},"¼":{"ha":1026,"x_min":75,"x_max":963,"o":"m 357 429 q 358 410 358 422 q 353 378 358 399 l 76 378 q 75 400 75 386 q 82 429 75 414 q 151 447 136 435 q 167 476 167 460 l 167 844 l 82 832 q 85 874 79 861 q 254 968 215 950 l 278 958 l 278 447 q 357 429 319 431 m 733 1001 l 806 1001 l 315 13 l 243 13 l 733 1001 m 779 271 l 779 468 l 635 271 l 779 271 m 876 206 l 876 126 q 933 115 894 118 q 931 65 933 88 l 718 65 q 717 88 717 74 q 722 115 717 101 q 756 121 746 118 q 779 158 779 128 l 779 206 l 571 206 q 547 260 551 238 l 819 640 l 876 640 l 876 271 l 957 271 q 963 229 963 244 q 961 206 963 214 l 876 206 z "},"½":{"ha":1103,"x_min":75,"x_max":1017,"o":"m 357 429 q 358 410 358 422 q 353 378 358 399 l 76 378 q 75 400 75 386 q 82 429 75 414 q 151 447 136 435 q 167 476 167 460 l 167 844 l 82 832 q 85 874 79 861 q 254 968 215 950 l 278 958 l 278 447 q 357 429 319 431 m 738 1001 l 810 1001 l 315 13 l 243 13 l 738 1001 m 907 154 q 962 172 944 154 q 988 236 979 189 q 1017 231 1008 236 q 996 64 1017 132 l 665 64 q 656 140 656 118 q 842 358 799 296 q 886 471 886 421 q 864 544 886 521 q 808 568 842 568 q 718 486 738 568 q 681 488 689 486 q 681 537 681 506 q 686 603 681 568 q 835 651 756 651 q 961 606 915 651 q 1007 492 1007 561 q 960 364 1007 424 q 758 154 914 304 l 907 154 z "},"¾":{"ha":1049,"x_min":78,"x_max":985,"o":"m 193 699 q 275 733 247 704 q 303 803 303 761 q 283 869 303 846 q 232 892 264 892 q 138 807 157 892 q 101 810 108 807 q 100 861 100 829 q 106 926 100 893 q 258 972 183 972 q 378 933 333 972 q 422 844 422 894 q 313 692 422 744 q 433 542 433 653 q 378 424 433 471 q 233 376 322 376 q 78 433 144 376 q 108 485 97 479 q 215 449 161 449 q 295 472 268 449 q 322 535 322 496 q 193 639 322 635 l 193 699 m 758 1001 l 831 1001 l 340 13 l 268 13 l 758 1001 m 801 271 l 801 469 l 656 271 l 801 271 m 899 206 l 899 126 q 956 115 917 118 q 953 65 956 88 l 740 65 q 739 88 739 74 q 744 115 739 101 q 776 122 767 119 q 801 158 801 126 l 801 206 l 593 206 q 569 260 574 238 l 842 640 l 899 640 l 899 271 l 979 271 q 985 229 985 244 q 983 206 985 214 l 899 206 z "},"¿":{"ha":794,"x_min":133,"x_max":647,"o":"m 348 882 q 361 895 348 882 q 413 908 375 908 q 476 882 450 908 q 501 819 501 856 q 476 756 501 782 q 413 729 450 729 q 348 756 375 729 q 321 819 321 783 q 348 882 321 856 m 253 175 q 287 112 253 139 q 375 85 321 85 q 557 156 468 85 l 647 43 q 439 -36 558 -36 q 226 43 319 -36 q 133 229 133 122 q 218 390 133 329 q 363 468 279 435 l 363 626 l 376 626 l 469 582 l 469 375 q 289 272 325 313 q 253 175 253 231 z "},"À":{"ha":864,"x_min":-1,"x_max":867,"o":"m 482 1106 l 436 1078 l 217 1269 l 217 1293 q 274 1332 236 1313 q 342 1353 311 1351 l 482 1106 m 276 510 l 501 510 l 386 886 l 375 831 l 276 510 m 481 131 q 486 194 481 165 q 589 228 556 211 l 526 432 l 253 432 l 186 214 q 294 194 222 194 q 289 131 294 158 l -1 131 q 4 194 -1 167 q 104 281 82 213 l 346 1014 q 518 1031 408 1028 l 758 278 q 797 214 774 232 q 867 194 819 196 q 860 131 864 153 l 481 131 z "},"Á":{"ha":864,"x_min":-1,"x_max":867,"o":"m 665 1258 l 444 1065 l 399 1093 l 539 1340 q 607 1320 569 1339 q 665 1281 644 1301 l 665 1258 m 276 510 l 501 510 l 386 886 l 375 831 l 276 510 m 481 131 q 486 194 481 165 q 589 228 556 211 l 526 432 l 253 432 l 186 214 q 294 194 222 194 q 289 131 294 158 l -1 131 q 4 194 -1 167 q 104 281 82 213 l 346 1014 q 518 1031 408 1028 l 758 278 q 797 214 774 232 q 867 194 819 196 q 860 131 864 153 l 481 131 z "},"Â":{"ha":864,"x_min":-1,"x_max":867,"o":"m 432 1179 l 249 1071 l 210 1104 l 396 1296 l 468 1296 l 654 1104 l 617 1071 l 432 1179 m 276 510 l 501 510 l 386 886 l 375 831 l 276 510 m 481 131 q 486 194 481 165 q 589 228 556 211 l 526 432 l 253 432 l 186 214 q 294 194 222 194 q 289 131 294 158 l -1 131 q 4 194 -1 167 q 104 281 82 213 l 346 1014 q 518 1031 408 1028 l 758 278 q 797 214 774 232 q 867 194 819 196 q 860 131 864 153 l 481 131 z "},"Ã":{"ha":864,"x_min":-1,"x_max":867,"o":"m 515 1103 q 429 1138 482 1103 q 349 1174 376 1174 q 283 1111 296 1174 l 233 1111 q 365 1292 250 1292 q 451 1256 397 1292 q 532 1221 504 1221 q 597 1283 585 1221 l 647 1283 q 515 1103 631 1103 m 276 510 l 501 510 l 386 886 l 375 831 l 276 510 m 481 131 q 486 194 481 165 q 589 228 556 211 l 526 432 l 253 432 l 186 214 q 294 194 222 194 q 289 131 294 158 l -1 131 q 4 194 -1 167 q 104 281 82 213 l 346 1014 q 518 1031 408 1028 l 758 278 q 797 214 774 232 q 867 194 819 196 q 860 131 864 153 l 481 131 z "},"Ä":{"ha":864,"x_min":-1,"x_max":867,"o":"m 598 1114 q 586 1102 598 1114 q 543 1090 575 1090 q 489 1114 511 1090 q 467 1171 467 1138 q 489 1228 467 1204 q 543 1251 511 1251 q 598 1228 575 1251 q 621 1171 621 1204 q 598 1114 621 1138 m 397 1171 q 397 1154 397 1171 q 374 1114 397 1138 q 319 1090 350 1090 q 265 1114 288 1090 q 242 1171 242 1138 q 265 1228 242 1204 q 319 1251 288 1251 q 374 1228 350 1251 q 397 1171 397 1204 m 276 510 l 501 510 l 386 886 l 375 831 l 276 510 m 481 131 q 486 194 481 165 q 589 228 556 211 l 526 432 l 253 432 l 186 214 q 294 194 222 194 q 289 131 294 158 l -1 131 q 4 194 -1 167 q 104 281 82 213 l 346 1014 q 518 1031 408 1028 l 758 278 q 797 214 774 232 q 867 194 819 196 q 860 131 864 153 l 481 131 z "},"Å":{"ha":864,"x_min":-1,"x_max":867,"o":"m 431 1242 q 394 1226 408 1242 q 379 1181 379 1211 q 394 1136 379 1151 q 431 1121 408 1121 q 482 1181 482 1121 q 431 1242 482 1242 m 533 1105 q 511 1090 533 1105 q 431 1075 490 1075 q 329 1105 371 1075 q 288 1182 288 1135 q 329 1258 288 1229 q 431 1288 371 1288 q 533 1258 490 1288 q 575 1182 575 1229 q 533 1105 575 1135 m 276 510 l 501 510 l 386 886 l 375 831 l 276 510 m 481 131 q 486 194 481 165 q 589 228 556 211 l 526 432 l 253 432 l 186 214 q 294 194 222 194 q 289 131 294 158 l -1 131 q 4 194 -1 167 q 104 281 82 213 l 346 1014 q 518 1031 408 1028 l 758 278 q 797 214 774 232 q 867 194 819 196 q 860 131 864 153 l 481 131 z "},"Æ":{"ha":1224,"x_min":4,"x_max":1168,"o":"m 585 444 l 585 742 l 531 647 l 397 444 l 585 444 m 760 138 l 968 138 q 1050 167 1022 138 q 1076 231 1071 190 q 1086 308 1082 271 q 1163 304 1142 308 q 1168 164 1168 224 q 1167 65 1168 104 l 490 65 q 490 91 490 74 q 497 129 490 108 q 564 151 543 136 q 585 206 585 167 l 585 367 l 347 367 l 213 161 q 301 133 256 135 q 296 65 301 93 l 4 65 q 4 87 4 71 q 10 133 4 103 q 149 219 99 146 l 576 869 q 488 883 536 883 q 486 907 486 892 q 493 947 486 922 l 1153 947 q 1154 853 1154 913 q 1146 717 1154 793 q 1074 714 1118 714 q 1039 847 1061 826 q 960 876 1011 876 l 760 876 l 760 546 l 949 561 l 1001 561 l 1001 460 l 949 460 l 760 471 l 760 138 z "},"Ç":{"ha":847,"x_min":72,"x_max":806,"o":"m 492 113 q 461 114 471 113 l 446 40 q 540 13 510 39 q 569 -51 569 -12 q 516 -142 569 -107 q 376 -178 463 -178 q 201 -129 289 -178 l 229 -92 q 351 -125 296 -125 q 463 -61 463 -125 q 390 -12 463 -12 q 328 -19 365 -12 l 358 133 q 152 285 232 174 q 72 563 72 396 q 206 903 72 774 q 539 1032 340 1032 q 788 985 696 1032 q 758 754 781 864 q 703 756 707 754 q 656 885 700 836 q 532 935 611 935 q 338 841 414 935 q 263 577 263 747 q 342 318 263 407 q 547 229 422 229 q 767 292 672 229 l 806 249 q 667 149 750 186 q 492 113 585 113 z "},"È":{"ha":789,"x_min":51,"x_max":733,"o":"m 479 1106 l 433 1078 l 214 1269 l 214 1293 q 271 1332 233 1313 q 339 1353 308 1351 l 479 1106 m 325 203 l 533 203 q 621 242 600 203 q 651 374 642 281 q 728 369 706 374 q 733 229 733 289 q 732 131 733 169 l 56 131 q 56 156 56 139 q 63 194 56 174 q 129 217 108 201 q 150 271 150 232 l 150 931 q 51 949 113 949 q 58 1013 51 990 l 718 1013 q 718 922 718 983 q 711 782 718 861 q 639 779 683 779 q 606 914 626 892 q 525 942 576 942 l 325 942 l 325 611 l 525 626 l 579 626 l 579 525 l 525 525 l 325 536 l 325 203 z "},"É":{"ha":789,"x_min":51,"x_max":733,"o":"m 663 1257 l 442 1064 l 396 1092 l 536 1339 q 604 1319 567 1338 q 663 1279 642 1300 l 663 1257 m 325 203 l 533 203 q 621 242 600 203 q 651 374 642 281 q 728 369 706 374 q 733 229 733 289 q 732 131 733 169 l 56 131 q 56 156 56 139 q 63 194 56 174 q 129 217 108 201 q 150 271 150 232 l 150 931 q 51 949 113 949 q 58 1013 51 990 l 718 1013 q 718 922 718 983 q 711 782 718 861 q 639 779 683 779 q 606 914 626 892 q 525 942 576 942 l 325 942 l 325 611 l 525 626 l 579 626 l 579 525 l 525 525 l 325 536 l 325 203 z "},"Ê":{"ha":789,"x_min":51,"x_max":733,"o":"m 428 1179 l 244 1071 l 206 1104 l 392 1296 l 464 1296 l 650 1104 l 613 1071 l 428 1179 m 325 203 l 533 203 q 621 242 600 203 q 651 374 642 281 q 728 369 706 374 q 733 229 733 289 q 732 131 733 169 l 56 131 q 56 156 56 139 q 63 194 56 174 q 129 217 108 201 q 150 271 150 232 l 150 931 q 51 949 113 949 q 58 1013 51 990 l 718 1013 q 718 922 718 983 q 711 782 718 861 q 639 779 683 779 q 606 914 626 892 q 525 942 576 942 l 325 942 l 325 611 l 525 626 l 579 626 l 579 525 l 525 525 l 325 536 l 325 203 z "},"Ë":{"ha":789,"x_min":51,"x_max":733,"o":"m 592 1114 q 581 1102 592 1114 q 538 1090 569 1090 q 483 1114 506 1090 q 461 1171 461 1138 q 483 1228 461 1204 q 538 1251 506 1251 q 592 1228 569 1251 q 615 1171 615 1204 q 592 1114 615 1138 m 392 1171 q 392 1154 392 1171 q 368 1114 392 1138 q 313 1090 344 1090 q 259 1114 282 1090 q 236 1171 236 1138 q 259 1228 236 1204 q 313 1251 282 1251 q 368 1228 344 1251 q 392 1171 392 1204 m 325 203 l 533 203 q 621 242 600 203 q 651 374 642 281 q 728 369 706 374 q 733 229 733 289 q 732 131 733 169 l 56 131 q 56 156 56 139 q 63 194 56 174 q 129 217 108 201 q 150 271 150 232 l 150 931 q 51 949 113 949 q 58 1013 51 990 l 718 1013 q 718 922 718 983 q 711 782 718 861 q 639 779 683 779 q 606 914 626 892 q 525 942 576 942 l 325 942 l 325 611 l 525 626 l 579 626 l 579 525 l 525 525 l 325 536 l 325 203 z "},"Ì":{"ha":475,"x_min":24,"x_max":421,"o":"m 289 1106 l 243 1078 l 24 1269 l 24 1293 q 81 1332 43 1313 q 149 1353 118 1351 l 289 1106 m 325 872 l 325 211 q 421 194 365 194 q 421 175 421 189 q 417 131 421 161 l 56 131 q 56 156 56 139 q 63 194 56 174 q 129 217 108 201 q 150 271 150 232 l 150 931 q 51 949 110 949 q 58 1013 51 990 l 418 1013 q 419 985 419 1003 q 413 949 419 968 q 347 927 368 943 q 325 872 325 911 z "},"Í":{"ha":475,"x_min":51,"x_max":472,"o":"m 325 872 l 325 211 q 421 194 365 194 q 421 175 421 189 q 417 131 421 161 l 56 131 q 56 156 56 139 q 63 194 56 174 q 129 217 108 201 q 150 271 150 232 l 150 931 q 51 949 110 949 q 58 1013 51 990 l 418 1013 q 419 985 419 1003 q 413 949 419 968 q 347 927 368 943 q 325 872 325 911 m 206 1093 l 346 1340 q 414 1320 376 1339 q 472 1281 451 1301 l 472 1258 l 251 1065 l 206 1093 z "},"Î":{"ha":475,"x_min":15,"x_max":460,"o":"m 325 872 l 325 211 q 421 194 365 194 q 421 175 421 189 q 417 131 421 161 l 56 131 q 56 156 56 139 q 63 194 56 174 q 129 217 108 201 q 150 271 150 232 l 150 931 q 51 949 110 949 q 58 1013 51 990 l 418 1013 q 419 985 419 1003 q 413 949 419 968 q 347 927 368 943 q 325 872 325 911 m 274 1296 l 460 1104 l 422 1071 l 238 1179 l 54 1071 l 15 1104 l 201 1296 l 274 1296 z "},"Ï":{"ha":475,"x_min":49,"x_max":428,"o":"m 405 1114 q 393 1102 405 1114 q 350 1090 382 1090 q 296 1114 318 1090 q 274 1171 274 1138 q 296 1228 274 1204 q 350 1251 318 1251 q 405 1228 382 1251 q 428 1171 428 1204 q 405 1114 428 1138 m 204 1171 q 204 1154 204 1171 q 181 1114 204 1138 q 126 1090 157 1090 q 72 1114 94 1090 q 49 1171 49 1138 q 72 1228 49 1204 q 126 1251 94 1251 q 181 1228 157 1251 q 204 1171 204 1204 m 325 872 l 325 211 q 421 194 365 194 q 421 175 421 189 q 417 131 421 161 l 56 131 q 56 156 56 139 q 63 194 56 174 q 129 217 108 201 q 150 271 150 232 l 150 931 q 51 949 110 949 q 58 1013 51 990 l 418 1013 q 419 985 419 1003 q 413 949 419 968 q 347 927 368 943 q 325 872 325 911 z "},"Ð":{"ha":925,"x_min":40,"x_max":882,"o":"m 325 203 l 411 203 q 621 299 549 203 q 693 572 693 396 q 620 845 693 749 q 404 942 547 942 l 325 942 l 325 549 l 483 549 q 489 508 489 528 q 483 471 489 489 l 325 471 l 325 203 m 425 1013 q 754 897 626 1013 q 882 572 882 781 q 759 247 882 363 q 440 131 636 131 l 56 131 q 56 156 56 139 q 61 194 56 174 q 128 217 107 201 q 149 271 149 232 l 149 471 l 44 471 q 40 508 40 489 q 44 549 40 528 l 149 549 l 149 932 q 53 949 111 949 q 53 968 53 954 q 57 1013 53 982 l 425 1013 z "},"Ñ":{"ha":1014,"x_min":63,"x_max":953,"o":"m 608 1103 q 522 1138 575 1103 q 442 1174 469 1174 q 376 1111 389 1174 l 326 1111 q 458 1292 343 1292 q 544 1256 490 1292 q 625 1221 597 1221 q 690 1283 678 1221 l 740 1283 q 608 1103 724 1103 m 953 1013 q 946 949 953 967 q 856 869 856 938 l 856 131 l 781 131 l 344 704 l 261 826 l 261 211 q 361 194 299 194 q 361 171 361 186 q 356 131 361 156 l 65 131 q 65 156 65 139 q 72 194 65 174 q 140 219 117 201 q 163 274 163 236 l 163 939 q 63 950 129 950 q 71 1013 65 993 l 329 1013 l 668 564 l 757 432 l 757 932 q 657 949 715 949 q 657 968 657 954 q 661 1013 657 982 l 953 1013 z "},"Ò":{"ha":961,"x_min":72,"x_max":890,"o":"m 392 1353 l 532 1106 l 486 1078 l 267 1269 l 267 1293 q 324 1332 286 1313 q 392 1353 361 1351 m 682 554 q 471 956 682 956 q 281 585 281 956 q 335 280 281 372 q 488 188 389 188 q 682 554 682 188 m 776 238 q 718 174 776 238 q 479 111 661 111 q 185 238 297 111 q 72 569 72 364 q 185 903 72 774 q 479 1032 297 1032 q 776 903 661 1032 q 890 569 890 774 q 776 238 890 364 z "},"Ó":{"ha":961,"x_min":72,"x_max":890,"o":"m 682 554 q 471 956 682 956 q 281 585 281 956 q 335 280 281 372 q 488 188 389 188 q 682 554 682 188 m 776 238 q 718 174 776 238 q 479 111 661 111 q 185 238 297 111 q 72 569 72 364 q 185 903 72 774 q 479 1032 297 1032 q 776 903 661 1032 q 890 569 890 774 q 776 238 890 364 m 449 1092 l 589 1339 q 657 1319 619 1338 q 715 1279 694 1300 l 715 1257 l 494 1064 l 449 1092 z "},"Ô":{"ha":961,"x_min":72,"x_max":890,"o":"m 682 554 q 471 956 682 956 q 281 585 281 956 q 335 280 281 372 q 488 188 389 188 q 682 554 682 188 m 776 238 q 718 174 776 238 q 479 111 661 111 q 185 238 297 111 q 72 569 72 364 q 185 903 72 774 q 479 1032 297 1032 q 776 903 661 1032 q 890 569 890 774 q 776 238 890 364 m 703 1104 l 665 1071 l 481 1179 l 297 1071 l 258 1104 l 444 1296 l 517 1296 l 703 1104 z "},"Õ":{"ha":961,"x_min":72,"x_max":890,"o":"m 415 1292 q 501 1256 447 1292 q 582 1221 554 1221 q 647 1283 635 1221 l 697 1283 q 565 1103 681 1103 q 479 1138 532 1103 q 399 1174 426 1174 q 333 1111 346 1174 l 283 1111 q 415 1292 300 1292 m 682 554 q 471 956 682 956 q 281 585 281 956 q 335 280 281 372 q 488 188 389 188 q 682 554 682 188 m 776 238 q 718 174 776 238 q 479 111 661 111 q 185 238 297 111 q 72 569 72 364 q 185 903 72 774 q 479 1032 297 1032 q 776 903 661 1032 q 890 569 890 774 q 776 238 890 364 z "},"Ö":{"ha":961,"x_min":72,"x_max":890,"o":"m 682 554 q 471 956 682 956 q 281 585 281 956 q 335 280 281 372 q 488 188 389 188 q 682 554 682 188 m 776 238 q 718 174 776 238 q 479 111 661 111 q 185 238 297 111 q 72 569 72 364 q 185 903 72 774 q 479 1032 297 1032 q 776 903 661 1032 q 890 569 890 774 q 776 238 890 364 m 645 1228 q 657 1216 645 1228 q 668 1171 668 1204 q 645 1114 668 1138 q 590 1090 622 1090 q 536 1114 558 1090 q 514 1171 514 1138 q 536 1228 514 1204 q 590 1251 558 1251 q 645 1228 622 1251 m 421 1228 q 433 1216 421 1228 q 444 1171 444 1204 q 421 1114 444 1138 q 366 1090 397 1090 q 312 1114 335 1090 q 289 1171 289 1138 q 312 1228 289 1204 q 366 1251 335 1251 q 421 1228 397 1251 z "},"×":{"ha":765,"x_min":96,"x_max":669,"o":"m 669 706 l 468 486 l 668 258 l 592 207 l 406 418 l 218 214 l 96 294 l 311 524 l 117 743 l 194 794 l 374 590 l 565 794 l 669 706 z "},"Ø":{"ha":961,"x_min":72,"x_max":897,"o":"m 492 129 q 683 463 683 129 q 664 668 683 576 l 329 240 q 492 129 379 129 m 635 763 q 472 882 582 882 q 279 549 279 882 q 299 335 279 428 l 635 763 m 786 825 q 890 498 890 697 q 776 172 890 299 q 479 46 661 46 q 232 117 329 46 l 176 46 l 72 46 l 171 172 q 72 500 72 292 q 185 838 72 708 q 479 967 297 967 q 728 883 622 967 l 793 965 l 897 965 l 786 825 z "},"Ù":{"ha":972,"x_min":38,"x_max":939,"o":"m 540 1106 l 494 1078 l 275 1269 l 275 1293 q 332 1332 294 1313 q 400 1353 369 1351 l 540 1106 m 938 1013 q 939 985 939 1003 q 932 949 939 968 q 865 927 886 943 q 844 872 844 911 l 844 413 q 749 185 844 257 q 489 113 654 113 q 229 185 324 113 q 135 413 135 257 l 135 931 q 39 949 94 949 q 38 967 38 954 q 43 1013 38 981 l 403 1013 q 403 985 403 1003 q 397 949 403 968 q 331 927 353 943 q 310 872 310 911 l 310 410 q 489 200 310 200 q 668 410 668 200 l 668 932 q 571 949 628 949 q 576 1013 571 989 l 938 1013 z "},"Ú":{"ha":979,"x_min":38,"x_max":939,"o":"m 717 1257 l 496 1064 l 450 1092 l 590 1339 q 658 1319 621 1338 q 717 1279 696 1300 l 717 1257 m 938 1013 q 939 985 939 1003 q 932 949 939 968 q 865 927 886 943 q 844 872 844 911 l 844 413 q 749 185 844 257 q 489 113 654 113 q 229 185 324 113 q 135 413 135 257 l 135 931 q 39 949 94 949 q 38 967 38 954 q 43 1013 38 981 l 403 1013 q 403 985 403 1003 q 397 949 403 968 q 331 927 353 943 q 310 872 310 911 l 310 410 q 489 200 310 200 q 668 410 668 200 l 668 932 q 571 949 628 949 q 576 1013 571 989 l 938 1013 z "},"Û":{"ha":979,"x_min":38,"x_max":939,"o":"m 482 1179 l 299 1071 l 260 1104 l 446 1296 l 518 1296 l 704 1104 l 667 1071 l 482 1179 m 938 1013 q 939 985 939 1003 q 932 949 939 968 q 865 927 886 943 q 844 872 844 911 l 844 413 q 749 185 844 257 q 489 113 654 113 q 229 185 324 113 q 135 413 135 257 l 135 931 q 39 949 94 949 q 38 967 38 954 q 43 1013 38 981 l 403 1013 q 403 985 403 1003 q 397 949 403 968 q 331 927 353 943 q 310 872 310 911 l 310 410 q 489 200 310 200 q 668 410 668 200 l 668 932 q 571 949 628 949 q 576 1013 571 989 l 938 1013 z "},"Ü":{"ha":979,"x_min":38,"x_max":939,"o":"m 645 1114 q 634 1102 645 1114 q 590 1090 622 1090 q 536 1114 558 1090 q 514 1171 514 1138 q 536 1228 514 1204 q 590 1251 558 1251 q 645 1228 622 1251 q 668 1171 668 1204 q 645 1114 668 1138 m 444 1171 q 444 1154 444 1171 q 421 1114 444 1138 q 366 1090 397 1090 q 312 1114 335 1090 q 289 1171 289 1138 q 312 1228 289 1204 q 366 1251 335 1251 q 421 1228 397 1251 q 444 1171 444 1204 m 938 1013 q 939 985 939 1003 q 932 949 939 968 q 865 927 886 943 q 844 872 844 911 l 844 413 q 749 185 844 257 q 489 113 654 113 q 229 185 324 113 q 135 413 135 257 l 135 931 q 39 949 94 949 q 38 967 38 954 q 43 1013 38 981 l 403 1013 q 403 985 403 1003 q 397 949 403 968 q 331 927 353 943 q 310 872 310 911 l 310 410 q 489 200 310 200 q 668 410 668 200 l 668 932 q 571 949 628 949 q 576 1013 571 989 l 938 1013 z "},"Ý":{"ha":879,"x_min":3,"x_max":876,"o":"m 708 1258 l 488 1065 l 442 1093 l 582 1340 q 650 1320 613 1339 q 708 1281 688 1301 l 708 1258 m 394 950 q 307 900 307 943 q 321 861 307 883 l 482 567 l 486 567 q 532 668 499 613 l 693 936 q 617 950 650 949 q 624 1013 617 978 l 876 1013 q 867 950 874 974 q 803 926 824 943 q 760 872 783 910 l 535 503 l 535 208 q 639 194 575 194 q 633 131 639 158 l 244 131 q 244 153 244 138 q 249 194 244 169 q 297 206 281 200 q 328 227 314 211 q 343 271 343 243 l 343 497 l 83 938 q 8 950 46 950 q 3 1013 3 994 l 385 1013 q 394 950 394 974 z "},"Þ":{"ha":829,"x_min":51,"x_max":803,"o":"m 325 357 l 439 357 q 565 398 518 357 q 613 515 613 439 q 439 674 613 674 l 325 674 l 325 357 m 325 746 l 475 746 q 715 685 626 746 q 803 515 803 624 q 715 347 803 407 q 475 286 626 286 l 325 286 l 325 146 q 421 129 365 129 q 421 110 421 124 q 417 65 421 96 l 56 65 q 56 91 56 74 q 63 129 56 108 q 129 151 108 136 q 150 206 150 167 l 150 865 q 51 883 110 883 q 58 947 51 925 l 418 947 q 419 920 419 938 q 413 883 419 903 q 347 862 368 878 q 325 807 325 846 l 325 746 z "},"ß":{"ha":888,"x_min":53,"x_max":818,"o":"m 149 207 l 149 658 q 235 874 149 800 q 470 947 322 947 q 700 879 618 947 q 782 711 782 811 q 744 598 782 644 q 639 529 706 551 q 772 447 725 507 q 818 307 818 388 q 742 135 818 204 q 511 65 665 65 q 404 81 453 65 q 400 116 400 99 q 404 151 400 133 q 475 138 438 138 q 589 181 549 138 q 629 306 629 225 q 588 433 629 388 q 467 478 546 478 l 425 478 q 417 518 417 500 q 421 550 417 536 l 489 550 q 592 713 592 599 q 457 876 592 876 q 325 704 325 876 l 325 65 l 53 65 q 53 92 53 74 q 60 129 53 110 q 127 152 106 136 q 149 207 149 168 z "},"à":{"ha":685,"x_min":44,"x_max":676,"o":"m 399 861 l 353 833 l 133 1025 l 133 1049 q 190 1088 153 1068 q 258 1108 228 1107 l 399 861 m 226 304 q 248 244 226 267 q 315 222 269 222 q 396 263 360 222 l 396 443 l 335 426 q 226 304 226 396 m 539 113 q 453 133 492 113 q 401 190 415 153 q 242 113 335 113 q 97 163 150 113 q 44 290 44 213 q 94 414 44 368 q 246 481 144 460 l 396 511 l 396 561 q 370 638 396 614 q 277 663 344 663 q 122 632 210 663 l 88 683 q 357 785 204 785 q 514 728 461 785 q 567 567 567 671 l 567 290 q 611 219 567 219 q 663 228 618 219 l 676 192 q 539 113 613 113 z "},"á":{"ha":685,"x_min":44,"x_max":676,"o":"m 582 1011 l 361 818 l 315 846 l 456 1093 q 524 1073 486 1092 q 582 1033 561 1054 l 582 1011 m 226 304 q 248 244 226 267 q 315 222 269 222 q 396 263 360 222 l 396 443 l 335 426 q 226 304 226 396 m 539 113 q 453 133 492 113 q 401 190 415 153 q 242 113 335 113 q 97 163 150 113 q 44 290 44 213 q 94 414 44 368 q 246 481 144 460 l 396 511 l 396 561 q 370 638 396 614 q 277 663 344 663 q 122 632 210 663 l 88 683 q 357 785 204 785 q 514 728 461 785 q 567 567 567 671 l 567 290 q 611 219 567 219 q 663 228 618 219 l 676 192 q 539 113 613 113 z "},"â":{"ha":685,"x_min":44,"x_max":676,"o":"m 347 935 l 164 826 l 125 860 l 311 1051 l 383 1051 l 569 860 l 532 826 l 347 935 m 226 304 q 248 244 226 267 q 315 222 269 222 q 396 263 360 222 l 396 443 l 335 426 q 226 304 226 396 m 539 113 q 453 133 492 113 q 401 190 415 153 q 242 113 335 113 q 97 163 150 113 q 44 290 44 213 q 94 414 44 368 q 246 481 144 460 l 396 511 l 396 561 q 370 638 396 614 q 277 663 344 663 q 122 632 210 663 l 88 683 q 357 785 204 785 q 514 728 461 785 q 567 567 567 671 l 567 290 q 611 219 567 219 q 663 228 618 219 l 676 192 q 539 113 613 113 z "},"ã":{"ha":685,"x_min":44,"x_max":676,"o":"m 432 858 q 346 894 399 858 q 265 929 293 929 q 200 867 213 929 l 150 867 q 282 1047 167 1047 q 367 1012 314 1047 q 449 976 421 976 q 514 1039 501 976 l 564 1039 q 432 858 547 858 m 226 304 q 248 244 226 267 q 315 222 269 222 q 396 263 360 222 l 396 443 l 335 426 q 226 304 226 396 m 539 113 q 453 133 492 113 q 401 190 415 153 q 242 113 335 113 q 97 163 150 113 q 44 290 44 213 q 94 414 44 368 q 246 481 144 460 l 396 511 l 396 561 q 370 638 396 614 q 277 663 344 663 q 122 632 210 663 l 88 683 q 357 785 204 785 q 514 728 461 785 q 567 567 567 671 l 567 290 q 611 219 567 219 q 663 228 618 219 l 676 192 q 539 113 613 113 z "},"ä":{"ha":685,"x_min":44,"x_max":676,"o":"m 515 869 q 503 858 515 869 q 460 846 492 846 q 406 869 428 846 q 383 926 383 893 q 406 983 383 960 q 460 1007 428 1007 q 515 983 492 1007 q 538 926 538 960 q 515 869 538 893 m 314 926 q 314 910 314 926 q 290 869 314 893 q 235 846 267 846 q 181 869 204 846 q 158 926 158 893 q 181 983 158 960 q 235 1007 204 1007 q 290 983 267 1007 q 314 926 314 960 m 226 304 q 248 244 226 267 q 315 222 269 222 q 396 263 360 222 l 396 443 l 335 426 q 226 304 226 396 m 539 113 q 453 133 492 113 q 401 190 415 153 q 242 113 335 113 q 97 163 150 113 q 44 290 44 213 q 94 414 44 368 q 246 481 144 460 l 396 511 l 396 561 q 370 638 396 614 q 277 663 344 663 q 122 632 210 663 l 88 683 q 357 785 204 785 q 514 728 461 785 q 567 567 567 671 l 567 290 q 611 219 567 219 q 663 228 618 219 l 676 192 q 539 113 613 113 z "},"å":{"ha":685,"x_min":44,"x_max":676,"o":"m 347 997 q 310 982 325 997 q 296 937 296 967 q 310 892 296 907 q 347 876 325 876 q 399 937 399 876 q 347 997 399 997 m 449 860 q 428 845 449 860 q 347 831 407 831 q 246 860 288 831 q 204 938 204 890 q 246 1014 204 985 q 347 1043 288 1043 q 449 1014 407 1043 q 492 938 492 985 q 449 860 492 890 m 226 304 q 248 244 226 267 q 315 222 269 222 q 396 263 360 222 l 396 443 l 335 426 q 226 304 226 396 m 539 113 q 453 133 492 113 q 401 190 415 153 q 242 113 335 113 q 97 163 150 113 q 44 290 44 213 q 94 414 44 368 q 246 481 144 460 l 396 511 l 396 561 q 370 638 396 614 q 277 663 344 663 q 122 632 210 663 l 88 683 q 357 785 204 785 q 514 728 461 785 q 567 567 567 671 l 567 290 q 611 219 567 219 q 663 228 618 219 l 676 192 q 539 113 613 113 z "},"æ":{"ha":1032,"x_min":44,"x_max":985,"o":"m 718 635 q 635 594 672 635 q 585 468 597 554 l 713 478 l 811 481 q 718 635 810 635 m 226 239 q 248 179 226 201 q 304 157 269 157 q 422 231 375 157 q 396 369 396 294 l 396 378 l 335 361 q 226 239 226 331 m 579 406 l 579 392 q 757 156 579 156 q 956 206 851 156 l 979 165 q 708 47 868 47 q 572 78 640 47 q 458 171 504 110 q 240 47 375 47 q 98 97 151 47 q 44 225 44 147 q 94 349 44 303 q 246 415 144 394 l 396 446 l 396 496 q 370 573 396 549 q 277 597 344 597 q 122 567 210 597 l 88 618 q 357 719 204 719 q 522 642 475 719 q 726 719 613 719 q 912 654 839 719 q 985 450 985 589 q 963 406 976 425 l 579 406 z "},"ç":{"ha":625,"x_min":43,"x_max":600,"o":"m 490 -51 q 437 -142 490 -107 q 297 -178 383 -178 q 122 -129 210 -178 l 150 -92 q 272 -125 217 -125 q 383 -61 383 -125 q 311 -12 383 -12 q 249 -19 286 -12 l 276 119 q 110 224 178 142 q 43 435 43 306 q 143 689 43 593 q 390 785 243 785 q 575 740 486 785 q 556 558 574 657 q 513 564 540 558 q 473 663 508 626 q 385 699 438 699 q 269 638 313 699 q 225 455 225 576 q 270 276 225 333 q 394 218 315 218 q 574 265 472 218 l 600 226 q 382 115 506 132 l 367 40 q 460 13 431 39 q 490 -51 490 -12 z "},"è":{"ha":679,"x_min":43,"x_max":632,"o":"m 428 861 l 382 833 l 163 1025 l 163 1049 q 219 1088 182 1068 q 288 1108 257 1107 l 428 861 m 365 700 q 281 660 319 700 q 231 533 243 619 l 360 543 l 458 546 q 365 700 454 700 m 225 471 l 225 457 q 404 221 225 221 q 603 271 499 221 l 626 231 q 354 113 513 113 q 213 145 282 113 q 94 254 144 178 q 43 435 43 331 q 144 690 43 596 q 381 785 244 785 q 559 719 486 785 q 632 515 632 654 q 610 471 624 490 l 225 471 z "},"é":{"ha":679,"x_min":43,"x_max":632,"o":"m 611 1013 l 390 819 l 344 847 l 485 1094 q 553 1074 515 1093 q 611 1035 590 1056 l 611 1013 m 365 700 q 281 660 319 700 q 231 533 243 619 l 360 543 l 458 546 q 365 700 454 700 m 225 471 l 225 457 q 404 221 225 221 q 603 271 499 221 l 626 231 q 354 113 513 113 q 213 145 282 113 q 94 254 144 178 q 43 435 43 331 q 144 690 43 596 q 381 785 244 785 q 559 719 486 785 q 632 515 632 654 q 610 471 624 490 l 225 471 z "},"ê":{"ha":679,"x_min":43,"x_max":632,"o":"m 376 935 l 193 826 l 154 860 l 340 1051 l 413 1051 l 599 860 l 561 826 l 376 935 m 365 700 q 281 660 319 700 q 231 533 243 619 l 360 543 l 458 546 q 365 700 454 700 m 225 471 l 225 457 q 404 221 225 221 q 603 271 499 221 l 626 231 q 354 113 513 113 q 213 145 282 113 q 94 254 144 178 q 43 435 43 331 q 144 690 43 596 q 381 785 244 785 q 559 719 486 785 q 632 515 632 654 q 610 471 624 490 l 225 471 z "},"ë":{"ha":679,"x_min":43,"x_max":632,"o":"m 540 869 q 528 858 540 869 q 485 846 517 846 q 431 869 453 846 q 408 926 408 893 q 431 983 408 960 q 485 1007 453 1007 q 540 983 517 1007 q 563 926 563 960 q 540 869 563 893 m 339 926 q 339 910 339 926 q 315 869 339 893 q 260 846 292 846 q 206 869 229 846 q 183 926 183 893 q 206 983 183 960 q 260 1007 229 1007 q 315 983 292 1007 q 339 926 339 960 m 365 700 q 281 660 319 700 q 231 533 243 619 l 360 543 l 458 546 q 365 700 454 700 m 225 471 l 225 457 q 404 221 225 221 q 603 271 499 221 l 626 231 q 354 113 513 113 q 213 145 282 113 q 94 254 144 178 q 43 435 43 331 q 144 690 43 596 q 381 785 244 785 q 559 719 486 785 q 632 515 632 654 q 610 471 624 490 l 225 471 z "},"ì":{"ha":439,"x_min":8,"x_max":388,"o":"m 274 861 l 228 833 l 8 1025 l 8 1049 q 65 1088 28 1068 q 133 1108 103 1107 l 274 861 m 388 194 q 388 175 388 189 q 383 131 388 161 l 38 131 q 36 158 36 140 q 43 194 36 175 q 110 217 89 201 q 132 271 132 233 l 132 661 q 85 664 110 664 q 38 663 61 664 q 47 726 40 703 q 304 778 167 768 l 304 213 q 388 194 339 197 z "},"í":{"ha":439,"x_min":36,"x_max":457,"o":"m 388 194 q 388 175 388 189 q 383 131 388 161 l 38 131 q 36 158 36 140 q 43 194 36 175 q 110 217 89 201 q 132 271 132 233 l 132 661 q 85 664 110 664 q 38 663 61 664 q 47 726 40 703 q 304 778 167 768 l 304 213 q 388 194 339 197 m 190 847 l 331 1094 q 399 1074 361 1093 q 457 1035 436 1056 l 457 1013 l 236 819 l 190 847 z "},"î":{"ha":439,"x_min":1,"x_max":446,"o":"m 388 194 q 388 175 388 189 q 383 131 388 161 l 38 131 q 36 158 36 140 q 43 194 36 175 q 110 217 89 201 q 132 271 132 233 l 132 661 q 85 664 110 664 q 38 663 61 664 q 47 726 40 703 q 304 778 167 768 l 304 213 q 388 194 339 197 m 260 1051 l 446 860 l 408 826 l 224 935 l 40 826 l 1 860 l 188 1051 l 260 1051 z "},"ï":{"ha":439,"x_min":31,"x_max":410,"o":"m 387 869 q 375 858 387 869 q 332 846 364 846 q 278 869 300 846 q 256 926 256 893 q 278 983 256 960 q 332 1007 300 1007 q 387 983 364 1007 q 410 926 410 960 q 387 869 410 893 m 186 926 q 186 910 186 926 q 163 869 186 893 q 108 846 139 846 q 53 869 76 846 q 31 926 31 893 q 53 983 31 960 q 108 1007 76 1007 q 163 983 139 1007 q 186 926 186 960 m 388 194 q 388 175 388 189 q 383 131 388 161 l 38 131 q 36 158 36 140 q 43 194 36 175 q 110 217 89 201 q 132 271 132 233 l 132 661 q 85 664 110 664 q 38 663 61 664 q 47 726 40 703 q 304 778 167 768 l 304 213 q 388 194 339 197 z "},"ð":{"ha":731,"x_min":43,"x_max":676,"o":"m 358 131 q 458 213 424 131 q 493 419 493 294 q 482 621 493 544 q 407 632 444 632 q 225 376 225 632 q 225 369 225 374 q 358 131 233 131 m 676 450 q 582 158 676 268 q 351 49 488 49 q 128 131 214 49 q 43 367 43 213 q 155 621 43 522 q 419 719 267 719 q 463 718 449 719 q 410 849 444 783 l 258 783 q 219 851 231 806 l 368 915 q 279 1025 331 969 l 332 1072 q 458 956 399 1019 l 607 1019 q 646 953 635 996 l 510 893 q 676 450 676 679 z "},"ñ":{"ha":843,"x_min":36,"x_max":819,"o":"m 521 858 q 435 894 488 858 q 354 929 382 929 q 289 867 301 929 l 239 867 q 371 1047 256 1047 q 456 1012 403 1047 q 538 976 510 976 q 603 1039 590 976 l 653 1039 q 521 858 636 858 m 724 569 l 724 213 q 818 194 783 196 q 819 171 819 186 q 813 131 819 156 l 471 131 q 469 158 469 140 q 476 194 469 175 q 535 217 518 201 q 551 271 551 232 l 551 550 q 524 640 551 610 q 450 669 497 669 q 304 540 354 669 l 304 213 q 388 194 339 197 q 388 175 388 189 q 383 131 388 161 l 38 131 q 36 158 36 140 q 43 194 36 175 q 110 217 89 201 q 132 271 132 233 l 132 661 q 85 664 110 664 q 38 663 61 664 q 47 724 40 704 q 288 778 163 765 q 303 649 299 721 q 519 785 372 785 q 667 728 610 785 q 724 569 724 672 z "},"ò":{"ha":743,"x_min":43,"x_max":700,"o":"m 286 1108 l 426 861 l 381 833 l 161 1025 l 161 1049 q 218 1088 181 1068 q 286 1108 256 1107 m 517 426 q 365 706 517 706 q 225 471 225 706 q 225 449 225 460 q 379 196 236 196 q 517 426 517 196 m 373 785 q 446 785 373 785 q 610 697 519 785 q 700 450 700 610 q 608 202 700 290 q 369 114 517 114 q 133 201 222 114 q 43 449 43 289 q 135 697 43 608 q 373 785 226 785 z "},"ó":{"ha":751,"x_min":43,"x_max":700,"o":"m 517 426 q 365 706 517 706 q 225 471 225 706 q 225 449 225 460 q 379 196 236 196 q 517 426 517 196 m 373 785 q 446 785 373 785 q 610 697 519 785 q 700 450 700 610 q 608 202 700 290 q 369 114 517 114 q 133 201 222 114 q 43 449 43 289 q 135 697 43 608 q 373 785 226 785 m 343 847 l 483 1094 q 551 1074 514 1093 q 610 1035 589 1056 l 610 1013 l 389 819 l 343 847 z "},"ô":{"ha":751,"x_min":43,"x_max":700,"o":"m 517 426 q 365 706 517 706 q 225 471 225 706 q 225 449 225 460 q 379 196 236 196 q 517 426 517 196 m 373 785 q 446 785 373 785 q 610 697 519 785 q 700 450 700 610 q 608 202 700 290 q 369 114 517 114 q 133 201 222 114 q 43 449 43 289 q 135 697 43 608 q 373 785 226 785 m 597 860 l 560 826 l 375 935 l 192 826 l 153 860 l 339 1051 l 411 1051 l 597 860 z "},"õ":{"ha":743,"x_min":43,"x_max":700,"o":"m 310 1047 q 395 1012 342 1047 q 476 976 449 976 q 542 1039 529 976 l 592 1039 q 460 858 575 858 q 374 894 426 858 q 293 929 321 929 q 228 867 240 929 l 178 867 q 310 1047 194 1047 m 517 426 q 365 706 517 706 q 225 471 225 706 q 225 449 225 460 q 379 196 236 196 q 517 426 517 196 m 373 785 q 446 785 373 785 q 610 697 519 785 q 700 450 700 610 q 608 202 700 290 q 369 114 517 114 q 133 201 222 114 q 43 449 43 289 q 135 697 43 608 q 373 785 226 785 z "},"ö":{"ha":751,"x_min":43,"x_max":700,"o":"m 517 426 q 365 706 517 706 q 225 471 225 706 q 225 449 225 460 q 379 196 236 196 q 517 426 517 196 m 373 785 q 446 785 373 785 q 610 697 519 785 q 700 450 700 610 q 608 202 700 290 q 369 114 517 114 q 133 201 222 114 q 43 449 43 289 q 135 697 43 608 q 373 785 226 785 m 540 983 q 551 972 540 983 q 563 926 563 960 q 540 869 563 893 q 485 846 517 846 q 431 869 453 846 q 408 926 408 893 q 431 983 408 960 q 485 1007 453 1007 q 540 983 517 1007 m 315 983 q 327 972 315 983 q 339 926 339 960 q 315 869 339 893 q 260 846 292 846 q 206 869 229 846 q 183 926 183 893 q 206 983 183 960 q 260 1007 229 1007 q 315 983 292 1007 z "},"÷":{"ha":908,"x_min":96,"x_max":806,"o":"m 806 436 l 156 436 l 96 556 l 96 567 l 746 567 l 806 446 l 806 436 m 558 240 q 558 219 558 240 q 528 167 558 197 q 455 138 497 138 q 383 167 413 138 q 353 240 353 197 q 383 313 353 282 q 455 344 413 344 q 528 314 497 344 q 558 240 558 283 m 558 758 q 558 738 558 758 q 528 687 558 717 q 455 657 497 657 q 383 687 413 657 q 353 758 353 717 q 383 831 353 800 q 455 861 413 861 q 528 831 497 861 q 558 758 558 800 z "},"ø":{"ha":751,"x_min":43,"x_max":708,"o":"m 383 131 q 525 361 525 131 q 513 493 525 438 l 264 206 q 383 131 301 131 m 369 640 q 225 406 225 640 q 238 275 225 333 l 488 564 q 369 640 450 640 m 625 624 q 708 379 708 533 q 615 137 708 225 q 375 49 522 49 q 175 103 256 49 l 129 50 l 43 50 l 125 146 q 43 389 43 235 q 136 631 43 543 q 376 719 229 719 q 575 665 494 719 l 622 719 l 708 719 l 625 624 z "},"ù":{"ha":829,"x_min":18,"x_max":776,"o":"m 444 861 l 399 833 l 179 1025 l 179 1049 q 236 1088 199 1068 q 304 1108 274 1107 l 444 861 m 689 642 l 689 240 q 772 233 733 233 q 776 201 776 217 q 775 175 776 186 q 536 124 671 128 q 519 251 524 188 q 303 114 444 114 q 156 172 213 114 q 99 332 99 229 l 99 667 q 56 668 78 668 q 18 668 35 668 q 28 729 21 710 q 269 782 150 775 l 269 351 q 298 262 269 293 q 372 231 326 231 q 518 364 465 231 l 518 607 q 460 715 518 690 q 474 754 465 742 q 638 783 550 783 q 694 781 665 783 q 689 642 689 731 z "},"ú":{"ha":833,"x_min":18,"x_max":776,"o":"m 636 1013 l 415 819 l 369 847 l 510 1094 q 578 1074 540 1093 q 636 1035 615 1056 l 636 1013 m 689 642 l 689 240 q 772 233 733 233 q 776 201 776 217 q 775 175 776 186 q 536 124 671 128 q 519 251 524 188 q 303 114 444 114 q 156 172 213 114 q 99 332 99 229 l 99 667 q 56 668 78 668 q 18 668 35 668 q 28 729 21 710 q 269 782 150 775 l 269 351 q 298 262 269 293 q 372 231 326 231 q 518 364 465 231 l 518 607 q 460 715 518 690 q 474 754 465 742 q 638 783 550 783 q 694 781 665 783 q 689 642 689 731 z "},"û":{"ha":833,"x_min":18,"x_max":776,"o":"m 401 935 l 218 826 l 179 860 l 365 1051 l 438 1051 l 624 860 l 586 826 l 401 935 m 689 642 l 689 240 q 772 233 733 233 q 776 201 776 217 q 775 175 776 186 q 536 124 671 128 q 519 251 524 188 q 303 114 444 114 q 156 172 213 114 q 99 332 99 229 l 99 667 q 56 668 78 668 q 18 668 35 668 q 28 729 21 710 q 269 782 150 775 l 269 351 q 298 262 269 293 q 372 231 326 231 q 518 364 465 231 l 518 607 q 460 715 518 690 q 474 754 465 742 q 638 783 550 783 q 694 781 665 783 q 689 642 689 731 z "},"ü":{"ha":833,"x_min":18,"x_max":776,"o":"m 566 869 q 555 858 566 869 q 511 846 543 846 q 457 869 479 846 q 435 926 435 893 q 457 983 435 960 q 511 1007 479 1007 q 566 983 543 1007 q 589 926 589 960 q 566 869 589 893 m 365 926 q 365 910 365 926 q 342 869 365 893 q 287 846 318 846 q 233 869 256 846 q 210 926 210 893 q 233 983 210 960 q 287 1007 256 1007 q 342 983 318 1007 q 365 926 365 960 m 689 642 l 689 240 q 772 233 733 233 q 776 201 776 217 q 775 175 776 186 q 536 124 671 128 q 519 251 524 188 q 303 114 444 114 q 156 172 213 114 q 99 332 99 229 l 99 667 q 56 668 78 668 q 18 668 35 668 q 28 729 21 710 q 269 782 150 775 l 269 351 q 298 262 269 293 q 372 231 326 231 q 518 364 465 231 l 518 607 q 460 715 518 690 q 474 754 465 742 q 638 783 550 783 q 694 781 665 783 q 689 642 689 731 z "},"ý":{"ha":733,"x_min":-8,"x_max":746,"o":"m 647 1013 l 426 819 l 381 847 l 521 1094 q 589 1074 551 1093 q 647 1035 626 1056 l 647 1013 m 160 -194 l 133 -194 q 115 -100 115 -140 q 118 -37 115 -60 l 157 -37 q 253 -15 219 -37 q 315 69 286 7 l 321 81 l 96 624 q 61 679 81 663 q -3 704 42 696 q -8 744 -8 729 q -7 767 -8 758 l 339 767 q 344 704 344 750 q 260 693 285 701 l 400 246 q 425 326 411 290 l 540 615 q 550 656 550 640 q 544 678 550 671 q 478 704 531 697 q 472 744 472 729 q 474 767 472 758 l 744 767 q 732 704 746 736 q 671 690 699 700 l 360 -6 q 271 -147 318 -99 q 160 -194 224 -194 z "},"þ":{"ha":789,"x_min":38,"x_max":746,"o":"m 304 263 q 353 177 319 208 q 434 146 386 146 q 522 199 482 146 q 561 383 561 251 q 522 568 561 515 q 434 621 482 621 q 353 590 386 621 q 304 504 319 558 l 304 263 m 304 618 q 474 719 360 719 q 667 633 589 719 q 746 383 746 546 q 667 134 746 221 q 474 47 589 47 q 304 149 358 47 l 304 -167 q 421 -194 354 -192 q 421 -214 421 -200 q 417 -260 421 -228 l 38 -260 q 38 -233 38 -251 q 44 -194 38 -215 q 111 -173 90 -189 q 132 -118 132 -157 l 132 947 q 96 949 119 949 q 38 947 72 949 q 47 1010 40 990 q 304 1063 165 1053 l 304 618 z "},"ÿ":{"ha":733,"x_min":-8,"x_max":746,"o":"m 578 869 q 567 858 578 869 q 524 846 556 846 q 469 869 492 846 q 447 926 447 893 q 469 983 447 960 q 524 1007 492 1007 q 578 983 556 1007 q 601 926 601 960 q 578 869 601 893 m 378 926 q 378 910 378 926 q 354 869 378 893 q 299 846 331 846 q 245 869 268 846 q 222 926 222 893 q 245 983 222 960 q 299 1007 268 1007 q 354 983 331 1007 q 378 926 378 960 m 160 -194 l 133 -194 q 115 -100 115 -140 q 118 -37 115 -60 l 157 -37 q 253 -15 219 -37 q 315 69 286 7 l 321 81 l 96 624 q 61 679 81 663 q -3 704 42 696 q -8 744 -8 729 q -7 767 -8 758 l 339 767 q 344 704 344 750 q 260 693 285 701 l 400 246 q 425 326 411 290 l 540 615 q 550 656 550 640 q 544 678 550 671 q 478 704 531 697 q 472 744 472 729 q 474 767 472 758 l 744 767 q 732 704 746 736 q 671 690 699 700 l 360 -6 q 271 -147 318 -99 q 160 -194 224 -194 z "},"ı":{"ha":439,"x_min":36,"x_max":388,"o":"m 388 129 q 388 110 388 124 q 383 65 388 96 l 38 65 q 36 92 36 75 q 43 129 36 110 q 110 152 89 136 q 132 206 132 168 l 132 596 q 85 599 110 599 q 38 597 61 599 q 47 661 40 638 q 304 713 167 703 l 304 147 q 388 129 339 132 z "},"Ł":{"ha":757,"x_min":15,"x_max":729,"o":"m 325 201 l 544 201 q 624 229 596 201 q 648 287 642 247 q 657 363 654 326 q 719 360 694 363 q 729 208 729 261 q 728 131 729 156 l 56 131 q 56 156 56 139 q 61 194 56 174 q 128 217 107 201 q 149 271 149 232 l 149 447 l 44 411 q 15 485 22 440 l 149 531 l 149 932 q 53 949 110 949 q 53 968 53 954 q 57 1013 53 982 l 417 1013 q 418 987 418 1003 q 411 949 418 971 q 346 927 367 943 q 325 872 325 911 l 325 592 l 457 638 q 486 563 476 608 l 325 507 l 325 201 z "},"ł":{"ha":538,"x_min":32,"x_max":503,"o":"m 426 194 q 426 175 426 189 q 422 131 426 161 l 76 131 q 75 158 75 140 q 82 194 75 175 q 149 217 128 201 q 171 271 171 233 l 171 501 l 60 464 q 32 539 36 496 l 171 588 l 171 1013 q 135 1014 158 1014 q 76 1013 111 1014 q 86 1075 79 1056 q 343 1128 204 1118 l 343 646 l 474 692 q 503 613 493 664 l 343 558 l 343 213 q 426 194 378 197 z "},"Œ":{"ha":1317,"x_min":72,"x_max":1242,"o":"m 497 882 q 328 778 381 882 q 279 542 279 686 q 336 225 279 336 q 488 129 385 129 q 658 193 590 129 l 658 819 q 497 882 589 882 m 835 138 l 1042 138 q 1122 167 1096 138 q 1150 231 1144 190 q 1160 308 1156 271 q 1236 304 1215 308 q 1242 164 1242 224 q 1240 65 1242 104 l 688 65 q 479 46 574 46 q 185 172 297 46 q 72 503 72 299 q 193 837 72 707 q 497 967 314 967 q 692 947 578 967 l 1226 947 q 1228 853 1228 913 q 1219 717 1228 793 q 1147 714 1192 714 q 1114 847 1135 826 q 1033 876 1085 876 l 835 876 l 835 546 l 1022 561 l 1075 561 l 1075 460 l 1022 460 l 835 471 l 835 138 z "},"œ":{"ha":1167,"x_min":43,"x_max":1111,"o":"m 846 635 q 762 594 800 635 q 711 468 724 554 l 839 478 l 938 481 q 846 635 936 635 m 517 361 q 365 640 517 640 q 225 406 225 640 q 225 383 225 394 q 379 131 236 131 q 517 361 517 131 m 706 406 l 706 392 q 885 156 706 156 q 1074 214 975 156 l 1100 164 q 835 47 986 47 q 710 75 772 47 q 611 158 649 103 q 378 49 533 49 q 133 136 222 49 q 43 383 43 224 q 135 631 43 543 q 381 719 226 719 q 619 599 536 719 q 861 719 707 719 q 1038 653 965 719 q 1111 450 1111 588 q 1089 406 1104 425 l 706 406 z "},"Š":{"ha":743,"x_min":86,"x_max":663,"o":"m 663 374 q 571 185 663 256 q 360 114 479 114 q 88 163 240 114 q 86 247 86 189 q 99 415 86 306 q 169 408 136 415 q 169 400 169 404 q 358 197 169 197 q 464 230 424 197 q 504 319 504 263 q 462 419 504 376 q 359 492 419 463 q 238 556 299 522 q 134 650 176 590 q 92 792 92 710 q 174 966 92 903 q 375 1029 256 1029 q 622 989 494 1029 q 604 775 622 892 q 547 779 575 775 q 381 949 524 949 q 279 918 318 949 q 240 834 240 888 q 284 739 240 781 q 390 668 328 697 q 513 606 451 639 q 619 515 575 574 q 663 374 663 456 m 618 1271 l 457 1075 l 336 1075 l 174 1271 l 213 1304 l 396 1161 l 581 1304 l 618 1271 z "},"š":{"ha":583,"x_min":61,"x_max":547,"o":"m 261 193 q 287 193 261 193 q 343 217 313 193 q 374 275 374 240 q 343 337 374 310 q 269 386 313 364 q 183 433 226 408 q 110 499 140 458 q 79 594 79 540 q 147 737 79 689 q 311 785 214 785 q 496 756 408 785 q 496 697 496 739 q 488 583 496 654 q 433 589 451 583 q 435 617 435 604 q 332 711 435 711 q 263 689 290 711 q 236 631 236 667 q 267 569 236 594 q 344 523 299 543 q 434 478 389 503 q 510 413 479 454 q 542 315 542 371 q 464 169 542 225 q 271 113 386 113 q 64 140 156 113 q 61 219 61 172 q 71 326 61 265 q 128 322 74 326 q 128 294 128 314 q 138 249 128 274 q 172 211 149 224 q 261 193 210 193 m 547 1026 l 386 831 l 265 831 l 103 1026 l 142 1060 l 325 917 l 510 1060 l 547 1026 z "},"Ÿ":{"ha":879,"x_min":3,"x_max":876,"o":"m 641 1114 q 630 1102 641 1114 q 586 1090 618 1090 q 532 1114 554 1090 q 510 1171 510 1138 q 532 1228 510 1204 q 586 1251 554 1251 q 641 1228 618 1251 q 664 1171 664 1204 q 641 1114 664 1138 m 440 1171 q 440 1154 440 1171 q 417 1114 440 1138 q 362 1090 393 1090 q 308 1114 331 1090 q 285 1171 285 1138 q 308 1228 285 1204 q 362 1251 331 1251 q 417 1228 393 1251 q 440 1171 440 1204 m 394 950 q 307 900 307 943 q 321 861 307 883 l 482 567 l 486 567 q 532 668 499 613 l 693 936 q 617 950 650 949 q 624 1013 617 978 l 876 1013 q 867 950 874 974 q 803 926 824 943 q 760 872 783 910 l 535 503 l 535 208 q 639 194 575 194 q 633 131 639 158 l 244 131 q 244 153 244 138 q 249 194 244 169 q 297 206 281 200 q 328 227 314 211 q 343 271 343 243 l 343 497 l 83 938 q 8 950 46 950 q 3 1013 3 994 l 385 1013 q 394 950 394 974 z "},"Ž":{"ha":774,"x_min":65,"x_max":710,"o":"m 488 1075 l 367 1075 l 204 1271 l 243 1304 l 426 1161 l 611 1304 l 649 1271 l 488 1075 m 544 219 q 627 246 600 219 q 667 344 654 272 q 710 335 692 344 q 699 131 710 208 l 79 131 q 65 210 65 160 l 500 924 l 243 924 q 160 897 188 924 q 119 797 133 869 q 76 807 100 797 q 89 1013 76 926 l 693 1013 q 704 960 704 982 q 704 933 704 938 l 269 219 l 544 219 z "},"ž":{"ha":651,"x_min":49,"x_max":585,"o":"m 408 831 l 288 831 l 125 1026 l 164 1060 l 347 917 l 532 1060 l 569 1026 l 408 831 m 411 203 q 497 230 469 203 q 538 331 524 257 q 581 321 561 331 q 581 268 581 313 q 568 131 581 224 l 57 131 q 49 181 49 157 q 54 226 49 206 l 396 696 l 236 696 q 152 668 179 696 q 111 567 125 640 q 67 578 85 567 q 81 767 67 671 l 578 767 q 585 714 585 738 q 579 671 585 690 l 243 203 l 411 203 z "},"ƒ":{"ha":624,"x_min":-60,"x_max":597,"o":"m 493 719 q 597 700 546 719 q 574 621 594 654 q 493 643 531 643 q 375 504 397 643 l 351 361 q 528 374 444 364 q 499 279 517 311 l 338 279 l 289 -17 q 199 -209 268 -140 q 36 -278 131 -278 q -60 -258 -11 -278 q -37 -183 -57 -218 q 36 -201 13 -201 q 103 -111 88 -201 l 167 274 q 85 279 132 279 q 97 333 92 321 q 179 360 131 350 l 193 439 q 299 647 215 574 q 493 719 382 719 z "},"ˆ":{"ha":472,"x_min":14,"x_max":458,"o":"m 458 794 l 421 761 l 236 869 l 53 761 l 14 794 l 200 986 l 272 986 l 458 794 z "},"ˇ":{"ha":472,"x_min":14,"x_max":458,"o":"m 458 961 l 297 765 l 176 765 l 14 961 l 53 994 l 236 851 l 421 994 l 458 961 z "},"˘":{"ha":399,"x_min":14,"x_max":385,"o":"m 329 1006 l 379 1006 q 385 958 385 983 q 334 836 385 883 q 200 789 283 789 q 65 836 117 789 q 14 958 14 883 q 18 1006 14 981 l 68 1006 q 199 908 68 908 q 329 1006 329 908 z "},"˙":{"ha":226,"x_min":14,"x_max":213,"o":"m 213 962 q 213 941 213 962 q 183 891 213 921 q 113 861 154 861 q 43 891 72 861 q 14 962 14 921 q 43 1032 14 1003 q 113 1061 72 1061 q 183 1032 154 1061 q 213 962 213 1003 z "},"˚":{"ha":269,"x_min":-8,"x_max":279,"o":"m 237 949 q 258 934 237 949 q 279 872 279 919 q 237 795 279 825 q 135 765 194 765 q 33 795 75 765 q -8 872 -8 825 q 33 949 -8 919 q 135 978 75 978 q 237 949 194 978 m 135 932 q 98 917 113 932 q 83 872 83 901 q 98 826 83 842 q 135 811 113 811 q 186 872 186 811 q 135 932 186 932 z "},"˛":{"ha":325,"x_min":14,"x_max":311,"o":"m 168 -40 q 232 -100 168 -100 q 296 -87 249 -100 l 311 -124 q 164 -204 246 -204 q 58 -170 101 -204 q 14 -78 14 -136 q 63 31 14 -21 q 213 114 111 83 l 264 85 q 168 -40 168 36 z "},"˜":{"ha":457,"x_min":28,"x_max":442,"o":"m 160 982 q 245 947 192 982 q 326 911 299 911 q 392 974 379 911 l 442 974 q 310 793 425 793 q 224 828 276 793 q 143 864 171 864 q 78 801 90 864 l 28 801 q 160 982 44 982 z "},"˝":{"ha":481,"x_min":14,"x_max":467,"o":"m 14 799 l 121 1042 q 244 1010 190 1038 l 244 988 l 76 785 l 14 799 m 201 800 l 343 1040 q 467 1006 415 1035 l 465 985 l 263 785 l 201 800 z "},"ँ":{"ha":0,"x_min":-500,"x_max":83,"o":"m -329 1361 l -222 1471 l -110 1361 l -218 1253 l -329 1361 m -231 1142 q -28 1307 -114 1142 l 83 1221 q -26 1076 33 1131 q -176 1022 -86 1022 q -500 1249 -353 1022 l -435 1296 q -378 1221 -403 1250 q -314 1167 -354 1192 q -231 1142 -274 1142 z "},"ं":{"ha":0,"x_min":-292,"x_max":-74,"o":"m -292 1157 l -185 1267 l -74 1157 l -182 1050 l -292 1157 z "},"ः":{"ha":433,"x_min":142,"x_max":354,"o":"m 142 574 l 246 681 l 354 574 l 249 468 l 142 574 m 142 203 l 246 310 l 354 203 l 249 97 l 142 203 z "},"अ":{"ha":1068,"x_min":32,"x_max":1172,"o":"m 418 99 q 280 138 344 99 q 167 244 215 178 q 32 494 86 357 l 107 536 q 288 263 206 315 q 369 238 326 238 q 487 281 443 238 q 531 384 531 324 q 488 486 531 444 q 356 421 440 454 l 272 560 q 499 736 499 636 q 476 788 499 767 q 424 810 454 810 q 267 719 349 810 l 158 828 q 372 949 257 949 q 538 858 460 949 q 615 675 615 767 q 564 554 615 613 q 653 526 604 526 q 747 548 701 526 q 808 596 793 569 l 808 817 l 693 817 q 652 876 692 819 q 610 938 613 933 l 1089 938 l 1172 817 l 958 817 l 958 0 l 808 86 l 817 413 q 738 392 785 392 q 632 421 690 392 q 653 329 653 376 q 590 166 653 233 q 418 99 526 99 z "},"आ":{"ha":1411,"x_min":-11,"x_max":1464,"o":"m 1261 817 l 1261 0 l 1111 93 l 1111 817 l 915 817 l 915 0 l 765 86 l 774 413 q 694 392 742 392 q 589 421 647 392 q 610 329 610 376 q 547 166 610 233 q 375 99 483 99 q 237 138 301 99 q 125 244 172 178 q -11 494 43 357 l 64 536 q 244 263 163 315 q 326 238 283 238 q 444 281 400 238 q 488 384 488 324 q 444 486 488 444 q 313 421 397 454 l 229 560 q 456 736 456 636 q 433 788 456 767 q 381 810 411 810 q 224 719 306 810 l 115 828 q 329 949 214 949 q 494 858 417 949 q 572 675 572 767 q 521 554 572 613 q 610 526 561 526 q 704 548 658 526 q 765 596 750 569 l 765 817 l 650 817 q 609 876 649 819 q 567 938 569 933 l 1399 938 l 1464 817 l 1261 817 z "},"इ":{"ha":757,"x_min":-82,"x_max":851,"o":"m 475 450 q 622 374 553 450 q 690 219 690 299 q 610 76 690 139 q 428 -1 531 14 l 597 -185 l 501 -249 l 315 -4 q 167 69 238 15 q 97 175 97 124 q 124 227 97 204 q 185 250 151 250 q 329 126 232 250 q 335 126 332 126 q 502 169 419 126 q 585 274 585 211 q 572 310 585 294 q 540 325 560 325 q 450 298 521 325 q 331 271 379 271 q 175 363 257 271 q 93 536 93 456 q 144 658 93 617 q 272 700 196 700 l 478 700 l 478 817 l 1 817 l -82 938 l 769 938 l 851 817 l 624 817 l 624 561 l 310 561 q 236 535 265 561 q 207 474 207 510 q 223 420 207 439 q 271 401 239 401 q 372 426 303 401 q 475 450 442 450 z "},"ई":{"ha":756,"x_min":-97,"x_max":836,"o":"m 660 1222 q 561 1187 601 1222 q 521 1079 521 1151 q 593 938 521 1007 l 754 938 l 836 817 l 608 817 l 608 561 l 294 561 q 221 535 250 561 q 192 474 192 510 q 208 420 192 439 q 256 401 224 401 q 357 426 288 401 q 460 450 426 450 q 606 374 538 450 q 675 219 675 299 q 595 76 675 139 q 413 -1 515 14 l 582 -185 l 486 -249 l 300 -4 q 151 69 221 15 q 81 175 81 124 q 108 227 81 204 q 169 250 136 250 q 313 126 217 250 q 318 126 315 126 q 485 168 403 126 q 568 274 568 210 q 556 310 568 294 q 525 325 544 325 q 435 298 506 325 q 314 271 364 271 q 160 363 242 271 q 78 536 78 456 q 129 658 78 617 q 256 700 181 700 l 463 700 l 463 817 l -14 817 l -97 938 l 493 938 q 404 1149 404 1036 q 459 1279 404 1231 q 598 1328 514 1328 q 753 1275 682 1328 l 719 1213 q 660 1222 690 1222 z "},"उ":{"ha":732,"x_min":-100,"x_max":847,"o":"m 294 247 q 399 218 339 218 q 502 260 458 218 q 546 365 546 301 q 499 478 546 429 q 329 426 429 442 l 247 564 q 500 721 500 601 q 483 776 500 749 q 440 817 467 804 l -17 817 l -100 938 l 764 938 l 847 817 l 563 817 q 622 669 622 749 q 569 532 622 589 q 669 308 669 440 q 606 144 669 211 q 432 76 542 76 q 320 104 375 76 q 223 174 265 132 q 142 274 181 217 q 33 481 72 379 l 110 528 q 294 247 199 308 z "},"ऊ":{"ha":1013,"x_min":-106,"x_max":1081,"o":"m 738 614 q 781 614 738 614 q 911 522 825 614 q 997 340 997 431 q 938 187 997 249 q 790 92 879 125 l 697 218 q 829 290 783 243 q 875 385 875 338 q 852 456 875 432 q 793 479 829 479 q 615 363 706 479 q 626 308 626 338 q 562 144 626 211 q 388 76 497 76 q 276 106 331 76 q 179 178 221 135 q 100 281 138 221 q -6 485 36 378 l 67 528 q 336 219 192 219 q 455 261 410 219 q 500 367 500 303 q 456 476 500 431 q 294 426 392 443 l 213 565 q 457 721 457 600 q 439 777 457 749 q 393 817 421 806 l -22 817 l -106 938 l 996 938 l 1081 817 l 524 817 q 579 667 579 747 q 528 532 579 588 q 544 514 542 518 q 738 614 650 614 z "},"ऋ":{"ha":1314,"x_min":-99,"x_max":1413,"o":"m 764 817 l 764 522 q 810 514 786 514 q 853 517 835 514 q 885 525 871 519 q 909 535 900 531 q 926 544 918 539 q 936 550 935 550 q 910 627 910 594 q 936 684 910 660 q 1002 708 963 708 q 1085 658 1042 708 q 1128 558 1128 607 q 1081 474 1128 510 l 1185 326 l 1038 199 q 996 128 996 157 q 1018 77 996 99 q 1085 56 1040 56 q 1168 86 1131 56 q 1243 175 1206 117 l 1326 97 q 1260 -1 1310 43 q 1137 -46 1211 -46 q 965 26 1063 -46 q 867 179 867 99 q 915 271 867 233 l 1040 374 l 1004 428 q 890 408 957 408 q 764 433 822 408 l 764 0 l 619 86 l 619 364 l 288 85 l 175 174 l 551 475 q 469 551 518 519 q 369 583 421 583 q 167 499 269 583 l 65 618 q 289 706 175 706 q 447 664 369 706 q 619 508 524 622 l 619 817 l -15 817 l -99 938 l 1329 938 l 1413 817 l 764 817 z "},"ऌ":{"ha":1054,"x_min":-93,"x_max":1165,"o":"m 724 549 q 621 501 653 549 q 589 381 589 454 q 617 236 589 308 l 482 281 q 446 417 446 353 q 458 518 446 482 q 365 546 421 546 q 269 503 308 546 q 229 378 229 460 q 291 216 229 296 q 454 54 353 136 l 379 0 q 88 446 88 251 q 152 613 88 546 q 319 679 217 679 q 499 599 421 679 q 660 676 560 676 q 796 631 728 676 l 796 817 l -10 817 l -93 938 l 1082 938 l 1165 817 l 944 817 l 944 111 q 849 68 885 86 q 776 18 813 50 q 740 -49 740 -14 q 767 -102 740 -83 q 837 -121 794 -121 q 930 -97 879 -121 q 1014 -40 981 -74 l 1108 -128 q 1005 -203 1068 -171 q 881 -236 942 -236 q 701 -152 789 -236 q 613 17 613 -68 q 658 108 613 68 q 744 169 697 142 q 796 200 790 197 l 796 536 q 724 549 758 549 z "},"ऍ":{"ha":793,"x_min":-89,"x_max":886,"o":"m 688 817 l 688 547 q 653 405 688 461 q 547 303 619 349 l 436 414 q 515 477 492 447 q 538 556 538 507 l 538 817 l 275 817 l 275 438 q 285 365 275 386 q 338 313 296 343 l 610 103 q 690 -33 690 43 q 628 -168 690 -108 l 507 -74 q 553 2 553 -31 q 472 97 553 35 q 323 213 467 101 q 152 346 179 325 q 125 419 125 367 l 125 817 l -15 817 l -89 938 l 813 938 l 886 817 l 688 817 m 374 1142 q 575 1307 489 1142 l 686 1221 q 426 1022 578 1022 q 103 1249 246 1022 l 168 1296 q 222 1222 199 1250 q 287 1167 246 1193 q 374 1142 328 1142 z "},"ऎ":{"ha":793,"x_min":-89,"x_max":886,"o":"m 688 817 l 688 547 q 653 405 688 461 q 547 303 619 349 l 436 414 q 515 477 492 447 q 538 556 538 507 l 538 817 l 275 817 l 275 438 q 285 365 275 386 q 338 313 296 343 l 610 103 q 690 -33 690 43 q 628 -168 690 -108 l 507 -74 q 553 2 553 -31 q 472 97 553 35 q 323 213 467 101 q 152 346 179 325 q 125 419 125 367 l 125 817 l -15 817 l -89 938 l 564 938 q 501 1017 543 992 q 368 1043 458 1043 l 306 1043 q 108 1106 169 1043 q 56 1172 75 1138 q 15 1263 38 1206 l 83 1311 q 133 1218 115 1236 q 294 1175 175 1175 l 353 1175 q 567 1113 501 1175 q 663 938 633 1051 l 813 938 l 886 817 l 688 817 z "},"ए":{"ha":783,"x_min":-100,"x_max":875,"o":"m 676 817 l 676 547 q 642 405 676 461 q 536 303 608 349 l 426 414 q 505 477 482 447 q 528 556 528 507 l 528 817 l 264 817 l 264 438 q 274 365 264 386 q 326 313 285 343 l 599 103 q 679 -32 679 43 q 618 -168 679 -107 l 496 -74 q 543 2 543 -29 q 463 97 543 33 q 310 215 453 104 q 147 342 167 326 q 120 373 126 357 q 114 419 114 389 l 114 817 l -26 817 l -100 938 l 801 938 l 875 817 l 676 817 z "},"ऐ":{"ha":793,"x_min":-89,"x_max":886,"o":"m 172 1235 q 309 1279 246 1279 q 427 1249 372 1279 q 526 1163 482 1219 q 599 1057 571 1106 q 660 938 626 1008 l 813 938 l 886 817 l 688 817 l 688 547 q 653 405 688 461 q 547 303 619 349 l 436 414 q 515 477 492 447 q 538 556 538 507 l 538 817 l 275 817 l 275 438 q 285 365 275 386 q 338 313 296 343 l 610 103 q 690 -33 690 43 q 628 -168 690 -108 l 507 -74 q 553 2 553 -31 q 472 97 553 35 q 323 213 467 101 q 152 346 179 325 q 125 419 125 367 l 125 817 l -15 817 l -89 938 l 561 938 q 354 1138 453 1138 q 264 1104 314 1138 l 172 1235 z "},"ऑ":{"ha":1429,"x_min":19,"x_max":1521,"o":"m 1307 817 l 1307 0 l 1157 93 l 1157 817 l 946 817 l 946 0 l 796 86 l 804 413 q 725 392 772 392 q 619 421 678 392 q 640 329 640 376 q 577 166 640 233 q 406 99 514 99 q 267 138 332 99 q 156 244 203 178 q 19 494 74 357 l 94 536 q 275 263 193 315 q 357 238 314 238 q 474 281 431 238 q 518 384 518 324 q 475 486 518 444 q 343 421 428 454 l 260 560 q 486 736 486 636 q 464 788 486 767 q 411 810 442 810 q 254 719 336 810 l 146 828 q 360 949 244 949 q 525 858 447 949 q 603 675 603 767 q 551 554 603 613 q 640 526 592 526 q 735 548 689 526 q 796 596 781 569 l 796 817 l 681 817 q 640 876 679 819 q 597 938 600 933 l 1457 938 l 1521 817 l 1307 817 m 1157 1142 q 1358 1307 1272 1142 l 1469 1221 q 1210 1022 1361 1022 q 886 1249 1029 1022 l 951 1296 q 1006 1222 982 1250 q 1070 1167 1029 1193 q 1157 1142 1111 1142 z "},"ऒ":{"ha":1429,"x_min":19,"x_max":1524,"o":"m 1310 817 l 1310 0 l 1160 93 l 1160 817 l 946 817 l 946 0 l 796 86 l 804 413 q 725 392 772 392 q 619 421 678 392 q 640 329 640 376 q 577 166 640 233 q 406 99 514 99 q 267 138 332 99 q 156 244 203 178 q 19 494 74 357 l 94 536 q 275 263 193 315 q 357 238 314 238 q 474 281 431 238 q 518 384 518 324 q 475 486 518 444 q 343 421 428 454 l 260 560 q 486 736 486 636 q 464 788 486 767 q 411 810 442 810 q 254 719 336 810 l 146 828 q 360 949 244 949 q 525 858 447 949 q 603 675 603 767 q 551 554 603 613 q 640 526 592 526 q 735 548 689 526 q 796 596 781 569 l 796 817 l 681 817 q 640 876 679 819 q 597 938 600 933 l 1174 938 q 1110 1017 1153 992 q 978 1043 1068 1043 l 915 1043 q 717 1106 779 1043 q 666 1172 685 1138 q 625 1263 647 1206 l 693 1311 q 743 1218 725 1236 q 904 1175 785 1175 l 963 1175 q 1177 1113 1111 1175 q 1272 938 1243 1051 l 1460 938 l 1524 817 l 1310 817 z "},"ओ":{"ha":1429,"x_min":19,"x_max":1524,"o":"m 785 1235 q 922 1279 858 1279 q 1040 1249 985 1279 q 1139 1163 1094 1219 q 1211 1057 1183 1106 q 1272 938 1239 1008 l 1460 938 l 1524 817 l 1310 817 l 1310 0 l 1160 93 l 1160 817 l 946 817 l 946 0 l 796 86 l 804 413 q 725 392 772 392 q 619 421 678 392 q 640 329 640 376 q 577 166 640 233 q 406 99 514 99 q 267 138 332 99 q 156 244 203 178 q 19 494 74 357 l 94 536 q 275 263 193 315 q 357 238 314 238 q 474 281 431 238 q 518 384 518 324 q 475 486 518 444 q 343 421 428 454 l 260 560 q 486 736 486 636 q 464 788 486 767 q 411 810 442 810 q 254 719 336 810 l 146 828 q 360 949 244 949 q 525 858 447 949 q 603 675 603 767 q 551 554 603 613 q 640 526 592 526 q 735 548 689 526 q 796 596 781 569 l 796 817 l 681 817 q 640 876 679 819 q 597 938 600 933 l 1174 938 q 967 1138 1065 1138 q 876 1104 926 1138 l 785 1235 z "},"औ":{"ha":1457,"x_min":19,"x_max":1551,"o":"m 913 1342 q 1015 1361 957 1361 q 1126 1319 1072 1361 q 1217 1208 1181 1276 q 1314 938 1282 1083 l 1488 938 l 1551 817 l 1338 817 l 1338 0 l 1188 93 l 1188 817 l 946 817 l 946 0 l 796 86 l 804 413 q 725 392 772 392 q 619 421 678 392 q 640 329 640 376 q 577 166 640 233 q 406 99 514 99 q 267 138 332 99 q 156 244 203 178 q 19 494 74 357 l 94 536 q 275 263 193 315 q 357 238 314 238 q 474 281 431 238 q 518 384 518 324 q 475 486 518 444 q 343 421 428 454 l 260 560 q 486 736 486 636 q 464 788 486 767 q 411 810 442 810 q 254 719 336 810 l 146 828 q 360 949 244 949 q 525 858 447 949 q 603 675 603 767 q 551 554 603 613 q 640 526 592 526 q 735 548 689 526 q 796 596 781 569 l 796 817 l 681 817 q 640 876 679 819 q 597 938 600 933 l 1174 938 q 997 1032 1092 1032 q 907 1007 953 1032 l 814 1125 q 941 1161 865 1161 q 1101 1099 1017 1161 q 1246 949 1186 1038 q 1117 1186 1181 1124 q 1022 1232 1071 1232 q 971 1222 996 1232 l 913 1342 z "},"क":{"ha":1094,"x_min":-111,"x_max":1206,"o":"m 361 167 q 158 273 260 167 q 57 490 57 379 q 118 653 57 600 q 261 707 179 707 q 363 688 315 707 l 408 550 q 320 565 372 565 q 224 530 268 565 q 181 435 181 494 q 220 340 181 376 q 317 303 260 303 q 478 419 425 303 l 478 817 l -28 817 l -111 938 l 1122 938 l 1206 817 l 628 817 q 621 649 625 775 q 754 701 679 701 q 953 588 856 701 q 1050 361 1050 475 q 994 216 1050 274 q 847 158 939 158 q 739 178 790 158 l 700 319 q 801 300 750 300 q 891 332 853 300 q 929 421 929 364 q 894 519 929 478 q 797 560 858 560 q 628 438 692 560 l 628 0 l 478 88 l 483 224 q 361 167 429 167 z "},"ख":{"ha":1069,"x_min":-111,"x_max":1181,"o":"m 99 547 q 185 497 147 497 q 222 539 222 497 l 222 817 l -28 817 l -111 938 l 1097 938 l 1181 817 l 960 817 l 960 0 l 814 88 l 821 186 q 708 103 779 140 q 560 65 636 65 q 413 93 483 65 q 293 159 343 121 q 190 261 243 197 q 106 371 136 325 q 32 486 75 417 l 99 547 m 369 508 q 239 353 369 375 q 361 240 285 286 q 522 193 438 193 q 711 268 640 193 q 528 345 604 281 q 451 514 451 410 q 507 645 451 592 q 639 699 563 699 q 810 628 739 699 l 810 817 l 369 817 l 369 508 m 782 344 q 810 389 796 357 q 825 467 825 421 q 788 547 825 513 q 702 581 751 581 q 622 551 653 581 q 592 474 592 521 q 649 377 592 410 q 771 344 706 344 q 782 344 776 344 z "},"ग":{"ha":725,"x_min":-115,"x_max":842,"o":"m 615 817 l 615 0 l 465 96 l 465 817 l 286 817 l 286 403 q 275 328 286 350 q 238 307 264 307 q 117 378 186 307 q 47 501 47 449 q 140 553 47 553 l 140 817 l -28 817 l -115 938 l 753 938 l 842 817 l 615 817 z "},"घ":{"ha":847,"x_min":-111,"x_max":957,"o":"m 108 819 l 38 817 l -28 817 l -111 938 l 875 938 l 957 817 l 738 817 l 738 0 l 588 92 l 596 235 q 417 156 510 156 q 188 249 293 156 q 82 451 82 342 q 172 588 82 542 q 75 735 75 653 q 108 819 75 789 m 364 485 q 214 390 214 485 q 252 313 214 344 q 356 282 290 282 q 484 327 421 282 q 588 433 547 372 l 588 817 l 297 817 q 240 773 264 807 q 215 696 215 739 q 260 613 215 653 q 338 621 294 621 q 429 608 382 621 l 472 469 q 364 485 411 485 z "},"ङ":{"ha":856,"x_min":-111,"x_max":967,"o":"m 375 129 q 519 174 460 129 q 578 275 578 218 q 565 310 578 296 q 531 324 553 324 q 446 297 510 324 q 343 271 382 271 q 185 359 264 271 q 107 531 107 447 q 154 658 107 615 q 288 701 201 701 l 468 701 l 468 817 l -28 817 l -111 938 l 883 938 l 967 817 l 611 817 l 611 563 l 322 563 q 222 481 222 563 q 240 425 222 447 q 290 403 258 403 q 388 429 321 403 q 488 456 454 456 q 624 373 561 456 q 686 212 686 290 q 610 67 686 133 q 423 0 533 0 q 214 69 313 0 q 54 249 115 139 l 128 300 q 375 129 240 129 m 657 467 l 765 576 l 876 467 l 768 358 l 657 467 z "},"च":{"ha":939,"x_min":-103,"x_max":1042,"o":"m 686 267 q 483 165 590 165 q 276 258 376 165 q 176 454 176 350 q 192 510 176 482 q 232 554 208 539 l 74 549 l -10 672 l 521 672 l 604 550 l 472 550 q 351 498 397 539 q 306 404 306 457 q 340 323 306 351 q 435 294 374 294 q 564 344 497 294 q 681 482 631 394 l 681 817 l -28 817 l -103 938 l 967 938 l 1042 817 l 829 817 l 829 0 l 679 92 l 686 267 z "},"छ":{"ha":981,"x_min":-111,"x_max":1092,"o":"m 471 332 q 363 344 411 344 q 276 324 315 344 q 238 256 238 304 q 281 183 238 208 q 393 157 325 157 q 644 257 540 157 q 489 542 489 397 q 522 657 489 607 q 608 724 556 707 l 608 817 l -28 817 l -111 938 l 1008 938 l 1092 817 l 754 817 l 754 704 q 850 597 814 668 q 886 453 886 526 q 819 238 886 340 q 985 125 914 171 l 915 43 q 841 100 911 46 q 761 163 771 154 q 460 35 633 35 q 215 121 324 35 q 106 324 106 207 q 157 433 106 390 q 64 589 64 513 q 119 707 64 665 q 272 749 175 749 q 389 735 319 749 l 436 601 q 326 614 375 614 q 199 539 199 614 q 242 469 199 506 q 322 478 278 478 q 417 467 365 478 l 471 332 m 618 475 q 706 325 618 397 q 752 411 729 353 q 775 517 775 469 q 715 615 775 615 q 645 574 672 615 q 618 475 618 532 z "},"ज":{"ha":979,"x_min":-111,"x_max":1090,"o":"m 718 515 l 485 515 q 572 322 572 436 q 526 197 572 244 q 394 149 479 149 q 289 176 339 149 q 202 247 239 204 q 131 353 165 289 q 26 596 75 454 l 106 642 q 351 289 213 289 q 447 383 447 289 q 299 622 447 478 l 315 647 l 718 647 l 718 817 l -28 817 l -111 938 l 1007 938 l 1090 817 l 868 817 l 868 0 l 718 92 l 718 515 z "},"झ":{"ha":1042,"x_min":-111,"x_max":1153,"o":"m 792 375 q 713 353 756 353 q 618 367 671 353 q 656 257 656 314 q 581 119 656 179 q 407 38 506 58 l 582 -149 l 486 -211 l 294 38 q 147 110 217 56 q 78 218 78 165 q 105 272 78 249 q 165 294 132 294 q 313 164 211 294 q 475 207 400 165 q 550 311 550 249 q 537 344 550 331 q 499 357 524 357 q 412 331 474 357 q 314 304 350 304 q 160 392 242 304 q 78 561 78 481 q 256 715 78 715 l 443 715 l 443 817 l -28 817 l -111 938 l 1069 938 l 1153 817 l 932 817 l 932 0 l 783 92 l 792 375 m 783 817 l 589 817 l 589 585 l 294 585 q 220 563 250 585 q 190 507 190 542 q 207 453 190 472 q 254 433 224 433 q 348 459 285 433 q 439 485 411 485 q 530 473 467 485 q 653 461 593 461 q 783 535 731 461 l 783 817 z "},"ञ":{"ha":1053,"x_min":-111,"x_max":1164,"o":"m 390 306 q 425 306 390 306 q 506 349 461 306 q 551 469 551 392 q 521 553 551 521 q 439 586 490 586 q 308 510 368 586 l 199 629 q 376 725 289 725 q 644 508 535 725 q 692 497 665 497 q 794 556 753 497 l 794 817 l -28 817 l -111 938 l 1081 938 l 1164 817 l 943 817 l 943 0 l 793 99 l 804 393 q 739 375 769 375 q 667 400 708 375 q 667 382 667 390 q 601 232 667 293 q 442 171 536 171 q 203 279 317 171 q 15 496 107 371 l 83 557 q 250 358 196 403 q 390 306 318 306 z "},"ट":{"ha":719,"x_min":-107,"x_max":826,"o":"m 593 817 l 593 535 l 389 535 q 260 492 311 535 q 210 369 210 450 q 261 243 210 288 q 392 199 313 199 q 607 299 515 199 l 700 174 q 458 61 596 61 q 198 180 319 61 q 76 436 76 299 q 145 608 76 544 q 324 672 214 672 l 443 672 l 443 817 l -28 817 l -107 938 l 747 938 l 826 817 l 593 817 z "},"ठ":{"ha":813,"x_min":-107,"x_max":919,"o":"m 593 817 l 593 589 q 715 471 668 543 q 761 315 761 399 q 686 127 761 199 q 469 56 611 56 q 203 170 328 56 q 79 439 79 285 q 144 610 79 549 q 325 671 208 671 l 444 671 l 444 817 l -28 817 l -107 938 l 840 938 l 919 817 l 593 817 m 629 363 q 518 535 629 475 l 386 535 q 261 492 311 535 q 211 365 211 449 q 274 228 211 282 q 428 174 338 174 q 574 227 518 174 q 629 363 629 281 z "},"ड":{"ha":728,"x_min":-108,"x_max":839,"o":"m 369 129 q 513 174 454 129 q 571 271 571 218 q 524 324 571 324 q 440 297 504 324 q 338 271 376 271 q 180 358 258 271 q 101 542 101 446 q 147 653 101 615 q 281 692 193 692 l 463 692 l 463 817 l -24 817 l -108 938 l 756 938 l 839 817 l 606 817 l 606 563 l 317 563 q 215 481 215 563 q 235 422 215 447 q 287 397 256 397 q 385 424 318 397 q 485 451 451 451 q 619 374 560 451 q 679 218 679 296 q 602 74 679 140 q 414 7 525 7 q 206 74 303 7 q 49 249 108 140 l 122 300 q 369 129 235 129 z "},"ढ":{"ha":740,"x_min":-81,"x_max":851,"o":"m 604 817 l 604 544 l 390 544 q 253 500 306 544 q 200 372 200 456 q 259 233 200 289 q 399 172 318 176 q 344 303 344 235 q 389 419 344 372 q 502 467 433 467 q 638 402 571 467 q 704 254 704 338 q 633 111 704 171 q 468 51 563 51 q 285 100 374 51 q 135 242 197 149 q 72 442 72 336 q 137 613 72 549 q 315 678 201 678 l 454 678 l 454 817 l 3 817 l -81 938 l 768 938 l 851 817 l 604 817 m 556 350 q 534 350 556 350 q 485 318 513 350 q 457 248 457 286 q 481 182 457 210 q 565 231 529 196 q 600 308 600 265 q 556 350 600 350 z "},"ण":{"ha":1033,"x_min":-111,"x_max":1144,"o":"m 924 817 l 924 0 l 774 92 l 774 817 l 593 817 l 593 456 q 542 306 593 361 q 401 250 490 250 q 214 329 311 250 q 121 438 156 376 q 86 557 86 500 l 86 817 l -28 817 l -111 938 l 1061 938 l 1144 817 l 924 817 m 342 372 q 444 499 444 372 l 444 817 l 233 817 l 233 508 q 263 410 233 447 q 342 372 293 372 z "},"त":{"ha":793,"x_min":-111,"x_max":904,"o":"m 683 817 l 683 0 l 538 89 l 538 501 l 356 501 q 249 460 286 501 q 213 351 213 419 q 357 53 213 231 l 281 0 q 137 224 194 106 q 79 439 79 343 q 138 588 79 535 q 308 640 196 640 l 538 640 l 538 817 l -28 817 l -111 938 l 821 938 l 904 817 l 683 817 z "},"थ":{"ha":953,"x_min":144,"x_max":1064,"o":"m 496 546 q 406 485 450 511 q 355 455 361 458 q 342 446 349 451 q 333 439 335 440 q 324 433 331 438 q 316 424 318 428 q 311 417 314 421 q 304 394 304 407 q 342 334 304 357 q 438 311 379 311 q 567 358 496 311 q 693 471 638 404 l 693 817 l 613 817 l 529 938 l 981 938 l 1064 817 l 843 817 l 843 0 l 693 92 l 700 275 q 494 179 607 179 q 339 226 422 179 q 200 343 256 274 q 144 474 144 413 q 171 518 144 503 q 230 549 185 526 q 308 592 275 572 q 378 638 340 611 q 458 751 458 693 q 431 813 458 788 q 365 838 403 838 q 298 813 326 838 q 269 748 269 788 q 307 674 269 708 l 240 629 q 150 799 150 715 q 201 906 150 864 q 319 949 253 949 q 499 859 418 949 q 581 690 581 769 q 496 546 581 610 z "},"द":{"ha":747,"x_min":-101,"x_max":849,"o":"m 594 544 l 386 544 q 201 392 201 544 q 252 267 201 317 q 376 217 303 217 q 457 239 429 217 l 467 246 q 438 331 438 290 q 471 399 438 371 q 547 428 504 428 q 634 372 590 428 q 678 269 678 315 q 618 167 678 224 l 761 -4 l 674 -64 l 550 121 q 433 90 496 90 q 188 203 306 90 q 71 456 71 317 q 134 619 71 556 q 322 682 197 682 l 446 682 l 446 817 l -28 817 l -101 938 l 775 938 l 849 817 l 594 817 l 594 544 z "},"ध":{"ha":842,"x_min":-111,"x_max":953,"o":"m 110 819 l 25 817 l -28 817 l -111 938 l 346 938 l 429 817 l 301 817 q 243 773 267 807 q 219 699 219 739 q 267 621 219 658 q 319 624 286 624 q 428 613 353 624 l 472 465 q 349 485 401 485 q 255 463 296 485 q 214 394 214 442 q 249 316 214 346 q 342 286 285 286 q 582 435 465 286 l 582 817 l 528 817 l 444 938 l 869 938 l 953 817 l 732 817 l 732 0 l 583 92 l 589 240 q 392 164 500 164 q 184 254 285 164 q 83 463 83 344 q 109 541 83 506 q 176 596 135 576 q 76 735 76 661 q 110 819 76 786 z "},"न":{"ha":754,"x_min":-111,"x_max":865,"o":"m 500 450 l 276 450 l 276 336 q 265 301 276 315 q 233 288 254 288 q 119 369 183 288 q 54 511 54 451 q 147 583 54 583 l 500 583 l 500 817 l -28 817 l -111 938 l 782 938 l 865 817 l 644 817 l 644 0 l 500 89 l 500 450 z "},"ऩ":{"ha":763,"x_min":-100,"x_max":872,"o":"m 507 450 l 283 450 l 283 336 q 272 301 283 315 q 240 288 261 288 q 126 369 190 288 q 61 511 61 451 q 156 583 61 583 l 507 583 l 507 817 l -17 817 l -100 938 l 789 938 l 872 817 l 651 817 l 651 0 l 507 89 l 507 450 m 326 43 l 215 -69 l 100 43 l 211 156 l 326 43 z "},"प":{"ha":750,"x_min":-111,"x_max":861,"o":"m 640 817 l 640 0 l 493 92 l 503 332 q 389 292 436 292 q 197 390 303 292 q 92 589 92 489 l 92 817 l -28 817 l -111 938 l 778 938 l 861 817 l 640 817 m 240 528 q 267 449 240 476 q 338 421 293 421 q 426 449 383 421 q 492 517 468 478 l 492 817 l 240 817 l 240 528 z "},"फ":{"ha":1101,"x_min":-110,"x_max":1213,"o":"m 376 299 q 188 403 293 299 q 82 606 82 507 l 82 817 l -28 817 l -110 938 l 1129 938 l 1213 817 l 619 817 l 618 622 q 751 665 674 665 q 948 556 846 665 q 1050 342 1050 446 q 994 182 1050 238 q 842 126 939 126 q 749 138 801 126 l 699 282 q 796 267 743 267 q 885 299 849 267 q 922 391 922 332 q 887 490 922 450 q 796 529 851 529 q 621 414 683 529 l 621 0 l 469 92 l 479 332 q 376 299 428 299 m 324 431 q 471 518 407 431 l 471 817 l 231 817 l 231 540 q 256 460 231 490 q 324 431 281 431 z "},"ब":{"ha":818,"x_min":-111,"x_max":929,"o":"m 708 817 l 708 0 l 557 100 l 564 279 q 477 215 533 244 q 365 186 421 186 q 156 280 253 186 q 58 481 58 374 q 131 655 58 589 q 292 721 204 721 q 510 611 415 721 l 460 544 q 339 603 401 603 q 265 582 303 603 l 468 363 q 560 468 515 403 l 557 817 l -28 817 l -111 938 l 846 938 l 929 817 l 708 817 m 175 436 q 175 408 175 436 q 217 338 175 379 q 310 296 260 296 q 406 321 360 296 l 207 535 q 175 436 175 493 z "},"भ":{"ha":800,"x_min":-110,"x_max":910,"o":"m 690 817 l 690 0 l 540 93 l 540 388 l 299 388 l 299 306 q 256 260 299 260 q 131 338 208 260 q 53 471 53 417 q 75 512 53 499 q 151 525 97 525 l 151 740 q 131 795 151 774 q 78 817 111 817 l -28 817 l -110 938 l 31 938 q 168 886 108 938 l 238 825 q 296 683 296 771 l 296 525 l 540 525 l 540 817 l 400 817 l 318 938 l 828 938 l 910 817 l 690 817 z "},"म":{"ha":824,"x_min":-107,"x_max":931,"o":"m 144 524 l 154 524 l 154 817 l -28 817 l -107 938 l 851 938 l 931 817 l 714 817 l 714 0 l 564 93 l 564 385 l 299 385 l 299 303 q 257 258 299 258 q 132 334 210 258 q 54 464 54 410 q 144 524 54 524 m 299 817 l 299 524 l 564 524 l 564 817 l 299 817 z "},"य":{"ha":840,"x_min":-111,"x_max":951,"o":"m 731 817 l 731 0 l 581 93 l 586 281 q 411 199 504 199 q 258 255 342 199 q 117 388 174 311 q 60 519 60 464 q 88 563 60 550 q 243 653 206 622 q 281 710 281 683 q 260 768 281 736 q 207 817 239 800 l -28 817 l -111 938 l 868 938 l 951 817 l 731 817 m 351 338 q 582 492 492 338 l 582 817 l 335 817 q 401 735 375 785 q 428 651 428 685 q 410 591 428 617 q 376 553 393 565 q 317 514 358 540 q 263 478 276 488 q 242 464 250 469 q 222 432 222 449 q 264 365 222 393 q 351 338 306 338 z "},"र":{"ha":553,"x_min":-111,"x_max":663,"o":"m 397 817 l 397 493 q 364 408 397 444 q 267 356 331 372 q 529 50 344 246 l 429 -4 q 57 485 185 292 l 132 551 q 215 499 188 499 q 247 538 247 499 l 247 817 l -28 817 l -111 938 l 581 938 l 663 817 l 397 817 z "},"ऱ":{"ha":553,"x_min":-111,"x_max":663,"o":"m 397 817 l 397 493 q 364 408 397 444 q 267 356 331 372 q 529 50 344 246 l 429 -4 q 57 485 185 292 l 132 551 q 215 499 188 499 q 247 538 247 499 l 247 817 l -28 817 l -111 938 l 581 938 l 663 817 l 397 817 m 31 4 l 138 114 l 250 4 l 140 -103 l 31 4 z "},"ल":{"ha":1038,"x_min":-111,"x_max":1149,"o":"m 465 281 q 428 417 428 351 q 442 518 428 483 q 347 546 404 546 q 251 503 290 546 q 211 378 211 460 q 273 217 211 296 q 436 54 335 138 l 361 0 q 69 446 69 251 q 134 613 69 546 q 301 679 199 679 q 481 599 403 679 q 642 676 542 676 q 778 631 708 676 l 778 817 l -28 817 l -111 938 l 1065 938 l 1149 817 l 928 817 l 928 0 l 778 93 l 778 536 q 707 549 743 549 q 603 501 636 549 q 571 381 571 453 q 599 236 571 308 l 465 281 z "},"ळ":{"ha":1049,"x_min":-111,"x_max":1160,"o":"m 538 232 q 369 126 469 126 q 169 234 269 126 q 69 447 69 342 q 143 628 69 551 q 319 706 217 706 q 535 597 422 706 q 676 704 594 693 l 676 817 l -28 817 l -111 938 l 1076 938 l 1160 817 l 822 817 l 822 665 q 948 541 893 624 q 1003 386 1003 458 q 930 203 1003 281 q 753 126 857 126 q 538 232 650 126 m 493 517 q 365 572 431 572 q 251 522 300 572 q 203 400 203 471 q 235 294 203 329 q 315 260 267 260 q 396 303 364 260 q 459 429 428 347 q 493 517 490 511 m 578 310 q 708 256 643 256 q 822 308 772 256 q 871 431 871 361 q 839 536 871 500 q 761 572 807 572 q 658 497 699 572 q 578 310 635 454 z "},"ऴ":{"ha":1049,"x_min":-111,"x_max":1160,"o":"m 538 232 q 369 126 469 126 q 169 234 269 126 q 69 447 69 342 q 143 628 69 551 q 319 706 217 706 q 535 597 422 706 q 676 704 594 693 l 676 817 l -28 817 l -111 938 l 1076 938 l 1160 817 l 822 817 l 822 665 q 948 541 893 624 q 1003 386 1003 458 q 930 203 1003 281 q 753 126 857 126 q 538 232 650 126 m 493 517 q 365 572 431 572 q 251 522 300 572 q 203 400 203 471 q 235 294 203 329 q 315 260 267 260 q 396 303 364 260 q 459 429 428 347 q 493 517 490 511 m 578 310 q 708 256 643 256 q 822 308 772 256 q 871 431 871 361 q 839 536 871 500 q 761 572 807 572 q 658 497 699 572 q 578 310 635 454 m 636 -74 l 743 36 l 856 -74 l 746 -181 l 636 -74 z "},"व":{"ha":813,"x_min":-111,"x_max":924,"o":"m 703 817 l 703 0 l 550 100 l 557 265 q 365 174 468 174 q 160 274 261 174 q 60 487 60 374 q 127 665 60 600 q 281 729 194 729 q 508 606 404 729 l 467 538 q 346 596 411 596 q 235 542 281 596 q 190 429 190 489 q 222 335 190 369 q 312 300 254 300 q 436 351 369 300 q 554 482 503 403 l 550 817 l -28 817 l -111 938 l 840 938 l 924 817 l 703 817 z "},"श":{"ha":1014,"x_min":85,"x_max":1111,"o":"m 294 469 q 447 526 389 469 q 504 676 504 582 q 474 776 504 736 q 399 815 444 815 q 328 788 354 815 q 303 717 303 761 q 394 613 303 649 l 350 549 q 220 631 281 572 q 160 765 160 690 q 211 895 160 840 q 339 950 263 950 q 538 840 450 950 q 626 610 626 729 q 542 410 626 490 q 326 331 458 331 q 579 61 404 238 l 483 0 q 85 479 179 347 l 157 543 q 294 469 233 469 m 904 817 l 904 0 l 754 92 l 754 817 l 650 817 l 581 938 l 1042 938 l 1111 817 l 904 817 z "},"ष":{"ha":772,"x_min":-107,"x_max":883,"o":"m 663 817 l 663 0 l 513 93 l 522 322 q 389 278 458 278 q 196 374 294 278 q 90 575 97 469 l 90 817 l -24 817 l -107 938 l 800 938 l 883 817 l 663 817 m 347 394 q 486 453 424 394 l 236 714 l 236 508 q 269 425 236 456 q 347 394 303 394 m 513 817 l 250 817 l 513 529 l 513 817 z "},"स":{"ha":914,"x_min":-100,"x_max":1025,"o":"m 565 354 q 354 440 465 354 q 244 357 333 374 q 496 57 338 221 l 394 -1 q 28 485 168 272 l 101 551 q 185 499 158 499 q 217 538 217 499 l 217 817 l -17 817 l -100 938 l 942 938 l 1025 817 l 804 817 l 804 0 l 658 92 l 665 386 q 565 354 622 354 m 365 817 l 365 542 q 501 486 428 486 q 658 549 600 486 l 658 817 l 365 817 z "},"ह":{"ha":708,"x_min":-97,"x_max":819,"o":"m 404 140 q 494 203 463 164 q 525 274 525 243 q 446 336 525 336 q 305 288 367 336 q 243 165 243 239 q 558 -144 243 8 l 478 -204 q 103 214 103 17 q 183 388 103 311 q 81 576 81 486 q 122 674 81 640 q 240 707 164 707 l 449 707 l 449 817 l -14 817 l -97 938 l 736 938 l 819 817 l 594 817 l 594 576 l 321 576 q 222 510 222 576 q 260 436 222 474 q 375 464 318 464 q 568 383 492 464 q 644 206 644 301 q 611 105 644 153 q 511 26 578 57 l 404 140 z "},"़":{"ha":0,"x_min":-678,"x_max":-458,"o":"m -678 -25 l -571 85 l -458 -25 l -568 -132 l -678 -25 z "},"ऽ":{"ha":844,"x_min":63,"x_max":707,"o":"m 564 486 q 696 256 696 363 q 627 76 696 150 q 440 1 558 1 q 218 77 322 1 q 63 238 114 153 l 131 303 q 243 185 176 233 q 392 136 310 136 q 513 178 475 136 q 550 275 550 219 q 461 433 550 354 l 257 625 q 158 810 158 717 q 204 901 158 865 q 325 938 250 938 l 635 938 l 707 817 l 393 814 q 342 797 361 814 q 322 749 322 779 q 403 629 322 703 l 564 486 z "},"ा":{"ha":369,"x_min":-97,"x_max":463,"o":"m 260 817 l 260 0 l 110 93 l 110 817 l -32 817 l -97 938 l 397 938 l 463 817 l 260 817 z "},"ि":{"ha":369,"x_min":-114,"x_max":1003,"o":"m 110 817 l -40 817 l -114 938 l 110 938 q 53 1082 53 1001 q 143 1243 53 1190 q 358 1296 233 1296 q 709 1224 542 1296 q 1003 1039 876 1153 l 946 989 q 702 1114 840 1068 q 435 1160 564 1160 q 194 1026 194 1160 q 209 974 194 999 q 244 938 224 950 l 410 938 l 483 817 l 260 817 l 260 0 l 110 93 l 110 817 z "},"ी":{"ha":369,"x_min":-358,"x_max":493,"o":"m 260 817 l 260 0 l 110 99 l 110 817 l -40 817 l -125 938 l 133 938 q 40 1097 81 1046 q -41 1171 -1 1149 q -124 1193 -81 1193 q -193 1173 -167 1193 q -219 1118 -219 1153 q -158 1025 -219 1057 l -236 979 q -319 1047 -281 1001 q -358 1160 -358 1093 q -306 1274 -358 1228 q -175 1321 -253 1321 q -31 1283 -97 1321 q 86 1179 35 1246 q 168 1060 138 1113 q 232 938 199 1007 l 410 938 l 493 817 l 260 817 z "},"ु":{"ha":0,"x_min":-606,"x_max":6,"o":"m -364 -51 q -328 53 -364 6 q -215 100 -292 100 q -66 21 -137 100 q 6 -133 6 -58 q -55 -266 6 -207 q -221 -325 -115 -325 q -429 -254 -326 -325 q -606 -83 -532 -183 l -540 -35 q -272 -204 -401 -204 q -157 -167 -204 -204 q -110 -76 -110 -129 q -125 -33 -110 -50 q -171 -15 -140 -15 q -224 -49 -201 -15 q -250 -132 -247 -82 l -364 -64 q -364 -51 -364 -57 z "},"ू":{"ha":0,"x_min":-444,"x_max":178,"o":"m -321 -143 q -302 -192 -321 -174 q -254 -211 -283 -211 q -169 -107 -187 -211 l -50 -181 q -204 -326 -76 -326 q -365 -247 -286 -326 q -444 -87 -444 -168 q -385 47 -444 -6 q -242 100 -326 100 q 178 -235 -32 100 l 115 -290 q -197 -31 -57 -31 q -283 -61 -244 -31 q -321 -143 -321 -92 z "},"ृ":{"ha":0,"x_min":-437,"x_max":67,"o":"m -263 -69 q -275 -80 -263 -69 q -300 -110 -287 -90 q -312 -159 -312 -131 q -283 -210 -312 -187 q -212 -233 -253 -233 q -40 -149 -111 -233 l 67 -239 q -27 -316 33 -281 q -156 -351 -87 -351 q -347 -269 -256 -351 q -437 -103 -437 -187 q -372 18 -437 -35 q -257 94 -325 57 l -110 6 l -110 0 q -263 -69 -239 -47 z "},"ॅ":{"ha":0,"x_min":-503,"x_max":81,"o":"m -232 1142 q -31 1307 -117 1142 l 81 1221 q -30 1077 31 1132 q -181 1022 -90 1022 q -503 1249 -362 1022 l -437 1296 q -344 1183 -392 1225 q -232 1142 -297 1142 z "},"ॆ":{"ha":0,"x_min":-793,"x_max":-142,"o":"m -437 1043 l -501 1043 q -690 1094 -632 1043 q -793 1263 -747 1144 l -725 1311 q -646 1194 -683 1210 q -512 1175 -594 1175 l -454 1175 q -197 1064 -267 1175 q -164 997 -174 1026 q -142 922 -154 968 l -229 889 q -251 955 -243 935 q -281 1000 -260 975 q -340 1034 -303 1025 q -437 1043 -378 1043 z "},"े":{"ha":0,"x_min":-642,"x_max":-129,"o":"m -642 1235 q -513 1279 -568 1279 q -417 1264 -458 1279 q -340 1215 -375 1249 q -278 1151 -304 1182 q -222 1069 -251 1121 q -129 885 -157 956 l -206 846 q -340 1072 -294 1024 q -395 1117 -362 1096 q -464 1138 -428 1138 q -550 1104 -500 1138 l -642 1235 z "},"ै":{"ha":0,"x_min":-635,"x_max":-122,"o":"m -536 1342 q -436 1361 -492 1361 q -331 1325 -381 1361 q -247 1237 -281 1289 q -186 1114 -214 1185 q -122 875 -144 1004 l -212 856 q -339 992 -253 931 q -446 1032 -396 1032 q -542 1007 -496 1032 l -635 1125 q -507 1161 -583 1161 q -342 1096 -431 1161 q -196 938 -254 1031 q -426 1232 -308 1232 q -478 1222 -453 1232 l -536 1342 z "},"ॉ":{"ha":401,"x_min":-110,"x_max":496,"o":"m 282 817 l 282 0 l 132 93 l 132 817 l -22 817 l -87 938 l 432 938 l 496 817 l 282 817 m 161 1142 q 363 1307 276 1142 l 474 1221 q 365 1077 425 1132 q 215 1022 304 1022 q -110 1249 38 1022 l -44 1296 q 52 1183 4 1224 q 161 1142 100 1142 z "},"ॊ":{"ha":401,"x_min":-401,"x_max":496,"o":"m 282 817 l 282 0 l 132 93 l 132 817 l -22 817 l -87 938 l 149 938 q 85 1017 126 992 q -47 1043 43 1043 l -111 1043 q -308 1106 -249 1043 q -359 1172 -340 1139 q -401 1263 -378 1206 l -333 1311 q -283 1218 -301 1236 q -122 1175 -242 1175 l -64 1175 q 161 1103 93 1175 q 214 1029 196 1067 q 247 938 232 992 l 432 938 l 496 817 l 282 817 z "},"ो":{"ha":388,"x_min":-258,"x_max":488,"o":"m 274 817 l 274 0 l 124 93 l 124 817 l -31 817 l -96 938 l 131 938 q -76 1138 25 1138 q -167 1104 -117 1138 l -258 1235 q -121 1279 -185 1279 q -2 1249 -57 1279 q 97 1163 53 1219 q 229 938 169 1068 l 424 938 l 488 817 l 274 817 z "},"ौ":{"ha":388,"x_min":-253,"x_max":475,"o":"m 274 817 l 274 0 l 124 93 l 124 817 l -18 817 l -83 938 l 108 938 q -69 1032 24 1032 q -158 1007 -112 1032 l -253 1125 q -124 1161 -200 1161 q 40 1096 -47 1161 q 186 938 128 1031 q -43 1232 81 1232 q -94 1222 -69 1232 l -153 1342 q -58 1361 -110 1361 q 40 1333 -6 1361 q 118 1260 86 1304 q 178 1157 150 1217 q 249 938 221 1060 l 411 938 l 475 817 l 274 817 z "},"्":{"ha":0,"x_min":-378,"x_max":94,"o":"m -378 -87 q -278 -56 -326 -56 q -188 -72 -229 -56 q -120 -106 -147 -89 q -53 -166 -93 -124 q 0 -225 -14 -208 q 53 -294 14 -242 q 94 -350 92 -346 l 25 -399 q -8 -353 21 -394 q -54 -294 -37 -312 q -100 -244 -71 -275 q -225 -189 -157 -189 q -296 -206 -261 -189 l -378 -87 z "},"ॐ":{"ha":1608,"x_min":0,"x_max":0,"o":""},"॑":{"ha":415,"x_min":150,"x_max":267,"o":"m 267 1018 l 150 1018 l 150 1328 l 267 1328 l 267 1018 z "},"॒":{"ha":0,"x_min":-687,"x_max":-128,"o":"m -128 -168 l -128 -272 l -687 -272 l -687 -168 l -128 -168 z "},"॓":{"ha":576,"x_min":133,"x_max":447,"o":"m 447 1094 l 354 1024 l 133 1296 l 228 1369 l 447 1094 z "},"॔":{"ha":606,"x_min":165,"x_max":444,"o":"m 229 1028 l 165 1075 l 386 1349 l 444 1304 l 229 1028 z "},"क़":{"ha":1103,"x_min":-100,"x_max":1217,"o":"m 372 167 q 169 273 271 167 q 68 490 68 379 q 129 653 68 600 q 272 707 190 707 q 374 688 326 707 l 419 550 q 331 565 383 565 q 235 530 279 565 q 192 435 192 494 q 231 340 192 376 q 328 303 271 303 q 489 419 436 303 l 489 817 l -17 817 l -100 938 l 1133 938 l 1217 817 l 639 817 q 632 649 636 775 q 765 701 690 701 q 964 588 867 701 q 1061 361 1061 475 q 1006 216 1061 274 q 858 158 950 158 q 750 178 801 158 l 711 319 q 813 300 761 300 q 902 332 864 300 q 940 421 940 364 q 905 519 940 478 q 808 560 869 560 q 639 438 703 560 l 639 0 l 489 88 l 494 224 q 372 167 440 167 m 156 -25 l 263 85 l 375 -25 l 265 -132 l 156 -25 z "},"ख़":{"ha":1101,"x_min":-107,"x_max":1185,"o":"m 103 547 q 188 497 150 497 q 226 539 226 497 l 226 817 l -24 817 l -107 938 l 1101 938 l 1185 817 l 964 817 l 964 0 l 818 88 l 825 186 q 712 103 783 140 q 564 65 640 65 q 417 93 488 65 q 297 159 347 121 q 194 261 247 197 q 110 371 140 325 q 36 486 79 417 l 103 547 m 374 508 q 243 353 374 375 q 365 240 289 286 q 526 193 442 193 q 715 268 644 193 q 532 345 608 281 q 456 514 456 410 q 511 645 456 592 q 643 699 567 699 q 814 628 743 699 l 814 817 l 374 817 l 374 508 m 786 344 q 815 389 800 357 q 829 467 829 421 q 792 547 829 513 q 706 581 756 581 q 626 551 657 581 q 596 474 596 521 q 653 377 596 410 q 775 344 710 344 q 786 344 781 344 m 103 -25 l 210 85 l 322 -25 l 213 -132 l 103 -25 z "},"ग़":{"ha":756,"x_min":-100,"x_max":857,"o":"m 631 817 l 631 0 l 481 96 l 481 817 l 301 817 l 301 403 q 290 328 301 350 q 253 307 279 307 q 132 378 201 307 q 63 501 63 449 q 156 553 63 553 l 156 817 l -12 817 l -100 938 l 768 938 l 857 817 l 631 817 m 122 17 l 229 126 l 342 17 l 232 -90 l 122 17 z "},"ज़":{"ha":996,"x_min":-110,"x_max":1092,"o":"m 719 515 l 486 515 q 574 322 574 436 q 527 197 574 244 q 396 149 481 149 q 290 176 340 149 q 203 247 240 204 q 132 353 167 289 q 28 596 76 454 l 107 642 q 353 289 214 289 q 449 383 449 289 q 300 622 449 478 l 317 647 l 719 647 l 719 817 l -26 817 l -110 938 l 1008 938 l 1092 817 l 869 817 l 869 0 l 719 92 l 719 515 m 93 -24 l 200 86 l 313 -24 l 203 -131 l 93 -24 z "},"ड़":{"ha":719,"x_min":-112,"x_max":835,"o":"m 365 129 q 508 174 450 129 q 567 271 567 218 q 519 324 567 324 q 436 297 500 324 q 333 271 372 271 q 176 358 254 271 q 97 542 97 446 q 143 653 97 615 q 276 692 189 692 l 458 692 l 458 817 l -28 817 l -112 938 l 751 938 l 835 817 l 601 817 l 601 563 l 313 563 q 211 481 211 563 q 231 422 211 447 q 283 397 251 397 q 381 424 314 397 q 481 451 447 451 q 615 374 556 451 q 675 218 675 296 q 598 74 675 140 q 410 7 521 7 q 201 74 299 7 q 44 249 104 140 l 118 300 q 365 129 231 129 m 306 -190 l 413 -81 l 525 -190 l 415 -297 l 306 -190 z "},"ढ़":{"ha":740,"x_min":-81,"x_max":851,"o":"m 604 817 l 604 544 l 390 544 q 253 500 306 544 q 200 372 200 456 q 259 233 200 289 q 399 172 318 176 q 344 303 344 235 q 389 419 344 372 q 502 467 433 467 q 638 402 571 467 q 704 254 704 338 q 633 111 704 171 q 468 51 563 51 q 285 100 374 51 q 135 242 197 149 q 72 442 72 336 q 137 613 72 549 q 315 678 201 678 l 454 678 l 454 817 l 3 817 l -81 938 l 768 938 l 851 817 l 604 817 m 556 350 q 534 350 556 350 q 485 318 513 350 q 457 248 457 286 q 481 182 457 210 q 565 231 529 196 q 600 308 600 265 q 556 350 600 350 m 351 -144 l 458 -35 l 571 -144 l 461 -251 l 351 -144 z "},"फ़":{"ha":1101,"x_min":-110,"x_max":1213,"o":"m 376 299 q 188 403 293 299 q 82 606 82 507 l 82 817 l -28 817 l -110 938 l 1129 938 l 1213 817 l 619 817 l 618 622 q 751 665 674 665 q 948 556 846 665 q 1050 342 1050 446 q 994 182 1050 238 q 842 126 939 126 q 749 138 801 126 l 699 282 q 796 267 743 267 q 885 299 849 267 q 922 391 922 332 q 887 490 922 450 q 796 529 851 529 q 621 414 683 529 l 621 0 l 469 92 l 479 332 q 376 299 428 299 m 324 431 q 471 518 407 431 l 471 817 l 231 817 l 231 540 q 256 460 231 490 q 324 431 281 431 m 144 44 l 251 154 l 364 44 l 254 -62 l 144 44 z "},"य़":{"ha":849,"x_min":-129,"x_max":933,"o":"m 713 817 l 713 0 l 563 93 l 568 281 q 393 199 486 199 q 240 255 324 199 q 99 388 156 311 q 42 519 42 464 q 69 563 42 550 q 225 653 188 622 q 263 710 263 683 q 242 768 263 736 q 189 817 221 800 l -46 817 l -129 938 l 850 938 l 933 817 l 713 817 m 333 338 q 564 492 474 338 l 564 817 l 317 817 q 383 735 357 785 q 410 651 410 685 q 392 591 410 617 q 358 553 375 565 q 299 514 340 540 q 245 478 258 488 q 225 464 232 469 q 204 432 204 449 q 246 365 204 393 q 333 338 288 338 m 101 -6 l 208 104 l 321 -6 l 211 -112 l 101 -6 z "},"ॠ":{"ha":1239,"x_min":-114,"x_max":1354,"o":"m 961 440 q 817 406 896 406 q 682 432 739 406 l 682 -1 l 532 93 l 532 343 l 261 114 l 146 200 l 525 474 q 433 548 486 517 q 329 579 381 579 q 135 493 238 579 l 42 611 q 278 704 149 704 q 532 567 407 704 l 532 817 l -26 817 l -114 938 l 1265 938 l 1354 817 l 682 817 l 682 518 q 744 511 703 511 q 878 544 836 511 q 846 627 846 589 q 874 689 846 665 q 942 713 903 713 q 1028 666 981 713 q 1075 564 1075 619 q 1032 489 1075 528 q 1099 417 1074 446 q 1153 333 1124 389 q 1182 228 1182 278 q 1127 96 1182 151 q 988 40 1072 40 q 750 147 857 40 l 804 208 q 922 160 857 160 q 1018 188 988 160 q 1049 264 1049 215 q 961 440 1049 342 z "},"ॡ":{"ha":1038,"x_min":-111,"x_max":1217,"o":"m 952 -204 q 922 -217 952 -204 q 863 -256 892 -229 q 833 -320 833 -283 q 863 -378 833 -357 q 931 -399 892 -399 q 1110 -314 1031 -399 l 1217 -404 q 1120 -481 1183 -444 q 990 -517 1057 -517 q 799 -437 889 -517 q 708 -272 708 -357 q 749 -178 708 -225 q 640 -86 683 -143 q 596 28 596 -29 q 661 147 596 96 q 779 224 713 188 l 779 536 q 707 549 742 549 q 604 501 636 549 q 572 381 572 454 q 600 236 572 308 l 465 281 q 429 417 429 353 q 442 518 429 482 q 348 546 404 546 q 252 503 292 546 q 213 378 213 460 q 274 216 213 296 q 438 54 336 136 l 363 0 q 71 446 71 251 q 135 613 71 546 q 302 679 200 679 q 482 599 404 679 q 643 676 543 676 q 779 631 711 676 l 779 817 l -28 817 l -111 938 l 1067 938 l 1150 817 l 928 817 l 928 131 q 738 29 771 76 q 721 -26 721 6 q 750 -78 721 -57 q 818 -99 779 -99 q 960 -36 900 -99 l 1065 -107 q 1056 -132 1063 -111 q 1039 -161 1050 -153 l 1019 -175 q 952 -204 1013 -179 z "},"।":{"ha":485,"x_min":167,"x_max":317,"o":"m 317 833 l 317 3 l 167 97 l 167 928 l 317 833 z "},"॥":{"ha":822,"x_min":167,"x_max":690,"o":"m 317 833 l 317 3 l 167 96 l 167 928 l 317 833 m 690 833 l 690 3 l 540 96 l 540 928 l 690 833 z "},"०":{"ha":914,"x_min":139,"x_max":781,"o":"m 471 810 q 276 413 276 810 q 326 189 276 278 q 456 100 376 100 q 590 203 535 100 q 644 507 644 307 q 597 731 644 651 q 471 810 549 810 m 663 822 q 748 668 715 768 q 781 446 781 568 q 752 233 781 324 q 678 92 724 143 q 481 -10 586 -10 q 269 94 379 -10 q 176 253 214 147 q 139 492 139 360 q 170 714 139 624 q 250 849 201 804 q 435 932 342 932 q 663 822 557 932 z "},"१":{"ha":649,"x_min":94,"x_max":601,"o":"m 507 -3 q 564 -113 564 -56 q 506 -229 564 -171 l 392 -142 q 432 -69 432 -106 q 383 14 432 -32 l 160 226 q 119 301 119 264 q 167 360 119 326 q 228 402 186 374 q 293 447 269 431 q 352 491 317 464 q 408 538 388 518 q 449 583 428 558 q 489 685 489 632 q 454 779 489 739 q 362 819 419 819 q 267 783 304 819 q 229 694 229 747 q 315 564 229 622 l 264 514 q 149 610 204 547 q 94 751 94 672 q 156 885 94 829 q 297 940 218 940 q 506 833 411 940 q 601 614 601 725 q 559 506 601 563 q 478 416 517 449 q 387 343 439 383 q 331 300 335 303 q 321 292 326 297 q 310 283 315 288 q 281 237 281 261 q 310 185 281 213 l 507 -3 z "},"२":{"ha":729,"x_min":64,"x_max":657,"o":"m 64 844 q 344 933 224 933 q 561 813 465 933 q 657 560 657 692 q 576 389 657 468 q 386 274 494 310 l 629 -97 l 531 -158 l 292 251 q 240 247 267 247 q 150 301 196 247 q 104 411 104 356 q 142 472 104 447 q 217 496 181 496 q 318 397 261 496 q 482 483 411 421 q 553 623 553 544 q 501 748 553 701 q 375 794 449 794 q 140 717 261 794 l 64 844 z "},"३":{"ha":744,"x_min":75,"x_max":664,"o":"m 301 -7 q 157 70 222 15 q 92 167 92 125 q 122 242 92 208 q 183 276 153 276 q 240 253 214 276 q 285 201 265 229 q 340 114 304 172 q 478 176 415 122 q 542 308 542 231 q 520 392 542 351 q 474 450 499 432 q 307 371 413 408 l 235 490 l 236 496 q 496 700 496 574 q 463 781 496 749 q 374 814 429 814 q 172 710 265 814 l 75 811 q 324 933 190 933 q 513 842 428 933 q 599 665 599 750 q 536 506 599 581 q 626 397 589 463 q 664 251 664 332 q 590 96 664 169 q 406 -1 517 22 l 539 -197 l 446 -257 l 301 -7 z "},"४":{"ha":863,"x_min":28,"x_max":792,"o":"m 681 188 q 622 54 681 114 q 467 -6 564 -6 q 275 92 369 -6 q 181 281 181 190 q 249 426 181 350 l 344 536 l 28 886 l 97 942 l 403 603 l 685 933 l 792 847 l 503 499 l 557 439 q 681 188 681 303 m 311 242 q 303 194 303 219 q 319 144 303 169 q 408 100 347 100 q 512 140 468 100 q 556 244 556 181 q 538 314 556 278 q 501 373 519 350 q 449 431 482 396 l 389 364 q 311 242 311 278 z "},"५":{"ha":861,"x_min":124,"x_max":736,"o":"m 736 446 q 453 -4 736 -4 q 415 0 444 -4 l 561 -210 l 479 -264 l 314 29 q 179 108 235 63 q 124 204 124 154 q 148 263 124 235 q 205 290 172 290 q 274 247 238 290 q 358 128 311 204 q 433 110 385 110 q 522 138 481 110 q 583 217 563 165 q 618 451 618 306 q 478 390 549 390 q 262 490 375 390 q 149 714 149 590 q 203 933 149 810 l 342 858 q 275 666 275 744 q 316 543 275 588 q 414 499 357 499 q 519 531 471 499 q 599 607 568 564 q 553 922 583 763 l 699 857 q 736 446 736 613 z "},"६":{"ha":831,"x_min":117,"x_max":842,"o":"m 603 436 q 465 450 531 450 q 350 428 400 450 q 264 278 264 386 q 317 160 264 213 q 439 107 369 107 q 547 146 508 107 q 518 233 518 199 q 546 290 518 267 q 613 314 574 314 q 692 258 651 314 q 732 164 732 203 q 696 79 732 125 l 842 -131 l 747 -190 l 622 22 q 515 -1 572 -1 q 253 114 368 -1 q 138 344 138 229 q 225 524 138 460 q 117 738 117 617 q 247 913 117 858 q 384 938 307 938 q 560 904 461 938 l 596 776 l 592 772 q 406 813 482 813 q 339 803 368 813 q 246 675 246 775 q 296 560 246 607 q 423 579 357 579 q 557 564 489 579 l 607 442 l 603 436 z "},"७":{"ha":1111,"x_min":53,"x_max":1044,"o":"m 763 311 q 553 393 651 311 q 456 607 456 475 q 520 765 456 700 q 675 829 585 829 q 852 763 765 829 q 992 594 939 697 q 1044 397 1044 492 q 1002 215 1044 301 q 870 68 960 129 q 662 7 781 7 q 442 65 543 7 q 274 214 340 124 q 160 426 208 304 q 53 894 78 633 l 144 938 q 278 393 174 617 q 421 208 333 276 q 617 140 508 140 q 848 237 769 140 q 926 464 926 333 q 872 631 926 565 q 733 697 817 697 q 633 658 675 697 q 590 541 590 619 q 665 425 590 463 q 792 393 726 393 q 821 394 807 393 l 822 393 l 769 311 q 763 311 765 311 z "},"८":{"ha":763,"x_min":64,"x_max":718,"o":"m 415 -14 q 179 94 294 -14 q 64 310 64 203 q 118 460 64 390 l 494 938 l 621 860 l 267 388 q 211 255 211 314 q 257 156 211 196 q 373 115 303 115 q 503 176 443 115 q 593 331 563 238 l 599 332 l 718 246 q 531 10 647 63 q 415 -14 479 -14 z "},"९":{"ha":671,"x_min":39,"x_max":614,"o":"m 110 472 q 39 676 39 571 q 119 860 39 782 q 299 938 200 938 q 519 838 424 938 q 614 644 614 739 q 526 453 614 529 q 307 350 439 378 l 561 -19 q 596 -112 596 -69 q 501 -228 596 -179 l 385 -135 q 457 -49 457 -99 q 415 42 457 -17 l 110 472 m 348 503 q 376 515 348 503 q 451 581 404 528 q 499 693 499 635 q 463 783 499 751 q 358 814 428 814 q 231 760 289 814 q 172 618 172 706 q 233 467 172 531 q 348 503 292 478 z "},"॰":{"ha":707,"x_min":139,"x_max":568,"o":"m 348 608 q 395 608 348 608 q 505 549 442 608 q 568 404 568 489 q 511 260 568 319 q 361 197 454 201 q 204 258 269 197 q 139 403 139 318 q 197 548 139 489 q 348 608 254 607 m 311 283 q 422 333 372 283 q 471 447 471 383 q 451 502 471 481 q 397 524 431 524 q 288 478 340 524 q 236 364 236 432 q 256 306 236 328 q 311 283 276 283 z "},"ॽ":{"ha":853,"x_min":193,"x_max":753,"o":"m 536 -29 l 531 -29 l 400 58 l 400 357 q 434 479 400 414 q 508 592 468 544 q 618 782 618 719 q 585 847 618 824 q 497 871 551 871 q 306 750 383 871 l 193 860 q 299 963 235 925 q 438 1001 363 1001 q 647 908 542 1001 q 753 729 753 815 q 644 526 753 650 q 570 413 604 481 q 536 278 536 346 l 536 -29 z "},"​":{"ha":0,"x_min":0,"x_max":0,"o":""},"‌":{"ha":0,"x_min":-32,"x_max":33,"o":"m 33 -319 l -32 -319 l -32 1126 l 33 1126 l 33 -319 z "},"‍":{"ha":0,"x_min":-176,"x_max":179,"o":"m 33 -319 l -32 -319 l -32 882 l -128 781 l -174 826 l -44 956 l -176 1088 l -131 1133 l 1 1001 l 135 1133 l 179 1089 l 46 956 l 179 824 l 133 778 l 33 882 l 33 -319 z "},"–":{"ha":908,"x_min":96,"x_max":832,"o":"m 832 436 l 156 436 l 96 556 l 96 567 l 771 567 l 832 446 l 832 436 z "},"—":{"ha":1024,"x_min":96,"x_max":904,"o":"m 904 436 l 156 436 l 96 556 l 96 567 l 843 567 l 904 446 l 904 436 z "},"‘":{"ha":385,"x_min":103,"x_max":310,"o":"m 103 964 q 136 1110 103 1036 q 217 1242 169 1185 l 299 1206 q 219 1015 219 1092 q 310 890 219 938 l 310 882 l 243 769 q 103 964 103 824 z "},"’":{"ha":383,"x_min":75,"x_max":283,"o":"m 75 1132 l 142 1242 q 282 1047 283 1186 q 168 769 281 908 l 86 808 q 167 990 165 917 q 75 1121 164 1074 l 75 1132 z "},"‚":{"ha":383,"x_min":75,"x_max":281,"o":"m 142 307 q 281 114 281 257 q 167 -164 281 -29 l 86 -125 q 165 61 164 -18 q 75 188 165 140 l 75 197 l 142 307 z "},"“":{"ha":626,"x_min":103,"x_max":551,"o":"m 243 754 q 103 947 103 808 q 217 1226 103 1086 l 299 1188 q 219 1006 221 1089 q 308 874 217 924 l 308 864 l 243 754 m 551 864 l 485 754 q 345 949 344 810 q 458 1226 346 1088 l 540 1188 q 460 1004 461 1083 q 551 874 458 925 l 551 864 z "},"”":{"ha":626,"x_min":75,"x_max":524,"o":"m 524 1032 q 490 885 524 960 q 410 754 457 811 l 328 790 q 407 978 407 899 q 317 1106 407 1057 l 317 1114 l 383 1226 q 524 1032 524 1172 m 281 1032 q 249 884 281 957 q 168 754 217 811 l 86 790 q 167 972 165 907 q 75 1106 164 1057 l 75 1114 l 143 1226 q 281 1032 281 1172 z "},"„":{"ha":626,"x_min":75,"x_max":524,"o":"m 524 114 q 490 -33 524 42 q 410 -164 457 -107 l 328 -128 q 407 60 407 -19 q 317 188 407 139 l 317 196 l 383 308 q 524 114 524 254 m 281 114 q 249 -34 281 39 q 168 -164 217 -107 l 86 -128 q 167 54 165 -11 q 75 188 164 139 l 75 196 l 143 308 q 281 114 281 254 z "},"†":{"ha":901,"x_min":96,"x_max":806,"o":"m 806 726 l 521 726 l 521 -49 l 511 -49 l 381 54 l 381 726 l 156 726 l 96 847 l 96 857 l 381 857 l 381 1176 l 392 1176 l 521 1074 l 521 857 l 746 857 l 806 738 l 806 726 z "},"‡":{"ha":901,"x_min":96,"x_max":806,"o":"m 806 792 l 521 792 l 521 401 l 746 401 l 806 281 l 806 271 l 521 271 l 521 17 l 511 17 l 381 119 l 381 271 l 156 271 l 96 392 l 96 401 l 381 401 l 381 792 l 156 792 l 96 913 l 96 922 l 381 922 l 381 1242 l 392 1242 l 521 1139 l 521 922 l 746 922 l 806 803 l 806 792 z "},"•":{"ha":464,"x_min":111,"x_max":354,"o":"m 354 492 q 354 467 354 492 q 318 407 354 442 q 232 372 282 372 q 147 407 182 372 q 111 492 111 442 q 147 578 111 542 q 232 614 182 614 q 318 578 282 614 q 354 492 354 542 z "},"…":{"ha":965,"x_min":90,"x_max":874,"o":"m 290 152 q 290 132 290 152 q 260 81 290 111 q 190 51 231 51 q 119 81 149 51 q 90 152 90 111 q 119 222 90 193 q 190 251 149 251 q 261 222 232 251 q 290 152 290 193 m 583 152 q 583 132 583 152 q 554 81 583 111 q 483 51 525 51 q 413 81 442 51 q 383 152 383 111 q 413 222 383 193 q 483 251 442 251 q 554 222 525 251 q 583 152 583 193 m 874 152 q 874 132 874 152 q 844 81 874 111 q 773 51 814 51 q 703 81 732 51 q 674 152 674 111 q 703 222 674 193 q 773 251 732 251 q 844 222 814 251 q 874 152 874 193 z "},"‰":{"ha":1560,"x_min":82,"x_max":1494,"o":"m 378 65 l 229 65 l 764 933 l 911 933 l 378 65 m 189 708 q 210 608 189 644 q 267 571 231 571 q 324 606 303 571 q 344 708 344 642 q 265 838 344 838 q 189 708 189 838 m 82 714 q 82 762 82 714 q 130 873 82 810 q 267 936 178 936 q 404 873 357 936 q 451 712 451 810 q 406 549 451 614 q 269 483 360 483 q 131 551 179 483 q 82 714 82 618 m 883 414 q 807 286 807 414 q 827 183 807 219 q 883 147 847 147 q 941 183 919 147 q 963 282 963 218 q 883 414 963 414 m 747 449 q 771 481 747 449 q 885 513 794 513 q 1022 449 975 513 q 1068 288 1068 386 q 1022 125 1068 190 q 886 60 976 60 q 748 126 796 60 q 700 290 700 193 q 747 449 700 386 m 1233 282 q 1254 183 1233 219 q 1311 147 1275 147 q 1368 182 1347 147 q 1389 282 1389 217 q 1311 414 1389 414 q 1233 282 1233 414 m 1126 290 q 1126 338 1126 290 q 1174 449 1126 386 q 1312 513 1222 513 q 1448 449 1401 513 q 1494 288 1494 385 q 1449 125 1494 190 q 1313 60 1403 60 q 1175 126 1224 60 q 1126 290 1126 193 z "},"‹":{"ha":632,"x_min":151,"x_max":460,"o":"m 151 500 l 396 775 l 460 742 l 296 500 l 460 258 l 396 222 l 151 500 z "},"›":{"ha":632,"x_min":169,"x_max":478,"o":"m 233 840 l 478 565 l 233 288 l 169 324 l 333 565 l 169 807 l 233 840 z "},"⁄":{"ha":689,"x_min":14,"x_max":672,"o":"m 597 1001 l 672 1001 l 89 13 l 14 13 l 597 1001 z "},"€":{"ha":804,"x_min":31,"x_max":744,"o":"m 331 506 l 332 454 l 606 454 q 606 431 606 450 q 589 376 606 411 l 342 376 q 549 164 383 164 q 711 226 631 164 l 744 183 q 494 47 639 47 q 277 133 371 47 q 154 376 183 218 l 33 376 q 51 454 33 414 l 144 454 q 143 503 143 471 q 144 550 143 536 l 31 550 q 47 628 31 590 l 153 628 q 276 877 181 789 q 499 965 371 965 q 738 868 628 965 l 711 808 q 549 847 635 847 q 342 628 379 847 l 611 628 q 611 604 611 624 q 594 550 611 585 l 332 550 l 331 506 z "},"₹":{"ha":774,"x_min":86,"x_max":781,"o":"m 551 515 q 507 374 551 428 q 392 301 463 321 q 304 283 354 288 q 571 -24 360 200 l 461 -86 q 86 396 181 253 l 153 460 q 265 411 201 411 q 366 446 328 411 q 404 538 404 481 l 404 567 l 97 564 l 97 688 l 404 685 l 404 817 l 96 814 l 96 936 l 717 936 l 781 814 l 551 817 l 551 685 l 721 688 l 781 564 l 551 567 l 551 515 z "},"™":{"ha":1176,"x_min":40,"x_max":1121,"o":"m 450 947 q 454 881 454 913 q 453 825 454 849 q 417 821 438 821 q 398 886 413 868 q 350 904 383 904 l 297 904 l 297 504 q 357 496 325 496 q 354 457 357 468 l 138 457 q 143 496 138 485 q 199 536 199 500 l 199 904 l 144 904 q 97 887 111 904 q 78 822 82 869 q 42 825 61 819 q 40 876 40 846 q 44 947 40 906 l 450 947 m 1119 496 q 1121 476 1121 486 q 1119 457 1121 467 l 903 457 q 903 496 900 476 q 961 536 961 501 l 953 861 l 793 457 l 765 457 l 619 865 l 596 503 q 654 496 619 496 q 649 457 651 468 l 482 457 q 486 496 482 478 q 539 538 538 501 l 560 904 q 504 910 543 910 q 508 947 508 944 l 686 947 l 796 628 l 922 947 l 1088 947 q 1090 910 1092 926 q 1049 894 1057 904 q 1042 868 1042 883 l 1063 501 q 1119 496 1090 496 z "},"−":{"ha":899,"x_min":96,"x_max":806,"o":"m 806 436 l 156 436 l 96 556 l 96 567 l 746 567 l 806 446 l 806 436 z "},"◌":{"ha":917,"x_min":61,"x_max":856,"o":"m 254 656 q 241 656 254 656 q 210 673 228 656 q 193 717 193 690 q 210 762 193 744 q 254 779 228 779 q 298 762 281 779 q 315 717 315 744 q 298 673 315 690 q 254 656 281 656 m 97 522 q 88 530 97 522 q 79 565 79 539 q 97 609 79 592 q 142 626 115 626 q 186 609 168 626 q 204 565 204 592 q 186 522 204 539 q 142 504 168 504 q 97 522 115 504 m 78 347 q 70 356 78 347 q 61 390 61 364 q 78 435 61 417 q 122 453 96 453 q 166 435 149 453 q 183 391 183 418 q 166 347 183 364 q 122 331 149 331 q 78 347 96 331 m 150 185 q 142 194 150 185 q 133 229 133 203 q 151 273 133 256 q 194 290 168 290 q 238 273 221 290 q 256 229 256 256 q 238 185 256 203 q 194 168 221 168 q 150 185 167 168 m 336 61 q 323 61 336 61 q 292 79 310 61 q 274 124 274 97 q 292 168 274 150 q 336 186 310 186 q 380 168 363 186 q 397 124 397 150 q 380 79 397 97 q 336 61 363 61 m 467 58 q 458 67 467 58 q 450 103 450 75 q 467 147 450 131 q 511 164 483 164 q 556 147 539 164 q 574 103 574 129 q 556 59 574 76 q 511 42 539 42 q 467 58 483 42 m 635 133 q 627 141 635 133 q 618 176 618 150 q 635 220 618 203 q 679 238 653 238 q 724 220 706 238 q 742 176 742 203 q 724 133 742 150 q 679 115 706 115 q 635 133 653 115 m 738 269 q 728 277 738 269 q 719 313 719 286 q 738 357 719 339 q 781 375 756 375 q 824 357 807 375 q 842 313 842 339 q 824 269 842 286 q 781 251 807 251 q 738 269 756 251 m 750 455 q 742 464 750 455 q 733 499 733 472 q 750 542 733 525 q 794 560 767 560 q 838 542 821 560 q 856 499 856 525 q 838 455 856 472 q 794 438 821 438 q 750 455 767 438 m 681 619 q 673 627 681 619 q 664 663 664 636 q 681 707 664 689 q 725 725 699 725 q 769 708 751 725 q 786 663 786 690 q 769 619 786 636 q 725 601 751 601 q 681 619 699 601 m 594 696 q 581 696 594 696 q 550 714 568 696 q 532 758 532 732 q 549 801 532 783 q 594 819 567 819 q 638 802 621 819 q 654 758 654 785 q 637 714 654 732 q 594 696 619 696 m 374 733 q 366 742 374 733 q 357 778 357 750 q 374 822 357 806 q 418 839 392 839 q 462 822 444 839 q 479 778 479 806 q 462 733 479 750 q 418 717 444 717 q 374 733 392 717 z "},"ﬁ":{"ha":881,"x_min":36,"x_max":829,"o":"m 829 129 q 829 110 829 124 q 825 65 829 96 l 479 65 q 478 92 478 75 q 485 129 478 110 q 552 152 531 136 q 574 206 574 168 l 574 615 l 303 615 l 303 151 q 396 129 339 132 q 396 110 396 124 q 392 65 396 96 l 36 65 q 36 92 36 75 q 42 129 36 110 q 109 152 88 136 q 131 207 131 168 l 131 610 q 49 615 104 615 q 47 640 47 625 q 51 669 47 654 q 131 696 94 689 l 131 775 q 211 984 131 913 q 424 1056 292 1056 q 658 1001 557 1056 q 758 879 758 947 q 731 817 758 842 q 667 793 703 793 q 606 813 631 793 q 563 859 581 832 q 525 914 544 886 q 404 978 476 978 q 303 850 303 976 l 303 697 q 746 713 601 701 l 746 146 q 829 129 779 132 z "},"ﬂ":{"ha":868,"x_min":36,"x_max":819,"o":"m 818 129 q 819 106 819 122 q 813 65 819 90 l 468 65 q 467 92 467 75 q 474 129 467 110 q 541 152 519 136 q 563 206 563 168 l 563 940 q 429 969 504 969 q 301 843 301 969 l 301 697 q 479 710 400 700 q 465 615 479 656 l 301 615 l 301 147 q 386 129 333 132 q 386 106 386 122 q 381 65 386 90 l 36 65 q 36 92 36 75 q 42 129 36 110 q 109 152 88 136 q 131 206 131 168 l 131 610 q 49 615 103 615 q 49 636 49 624 q 50 669 49 649 q 131 696 96 689 l 131 768 q 300 1025 131 954 q 513 1064 392 1064 q 733 1036 635 1064 l 733 147 q 818 129 765 132 z "}," ":{"ha":347,"x_min":0,"x_max":0,"o":""}}}
